<svg id="door" xmlns="http://www.w3.org/2000/svg" width="384.264" height="136.105" viewBox="0 0 384.264 136.105">
  <g id="Group_139" data-name="Group 139">
    <rect id="Rectangle_146" data-name="Rectangle 146" width="382.598" height="131.499" transform="translate(0.418)" fill="#506a8d"/>
    <g id="Group_130" data-name="Group 130" transform="translate(0 0.064)">
      <path id="Path_671" data-name="Path 671" d="M3340,5279h382.587v131.438H3565.622Z" transform="translate(-3339.541 -5279)" fill="#3d5980" fill-rule="evenodd"/>
      <rect id="Rectangle_147" data-name="Rectangle 147" width="384.264" height="9.998" transform="translate(0 126.042)" fill="#28324e"/>
    </g>
    <path id="Path_767" data-name="Path 767" d="M3722.587,5601v3.869H3340V5601Zm0,24.062v3.992H3340v-3.992Zm0,25.03v3.99H3340v-3.991Zm0,24.184v3.87H3340v-3.87Z" transform="translate(-3339.501 -5562.011)" fill="#28324e" fill-rule="evenodd"/>
    <path id="Path_768" data-name="Path 768" d="M3489,5379h13.6v13.907H3489Zm88.445,0h13.6v13.907h-13.6Zm-21.642,0h13.6v13.907h-13.6Zm-44.454,0h13.6v13.907h-13.6Z" transform="translate(-3470.882 -5366.853)" fill="#28324e" fill-rule="evenodd"/>
    <path id="Path_769" data-name="Path 769" d="M5528,5379h13.6v13.907H5528Zm88.563,0h13.6v13.907h-13.6Zm-21.755,0h13.6v13.907h-13.6Zm-44.34,0h13.6v13.907h-13.6Z" transform="translate(-5263.746 -5366.853)" fill="#28324e" fill-rule="evenodd"/>
  </g>
</svg>
