<svg xmlns="http://www.w3.org/2000/svg" xmlns:xlink="http://www.w3.org/1999/xlink" width="1920" height="1087" viewBox="0 0 1920 1087"><defs><style>.a{fill:#fff;stroke:#707070;}.b{clip-path:url(#d);}.c{clip-path:url(#b);}.ae,.d{fill:none;}.e{fill:#ffdb0d;}.ab,.ad,.ag,.ah,.ai,.e,.f,.g,.h,.i,.j,.k,.m,.n,.o,.q,.r,.t,.w,.x,.y{fill-rule:evenodd;}.f{fill:#fabe1e;}.g,.u{fill:#97d1e3;}.h{fill:#88b7d5;}.i,.p{fill:#28324e;}.j,.m,.z{fill:#bae1ec;}.ae,.j,.k,.l{stroke:#28324e;stroke-linecap:round;}.j{stroke-width:30px;}.af,.k,.q{fill:#414f6f;}.k{stroke-linejoin:round;}.ae,.k{stroke-width:50px;}.aa,.l{fill:#506a8d;}.l{stroke-width:20px;}.n{fill:#a38f84;}.o{fill:#75706b;}.r{fill:#54617d;}.s,.t{fill:#54acd2;}.ad,.v{fill:#fba026;}.ac,.w{fill:#f0882d;}.x{fill:#f7da64;}.y{fill:#faedb4;}.ab{fill:#3d5980;}.ag{fill:#5d7d9e;}.ah{fill:#d8eb4c;}.ai{fill:#bccb4c;}.aj{fill:#b8312f;}.ak{fill:#fefefe;}.al{fill:url(#a);}</style><linearGradient id="a" x1="0.5" x2="0.5" y2="1" gradientUnits="objectBoundingBox"><stop offset="0" stop-color="#87ceeb"/><stop offset="1" stop-color="#fff"/></linearGradient><clipPath id="b"><rect class="a" width="1920" height="1087"/></clipPath><clipPath id="d"><rect width="1920" height="1087"/></clipPath></defs><g id="c" class="b"><rect class="al" width="1920" height="1087"/><g class="c"><g transform="translate(-5262.667 -1247.502)"><g transform="translate(4430.667 -308.498)"><g transform="translate(0 0)"><rect class="d" width="4330" height="3031" transform="translate(0 0)"/><g transform="translate(434.296 164.344)"><path class="e" d="M3456.607,450c763.655,0,1387.433,599.31,1427.607,1353.1H2029C2068.808,1049.31,2692.587,450,3456.607,450Z" transform="translate(-1722.286 -450)"/><path class="f" d="M4520.83,1661.225c211.091,235.2,345.489,540.876,363.384,877.6H2029c18.99-362.289,173.109-688.421,412.322-929.825,203.422,77.79,367.4,235.926,452.131,435.7,132.936-118.328,308.237-190.274,499.973-190.274A749.71,749.71,0,0,1,3892.3,2043.6C4017.205,1822.283,4250.939,1670.721,4520.83,1661.225Z" transform="translate(-1722.286 -1185.721)"/><g transform="translate(32.183 618.619)"><path class="g" d="M7034,4971H8247.593v498.147H7034Z" transform="translate(-4931.592 -3938.503)"/><path class="h" d="M8247.593,5391v94.589H7034V5391Zm0,189.179v94.589H7034v-94.589Z" transform="translate(-4931.592 -4205.115)"/><path class="i" d="M7006.069,4927H8236.1v117.233h-16.433V4943.069H7006.069v498.146H8197.751v16.07H6990V4927Z" transform="translate(-4903.662 -3910.572)"/><path class="j" d="M7203.1,5196.583H8253.807v57.7H8179.67v375.437H8072.665V5254.285H7310.47v375.437H7203.1V5254.285H6927V5167h276.1Z" transform="translate(-4863.669 -4062.922)"/><path class="k" d="M5868.39,3751.03,5715,3491H7111.929L7453.4,4082.276H6199.635Z" transform="translate(-4094.304 -2999.014)"/><rect class="l" width="144" height="266" transform="translate(2101.521 1265.037)"/><path class="m" d="M2699,5512.285H4282.187V4982l-1554.335,51.13Z" transform="translate(-2179.778 -3945.486)"/><path class="g" d="M4325.987,5090.1V4982l-1554.334,51.13L2768,5090.1Z" transform="translate(-2223.578 -3945.486)"/><path class="g" d="M4315.2,5548.433V5490H2751v58.433Zm0,116.869v-58.434H2751V5665.3Z" transform="translate(-2212.787 -4267.959)"/><path class="n" d="M2918,6090.416h126.729V5910H2918Z" transform="translate(-2318.797 -4534.57)"/><path class="o" d="M3044.729,5983.408V5910H2918Z" transform="translate(-2318.797 -4534.57)"/><path class="p" d="M2914.13,6078.049h117.6V5907.131h-117.6Zm122.346,9.13H2909.748A4.529,4.529,0,0,1,2905,6082.8V5902.383a4.53,4.53,0,0,1,4.748-4.383h126.728a4.53,4.53,0,0,1,4.747,4.383V6082.8A4.528,4.528,0,0,1,3036.476,6087.18Z" transform="translate(-2310.544 -4526.953)"/><path class="p" d="M2914.13,6079.953h117.6v-47.478h-117.6Zm122.346,9.13H2909.748A4.528,4.528,0,0,1,2905,6084.7v-56.974a4.782,4.782,0,0,1,4.748-4.381h126.728a4.781,4.781,0,0,1,4.747,4.381V6084.7A4.528,4.528,0,0,1,3036.476,6089.083Zm-4.748-126.729V5910.5h-117.6v51.859Zm9.5-56.606v60.989a4.835,4.835,0,0,1-4.747,4.748H2909.748a4.835,4.835,0,0,1-4.748-4.748v-60.989a4.835,4.835,0,0,1,4.748-4.748h126.728A4.834,4.834,0,0,1,3041.223,5905.748Z" transform="translate(-2310.544 -4528.858)"/><path class="i" d="M2723.469,5488.913H4271.23V5005.739l-1521.466,14.975ZM2699,5512.285H4294.6V4982l-1566.751,16.434Z" transform="translate(-2179.778 -3945.486)"/><path class="m" d="M1355.1,4805.5l-66.1,114.31,13.148,13.513,602.6-2.557,25.2-43.825H3311.9l25.93,44.19,589.084.365,15.7-20.087-46.382-79.981H3422.193l-70.851-40.9-3.652-12.781-18.626.365L3247.623,4731H1765.6Z" transform="translate(-1284.724 -3786.155)"/><path class="g" d="M1306.165,5167,1289,5196.583l13.148,13.513,602.6-2.557L1928.118,5167Zm2007.926,0,23.738,40.9,589.084.364,15.7-20.086L3930.2,5167Z" transform="translate(-1284.724 -4062.922)"/><path class="i" d="M1359.358,4822.3l-53.686,92.763,580.685-2.557,20.086-35.059a19.125,19.125,0,0,1,16.07-9.131H3304.467c7.67,0,14.244,4.383,16.8,10.957l19.722,33.6,573.745.365-36.521-63.181H3414.761a22.631,22.631,0,0,1-10.957-3.288L3334.78,4806.6a16.451,16.451,0,0,1-8.4-10.227H3322a18.376,18.376,0,0,1-9.861-2.92l-76.695-44.191H1759.263Zm-11.687-16.8-62.816,108.833c-12.782,21.912-10.956,18.99,17.9,18.99l594.562-2.557,25.2-43.825H3304.467l25.931,44.19,587.988.365c28.121,0,28.121,0,16.8-19.721l-46.382-80.347H3414.761l-70.851-40.9-3.652-12.781-18.625.365L3240.191,4731H1758.168Z" transform="translate(-1277.292 -3786.155)"/><path class="q" d="M4244.67,4261l-1181.089,96.78L2950,4547.325H4416.319Z" transform="translate(-2339.11 -3487.802)"/><path class="r" d="M3010.991,4699.078,2950,4800.606h356.446L3062.851,4660Z" transform="translate(-2339.11 -3741.083)"/><path class="i" d="M4232.253,4285.1l-1155.16,94.589-86.555,144.623H4375.781Zm12.417-24.1-1181.089,96.78L2950,4547.325H4416.319Z" transform="translate(-2339.11 -3487.802)"/><path class="q" d="M2216.653,3329.933l-39.808-155.214H1723.619L1369,3789h582.51Zm904.626,0L3077.088,3029h452.86l438.983,760h-582.51Z" transform="translate(-1335.507 -2705.742)"/><path class="r" d="M6971.019,4300.643l-69.755-40.538v40.538ZM6237.311,3877,6165,3835l.731,6.573,50.4,86.92Zm56.609,186.257,136.954,237.387H6704.78Z" transform="translate(-4379.958 -3217.383)"/><path class="r" d="M1527.866,4356,1369,4631.367h472.947l108.833-31.042Z" transform="translate(-1335.507 -3548.107)"/><path class="i" d="M2191.818,3326.647l-32.869-128.919H1736.767l-327.958,567.9h529.554Zm24.834,3.286-39.808-155.214H1723.619L1369,3789h582.51Zm904.626,0L3077.088,3029h452.86l438.983,760h-582.51Zm-17.53-277.925,39.807,270.255,256.012,443.365h529.555L3516.8,3052.009Z" transform="translate(-1335.507 -2705.742)"/><path class="q" d="M4437.15,2891.054,3221,2864.029,3314.129,2562H4334.161Z" transform="translate(-2511.138 -2409.295)"/><path class="r" d="M3340.789,2930.064,3221,2927.508,3302.807,2662l207.44,119.424Z" transform="translate(-2511.138 -2472.774)"/><path class="p" d="M4416.376,2882.062l-1215.054-27.025A11.456,11.456,0,0,1,3190,2843.35c0-1.1.365-2.191.365-3.287l93.128-302.029a11.4,11.4,0,0,1,10.957-8.034H4314.481a11.011,11.011,0,0,1,10.958,8.764l102.989,328.689a11.488,11.488,0,0,1-7.3,14.243C4419.3,2882.062,4417.837,2882.428,4416.376,2882.062Zm-1199.35-49.668,1184.742,26.3-95.686-305.681H3302.851Z" transform="translate(-2491.46 -2388.982)"/><path class="m" d="M3290,3561.382v371.784h562.059v-339.28l-55.147-68.66L3303.513,3515Z" transform="translate(-2554.939 -3014.249)"/><path class="g" d="M3290,3642v59.529h562.059V3674.5l-26.3-32.5Zm0,119.424v59.528h560.233v-59.528Zm0,119.423v59.895h562.059v-59.895Z" transform="translate(-2554.939 -3094.868)"/><path class="p" d="M3282.009,3542.529v358.636h538.686V3577.589l-48.939-61.355-479.521-9.86ZM3259,3912.852V3541.069a10.108,10.108,0,0,1,.365-3.287l13.148-46.382a12.184,12.184,0,0,1,11.321-8.4l493.034,10.226a11.081,11.081,0,0,1,9.131,4.383l54.781,67.929a12.319,12.319,0,0,1,3.287,8.035v339.28a12.017,12.017,0,0,1-11.687,11.687H3270.321C3264.113,3924.539,3259,3919.061,3259,3912.852Z" transform="translate(-2535.26 -2993.936)"/><path class="m" d="M4829,3615.311V3987.1h653.361v-416.34L4902.407,3543Z" transform="translate(-3531.88 -3032.023)"/><path class="g" d="M5486.8,3930.488v-59.53H4837.46v59.53Zm0-119.423V3751.17H4836v59.895Zm0-119.424v-59.895H4837.46v59.895Zm0-119.424v-1.461L4906.85,3543l-29.582,29.217Z" transform="translate(-3536.323 -3032.023)"/><path class="p" d="M4820.373,3599.746V3955.46h629.988V3561.4l-563.52-27.025ZM4797,3966.783V3595a11.732,11.732,0,0,1,3.651-8.035l73.408-72.312a12.752,12.752,0,0,1,8.765-3.652l579.223,28.121a11.378,11.378,0,0,1,11.321,11.322v416.34a11.46,11.46,0,0,1-11.321,11.687H4808.687A11.768,11.768,0,0,1,4797,3966.783Z" transform="translate(-3511.567 -3011.71)"/><path class="m" d="M3348.12,3446H4364.5l72.678,53.321H3236Z" transform="translate(-2520.66 -2970.449)"/><path class="q" d="M5385.152,3021,5181,3171.1h390.41Z" transform="translate(-3755.326 -2700.663)"/><path class="q" d="M3547,2773.689h529.555l224.6-181.51L4038.208,2403Z" transform="translate(-2718.08 -2308.363)"/><path class="p" d="M5054.687,3503.008a11.505,11.505,0,1,1,0-23.008h58.435a11.505,11.505,0,1,1,0,23.008Zm298.012,0a11.505,11.505,0,0,1,0-23.008h58.8a11.505,11.505,0,0,1,0,23.008Zm-150.1,0a11.505,11.505,0,0,1,0-23.008h58.8a11.505,11.505,0,0,1,0,23.008Z" transform="translate(-3667.725 -2992.032)"/><path class="p" d="M4160.878,2777.193a7.184,7.184,0,0,1-6.939,6.939,6.934,6.934,0,0,1-6.939-6.939V2552.954a6.715,6.715,0,0,1,6.939-6.939,6.935,6.935,0,0,1,6.939,6.939Zm348.776-2.556a6.935,6.935,0,0,1-6.938,6.939,6.715,6.715,0,0,1-6.939-6.939v-351.7a6.933,6.933,0,0,1,6.939-6.939,7.183,7.183,0,0,1,6.938,6.939Zm-165.076,0a6.934,6.934,0,0,1-6.939,6.939,6.715,6.715,0,0,1-6.938-6.939v-351.7a6.933,6.933,0,0,1,6.938-6.939,7.183,7.183,0,0,1,6.939,6.939Z" transform="translate(-3098.953 -2316.616)"/><path class="p" d="M3276.91,3388H4335.29l94.59,92.763H3129L3273.624,3388Zm1049.249,23.374H3280.2l-72.312,46.017H4373.271Z" transform="translate(-2452.738 -2933.631)"/><path class="m" d="M4009.981,2480.864l37.618-43.094L3718.909,2196,3044,2692.32l37.982,47.843L3718.909,2271.6Z" transform="translate(-2398.78 -2176.962)"/><path class="p" d="M3981.834,2424.4l14.243-16.434-303.125-223.143-650.44,478.426,15.7,20.086,627.066-461.261a12.147,12.147,0,0,1,15.7.731Zm50.034-5.478-37.982,43.1c-4.748,5.477-11.687,6.573-17.531,2.556l-283.4-203.787-628.527,462.357c-5.843,4.747-13.878,4.018-19.356-2.557l-37.617-47.843c-.73-1.46-1.46-2.556-2.191-4.017-4.382-9.13-1.826-20.817,5.478-26.295l674.543-495.956c4.748-3.287,10.227-3.652,14.974,0l327.958,241.039a17.28,17.28,0,0,1,4.748,4.383C4038.442,2399.565,4037.711,2411.617,4031.868,2418.921Z" transform="translate(-2372.825 -2143.87)"/><path class="m" d="M4722,3098l373.61-275L5461.55,3091.8l-42,43.094-325.768-239.578-324.307,238.482Z" transform="translate(-3463.958 -2574.975)"/><path class="p" d="M4649.435,3056.4l383.837-282.307a18.638,18.638,0,0,1,23.008,0l371.053,272.812a19.174,19.174,0,0,1,4.018,26.661,6.561,6.561,0,0,1-1.827,2.556l-41.268,42.73a18.959,18.959,0,0,1-24.835,2.192l-320.655-235.561-320.289,235.561a19.745,19.745,0,0,1-23.009,0l-49.3-33.6a18.54,18.54,0,0,1-5.114-26.295A13.678,13.678,0,0,1,4649.435,3056.4Zm395.158-243.23-350.6,257.838,16.8,11.321,320.29-235.926a18.645,18.645,0,0,1,23.008,0l318.463,233.734,14.608-15.339Z" transform="translate(-3412.94 -2541.408)"/><path class="p" d="M3765.687,3503.008a11.505,11.505,0,1,1,0-23.008h58.434a11.505,11.505,0,1,1,0,23.008Zm298.011,0a11.767,11.767,0,0,1-11.686-11.686c0-6.208,5.478-11.322,11.686-11.322h58.8a11.505,11.505,0,0,1,0,23.008Zm-150.1,0a11.505,11.505,0,0,1,0-23.008h58.8a11.505,11.505,0,0,1,0,23.008Z" transform="translate(-2849.481 -2992.032)"/><rect class="s" width="90" height="152" transform="translate(1274.521 193.037)"/><path class="p" d="M4759.478,2659h90.206c2.923,0,5.479,1.826,5.479,4.382v152.658c0,2.557-2.556,4.383-5.479,4.383h-90.206c-3.288,0-5.478-1.826-5.478-4.383V2663.382C4754,2660.826,4756.19,2659,4759.478,2659Zm84.729,9.13h-79.251v143.162h79.251Z" transform="translate(-3484.271 -2470.87)"/><path class="t" d="M4769,2671h90.208v25.564H4769Z" transform="translate(-3493.792 -2478.487)"/><path class="p" d="M4759.478,2659h90.206c2.923,0,5.479,1.826,5.479,4.382v25.565c0,2.557-2.556,4.748-5.479,4.748h-90.206c-3.288,0-5.478-2.191-5.478-4.748v-25.565C4754,2660.826,4756.19,2659,4759.478,2659Zm84.729,9.13h-79.251v16.435h79.251Z" transform="translate(-3484.271 -2470.87)"/><path class="t" d="M4859.208,3018v25.93H4769V3018Z" transform="translate(-3493.792 -2698.759)"/><path class="p" d="M4855.163,3010.383v25.929c0,2.556-2.556,4.382-5.479,4.382h-90.206c-3.288,0-5.478-1.826-5.478-4.382v-25.929c0-2.557,2.19-4.383,5.478-4.383h90.206C4852.607,3006,4855.163,3007.826,4855.163,3010.383Zm-10.956,21.182v-16.434h-79.251v16.434Z" transform="translate(-3484.271 -2691.141)"/><rect class="u" width="48" height="93" transform="translate(1296.521 223.037)"/><path class="p" d="M5698.085,3068.939a6.935,6.935,0,0,1,6.939-6.939,7.183,7.183,0,0,1,6.94,6.939v121.98a6.934,6.934,0,0,1-6.94,6.939,6.716,6.716,0,0,1-6.939-6.939Zm-62.086,0a6.936,6.936,0,0,1,6.939-6.939,7.184,7.184,0,0,1,6.94,6.939v121.98a6.934,6.934,0,0,1-6.94,6.939,6.716,6.716,0,0,1-6.939-6.939Z" transform="translate(-4044.155 -2726.69)"/><path class="p" d="M5399.929,2429.676a10.41,10.41,0,1,1-20.816,0v-43.46h-2.922c-1.459,0-2.191-1.1-2.191-2.922v-23.373c0-1.461.731-2.922,2.191-2.922h26.661c1.46,0,2.191,1.46,2.191,2.922v23.373c0,1.826-.73,2.922-2.191,2.922h-2.922Z" transform="translate(-3877.839 -2279.163)"/><rect class="v" width="312" height="215" transform="translate(868.521 623.037)"/><path class="w" d="M3872.839,4083.519H3657V3915.156L3668.322,3879Z" transform="translate(-2787.906 -3245.313)"/><path class="p" d="M3636.687,3816h323.576v239.213H3625V3816Zm300.567,23.008H3648.008v193.2h289.247Z" transform="translate(-2767.593 -3205.322)"/><path class="x" d="M4084,3847h155.945v216.2H4084Z" transform="translate(-3058.962 -3225)"/><path class="y" d="M4084,3847h93.494l62.451,62.452V4031.8L4084,3875.487Zm155.945,213.283v2.921h-21.913L4084,3929.173v-24.834Z" transform="translate(-3058.962 -3225)"/><path class="p" d="M4063.687,3816h167.632v239.213H4052V3816Zm144.624,23.008h-133.3v193.2h133.3Z" transform="translate(-3038.649 -3205.322)"/><rect class="v" width="370" height="255" transform="translate(1438.521 602.037)"/><path class="w" d="M5470.473,4071.23H5213V3873.286L5227.243,3828Z" transform="translate(-3775.64 -3212.938)"/><path class="p" d="M5195.418,3758h382.375v281.212H5183V3758Zm357.175,25.564H5208.2v230.448h344.393Z" transform="translate(-3756.596 -3168.504)"/><path class="x" d="M5723,3793h184.8v256.013H5723Z" transform="translate(-4099.383 -3190.721)"/><path class="y" d="M5723,3793h109.563l72.676,72.677v142.8L5723,3826.234Zm0,95.685v-28.852l182.24,182.24v3.287h-25.2Z" transform="translate(-4099.383 -3190.721)"/><path class="p" d="M5701.417,3758H5899v281.212H5689V3758Zm172.379,25.564H5714.2v230.448h159.6Z" transform="translate(-4077.799 -3168.504)"/><path class="p" d="M3272.226,4546.818A9.988,9.988,0,0,1,3262,4536.591a11.791,11.791,0,0,1,2.922-7.67,10.86,10.86,0,0,1,7.3-2.921H3443.51a10.2,10.2,0,0,1,7.3,2.921c1.826,2.192,3.287,4.748,3.287,7.67a11.246,11.246,0,0,1-3.287,7.3,10.191,10.191,0,0,1-7.3,2.923Zm198.675,0a10.19,10.19,0,0,1-7.3-2.923,9.728,9.728,0,0,1-3.287-7.3,10.513,10.513,0,0,1,3.287-7.67,10.2,10.2,0,0,1,7.3-2.921h41.633a10.2,10.2,0,0,1,7.3,2.921,11.788,11.788,0,0,1,2.921,7.67,10.853,10.853,0,0,1-2.921,7.3,10.191,10.191,0,0,1-7.3,2.923Z" transform="translate(-2537.165 -3656.022)"/><path class="p" d="M4811.225,4639.817a9.2,9.2,0,0,1-7.3-3.288,10.226,10.226,0,0,1,7.3-17.529H4982.51a10.329,10.329,0,0,1,7.3,17.529,9.194,9.194,0,0,1-7.3,3.288Zm198.31,0a9.2,9.2,0,0,1-7.3-3.288,10.226,10.226,0,0,1,7.3-17.529h41.634a11.788,11.788,0,0,1,7.669,2.92,10.592,10.592,0,0,1,0,14.608,10.511,10.511,0,0,1-7.669,3.288Z" transform="translate(-3514.106 -3715.057)"/><path class="p" d="M2844.748,5093.5a4.748,4.748,0,1,1,0-9.5h81.076a4.748,4.748,0,1,1,0,9.5Zm1435.642,0a4.748,4.748,0,1,1,0-9.5h81.077a4.748,4.748,0,1,1,0,9.5Z" transform="translate(-2269.283 -4010.235)"/><rect class="z" width="54" height="422" transform="translate(75.521 1138.037)"/><path class="g" d="M1535.512,5330v58.434H1480V5330Zm0,116.868V5505.3H1480v-58.432Z" transform="translate(-1405.969 -4166.393)"/><path class="p" d="M1467.939,5239h62.451v436.426H1461V5239Zm48.573,16.8h-41.634v402.828h41.634Z" transform="translate(-1393.908 -4108.628)"/><path class="t" d="M1535.512,5833v211.091H1480V5833Z" transform="translate(-1405.969 -4485.692)"/><path class="g" d="M1535.512,5921v58.434H1480V5921Zm0,116.868V6096.3H1480v-58.433Z" transform="translate(-1405.969 -4541.554)"/><path class="p" d="M1530.39,5818.4v219.491H1461V5810h69.39Zm-13.878,202.692V5826.436h-41.634v194.656Z" transform="translate(-1393.908 -4471.092)"/><rect class="aa" width="384" height="399" transform="translate(129.521 1138.037)"/><path class="ab" d="M1785.023,5262H2016.2v270.622L1632,5310.573v-24.834Z" transform="translate(-1502.457 -4123.227)"/><path class="g" d="M1632,5262h384.2v41.635H1632Z" transform="translate(-1502.457 -4123.227)"/><path class="p" d="M1621.844,5243h390.045v55.512H1616V5243Zm378.358,13.878h-372.88v27.756H2000.2Z" transform="translate(-1492.3 -4111.166)"/><path class="i" d="M2016.2,5800v12.053H1632V5800Zm0,75.6v12.051H1632V5875.6Zm0,73.041v11.688H1632V5948.64Z" transform="translate(-1502.457 -4464.744)"/><rect class="z" width="55" height="422" transform="translate(513.521 1138.037)"/><path class="g" d="M2739.512,5330v58.434H2684V5330Zm0,116.868V5505.3H2684v-58.432Z" transform="translate(-2170.256 -4166.393)"/><path class="p" d="M2671.939,5239h62.451v436.426H2665V5239Zm48.573,16.8h-41.634v402.828h41.634Z" transform="translate(-2158.195 -4108.628)"/><path class="t" d="M2739.512,5833v211.091H2684V5833Z" transform="translate(-2170.256 -4485.692)"/><path class="g" d="M2739.512,5921v58.434H2684V5921Zm0,116.868V6096.3H2684v-58.433Z" transform="translate(-2170.256 -4541.554)"/><path class="p" d="M2734.39,5818.4v219.491H2665V5810h69.39Zm-13.878,202.692V5826.436h-41.634v194.656Z" transform="translate(-2158.195 -4471.092)"/><path class="i" d="M1726,5518h42v42h-42Zm273.543,0h42v42h-42Zm-67.2,0h42v42h-42Zm-136.954,0h42v42h-42Z" transform="translate(-1562.127 -4285.733)"/><path class="p" d="M1623.748,5247H2012.7v408.671H1619V5247Zm379.819,10.956H1628.13v386.757h375.436Z" transform="translate(-1494.205 -4113.705)"/><rect class="aa" width="1167" height="397" transform="translate(752.521 1145.037)"/><path class="ab" d="M3340,5279H4506.116v396.984H4027.691Z" transform="translate(-2586.678 -4134.019)"/><path class="p" d="M3319.687,5247H4485.8a11.461,11.461,0,0,1,11.321,11.687v396.984a11.461,11.461,0,0,1-11.321,11.687H3319.687A11.768,11.768,0,0,1,3308,5655.671V5258.687A11.768,11.768,0,0,1,3319.687,5247Zm1154.43,23.008H3331.374V5644.35H4474.117Z" transform="translate(-2566.365 -4113.705)"/><path class="i" d="M4506.116,5601v11.687H3340V5601Zm0,72.677v12.052H3340v-12.052Zm0,75.6v12.05H3340v-12.05Zm0,73.041V5834H3340v-11.687Z" transform="translate(-2586.678 -4338.421)"/><path class="i" d="M3489,5379h42v42h-42Zm273.177,0h42v42h-42Zm-66.833,0h42v42h-42Zm-137.319,0h42v42h-42Z" transform="translate(-2681.262 -4197.497)"/><path class="i" d="M5528,5379h42v42h-42Zm273.543,0h42v42h-42Zm-67.2,0h42v42h-42Zm-136.953,0h42v42h-42Z" transform="translate(-3975.599 -4197.497)"/><path class="p" d="M1734.843,4580.321a5.769,5.769,0,0,1-5.843-5.843,5.7,5.7,0,0,1,5.843-5.478h253.821a5.7,5.7,0,0,1,5.843,5.478,5.768,5.768,0,0,1-5.843,5.843Zm287.42,0a5.7,5.7,0,0,1-5.478-5.843,5.617,5.617,0,0,1,5.478-5.478h67.2a5.7,5.7,0,0,1,5.844,5.478,5.769,5.769,0,0,1-5.844,5.843Z" transform="translate(-1564.032 -3683.318)"/><path class="p" d="M2674.463,3964.322a5.768,5.768,0,0,0,5.843-5.844,5.7,5.7,0,0,0-5.843-5.479H2420.642a5.7,5.7,0,0,0-5.844,5.479,5.769,5.769,0,0,0,5.844,5.844Zm-287.421,0a5.769,5.769,0,0,0,5.844-5.844,5.7,5.7,0,0,0-5.844-5.479h-67.2a5.7,5.7,0,0,0-5.843,5.479,5.769,5.769,0,0,0,5.843,5.844Z" transform="translate(-1935.384 -3292.287)"/><path class="p" d="M7430.462,4423.321a5.7,5.7,0,0,0,5.843-5.478,5.769,5.769,0,0,0-5.843-5.844H7176.642a5.77,5.77,0,0,0-5.844,5.844,5.7,5.7,0,0,0,5.844,5.478Zm-287.42,0a5.7,5.7,0,0,0,5.843-5.478,5.768,5.768,0,0,0-5.843-5.844h-67.2a6.006,6.006,0,0,0-5.843,5.844c0,2.921,2.921,5.478,5.843,5.478Z" transform="translate(-4954.444 -3583.656)"/><path class="p" d="M6595.748,3807.322c-2.557,0-4.748-2.557-4.748-5.844,0-2.922,2.191-5.478,4.748-5.478H6808.3c2.921,0,4.748,2.557,4.748,5.478,0,3.287-1.827,5.844-4.748,5.844Zm240.673,0c-2.556,0-4.748-2.557-4.748-5.844,0-2.922,2.192-5.478,4.748-5.478h56.243a5.306,5.306,0,0,1,5.112,5.478c0,3.287-2.19,5.844-5.112,5.844Z" transform="translate(-4650.379 -3192.626)"/><path class="p" d="M3090.844,4885.687a5.843,5.843,0,1,1,0-11.687h253.821a5.843,5.843,0,0,1,0,11.687Zm287.42,0a5.843,5.843,0,0,1,0-11.687h67.2a5.855,5.855,0,0,1,0,11.687Z" transform="translate(-2424.807 -3876.928)"/><path class="p" d="M3751.092,2722a5.843,5.843,0,1,1,0,11.686h-149.37a5.843,5.843,0,1,1,0-11.686Zm-168,0a5.843,5.843,0,1,1,0,11.686h-37.617a5.855,5.855,0,0,1,0-11.686Z" transform="translate(-2713.635 -2510.861)"/><path class="p" d="M5609.478,2722a5.855,5.855,0,0,0,0,11.686h149.736a5.843,5.843,0,1,0,0-11.686Zm168,0a5.843,5.843,0,1,0,0,11.686h37.618a5.843,5.843,0,0,0,0-11.686Z" transform="translate(-4023.843 -2510.861)"/><path class="q" d="M7848,4579.671h464.18l396.621-8.765L8278.583,4255Z" transform="translate(-5448.312 -3483.994)"/><path class="p" d="M8386.416,4582.272a6.208,6.208,0,1,1-12.416,0V4385.79a6.219,6.219,0,0,1,12.416,0Zm305.314-2.191a5.86,5.86,0,0,1-5.841,6.208,6.156,6.156,0,0,1-6.209-6.208V4272.208a6.4,6.4,0,0,1,6.209-6.208,6.083,6.083,0,0,1,5.841,6.208Zm-144.623,0a5.86,5.86,0,0,1-5.841,6.208,6.156,6.156,0,0,1-6.209-6.208V4272.208a6.4,6.4,0,0,1,6.209-6.208,6.083,6.083,0,0,1,5.841,6.208Z" transform="translate(-5782.209 -3490.977)"/><path class="p" d="M9627.053,4780.326a5.863,5.863,0,0,1-5.843,6.209,5.945,5.945,0,0,1-6.21-6.209V4583.843a5.863,5.863,0,0,1,6.21-5.843,5.769,5.769,0,0,1,5.843,5.843Z" transform="translate(-6569.984 -3689.03)"/><g transform="translate(2256.892 1068.287)"><path class="m" d="M7648.242,5120H8538.99l63.911,46.747H7550Z" transform="translate(-7516.035 -5101.374)"/><path class="p" d="M9144.228,5169.453a10.226,10.226,0,1,1,0-20.452h51.127a10.226,10.226,0,1,1,0,20.452Zm261.122,0a10.226,10.226,0,0,1,0-20.452h51.5a10.226,10.226,0,0,1,0,20.452Zm-131.475,0a10.226,10.226,0,1,1,0-20.452h51.5a10.233,10.233,0,0,1,0,20.452Z" transform="translate(-8521.543 -5119.784)"/><path class="p" d="M7586.285,5069h927.636l82.9,81.076H7457L7583.364,5069Zm919.6,20.452H7589.208l-63.181,40.539H8547.52Z" transform="translate(-7457.001 -5069)"/><path class="p" d="M8014.228,5169.453a10.226,10.226,0,1,1,0-20.452h51.493a10.233,10.233,0,0,1,0,20.452Zm261.125,0a10.233,10.233,0,0,1,0-20.452h51.492a10.226,10.226,0,0,1,0,20.452Zm-131.478,0a10.233,10.233,0,0,1,0-20.452h51.5a10.226,10.226,0,0,1,0,20.452Z" transform="translate(-7804.231 -5119.784)"/></g><path class="m" d="M8552.567,4545.947l33.235-37.981L7999.277,4073,7408,4507.966l33.234,42,558.042-410.5Z" transform="translate(-5169.003 -3368.462)"/><path class="p" d="M8525.791,4497.625l12.419-14.245-561.693-419.99-569.729,418.9,13.878,17.531,549.277-403.922a10.568,10.568,0,0,1,13.878.73Zm43.827-4.748-33.235,37.98c-4.017,4.383-10.226,5.479-15.337,1.826l-544.529-402.826L7425.78,4534.875c-5.114,4.383-12.053,3.652-16.8-2.191l-32.869-42q-1.1-1.645-2.191-3.288c-3.652-8.036-1.46-18.261,4.747-23.008l591.277-434.966c4.016-2.557,9.129-2.922,13.147,0l583.24,435.7a13.991,13.991,0,0,1,4.017,4.018C8575.461,4476.077,8574.731,4486.668,8569.618,4492.877Z" transform="translate(-5146.244 -3339.496)"/><path class="o" d="M6604,6090.416h126.727V5910H6604Z" transform="translate(-4658.634 -4534.57)"/><path class="n" d="M6604,6273.233h109.928l12.051-4.748L6604,6198Z" transform="translate(-4658.634 -4717.391)"/><path class="p" d="M6600.13,6078.049h117.6V5907.131h-117.6Zm122.345,9.13H6595.748A4.528,4.528,0,0,1,6591,6082.8V5902.383a4.53,4.53,0,0,1,4.748-4.383h126.727a4.53,4.53,0,0,1,4.749,4.383V6082.8A4.529,4.529,0,0,1,6722.475,6087.18Z" transform="translate(-4650.379 -4526.953)"/><path class="p" d="M6600.13,6079.953h117.6v-47.478h-117.6Zm122.345,9.13H6595.748A4.528,4.528,0,0,1,6591,6084.7v-56.974a4.781,4.781,0,0,1,4.748-4.381h126.727a4.781,4.781,0,0,1,4.749,4.381V6084.7A4.528,4.528,0,0,1,6722.475,6089.083Zm-4.748-126.729V5910.5h-117.6v51.859Zm9.5-56.606v60.989a4.835,4.835,0,0,1-4.749,4.748H6595.748a4.835,4.835,0,0,1-4.748-4.748v-60.989a4.834,4.834,0,0,1,4.748-4.748h126.727A4.834,4.834,0,0,1,6727.224,5905.748Z" transform="translate(-4650.379 -4528.858)"/><rect class="s" width="81" height="133" transform="translate(2790.521 867.037)"/><path class="p" d="M8910.749,4502H8990c2.557,0,4.748,1.825,4.748,4.018v133.667c0,2.189-2.191,4.017-4.748,4.017h-79.251c-2.56,0-4.75-1.828-4.75-4.017V4506.018C8906,4503.825,8908.189,4502,8910.749,4502Zm74.5,8.035H8915.5v125.632h69.755Z" transform="translate(-6119.917 -3640.787)"/><path class="t" d="M8919,4513h79.25v22.277H8919Z" transform="translate(-6128.169 -3647.77)"/><path class="p" d="M8910.749,4502H8990c2.557,0,4.748,1.825,4.748,4.018V4528.3c0,2.191-2.191,4.017-4.748,4.017h-79.251c-2.56,0-4.75-1.826-4.75-4.017v-22.278C8906,4503.825,8908.189,4502,8910.749,4502Zm74.5,8.035H8915.5v14.243h69.755Z" transform="translate(-6119.917 -3640.787)"/><path class="t" d="M8998.249,4817v22.643H8919V4817Z" transform="translate(-6128.169 -3840.745)"/><path class="p" d="M8994.748,4810.018v22.643c0,2.191-2.191,4.016-4.748,4.016h-79.251c-2.56,0-4.75-1.825-4.75-4.016v-22.643c0-2.19,2.19-4.018,4.75-4.018H8990C8992.557,4806,8994.748,4807.828,8994.748,4810.018Zm-9.5,18.625v-14.609H8915.5v14.609Z" transform="translate(-6119.917 -3833.763)"/><rect class="u" width="42" height="80" transform="translate(2810.521 892.037)"/><path class="n" d="M7727,6180.241h73.774V6040H7727Z" transform="translate(-5371.5 -4617.094)"/><path class="o" d="M7800.773,6084.191V6040H7727v1.826Z" transform="translate(-5371.5 -4617.094)"/><path class="p" d="M7725.479,6170.874h68.294V6037.939h-68.294Zm70.851,7.307h-73.771c-1.461,0-2.557-1.827-2.557-3.654V6034.286c0-1.825,1.1-3.286,2.557-3.286h73.771c1.461,0,2.556,1.461,2.556,3.286v140.241C7798.885,6176.354,7797.79,6178.181,7796.329,6178.181Z" transform="translate(-5367.058 -4611.38)"/><path class="p" d="M7725.479,6172.145h68.294v-36.885h-68.294Zm70.851,7.306h-73.771c-1.461,0-2.557-1.828-2.557-3.654v-44.19c0-1.826,1.1-3.652,2.557-3.652h73.771c1.461,0,2.556,1.826,2.556,3.652v44.19C7798.885,6177.623,7797.79,6179.451,7796.329,6179.451Zm-2.557-98.974V6040.3h-68.294v40.172Zm5.112-43.825v47.478c0,2.192-1.095,3.654-2.556,3.654h-73.771c-1.461,0-2.557-1.461-2.557-3.654v-47.478c0-1.825,1.1-3.651,2.557-3.651h73.771C7797.79,6033,7798.885,6034.827,7798.885,6036.651Z" transform="translate(-5367.058 -4612.65)"/><path class="o" d="M10110,6180.241h73.407V6040H10110Z" transform="translate(-6884.206 -4617.094)"/><path class="n" d="M10110,6322.434h63.911l6.938-3.652L10110,6264Z" transform="translate(-6884.206 -4759.286)"/><path class="p" d="M10107.48,6170.874h68.293V6037.939h-68.293Zm70.85,7.307h-73.407c-1.461,0-2.923-1.827-2.923-3.654V6034.286a3.22,3.22,0,0,1,2.923-3.286h73.407a3.218,3.218,0,0,1,2.921,3.286v140.241C10181.251,6176.354,10179.792,6178.181,10178.33,6178.181Z" transform="translate(-6879.126 -4611.38)"/><path class="p" d="M10107.48,6172.145h68.293v-36.885h-68.293Zm70.85,7.306h-73.407c-1.461,0-2.923-1.828-2.923-3.654v-44.19c0-1.826,1.462-3.652,2.923-3.652h73.407c1.462,0,2.921,1.826,2.921,3.652v44.19C10181.251,6177.623,10179.792,6179.451,10178.33,6179.451Zm-2.557-98.974V6040.3h-68.293v40.172Zm5.478-43.825v47.478c0,2.192-1.459,3.654-2.921,3.654h-73.407c-1.461,0-2.923-1.461-2.923-3.654v-47.478c0-1.825,1.462-3.651,2.923-3.651h73.407C10179.792,6033,10181.251,6034.827,10181.251,6036.651Z" transform="translate(-6879.126 -4612.65)"/><rect class="ac" width="90" height="65" transform="translate(2132.521 1295.037)"/><path class="ad" d="M7118,5688h88.381v51.13Z" transform="translate(-4984.914 -4393.648)"/><path class="p" d="M7109.747,5675h93.129v74.868H7105V5675Zm84,9.129H7114.5v56.609h79.25Z" transform="translate(-4976.662 -4385.394)"/><path class="p" d="M7149.555,5679.749a4.529,4.529,0,0,1,4.382-4.749,4.835,4.835,0,0,1,4.748,4.749v28.119h39.443a4.53,4.53,0,0,1,4.748,4.383,4.834,4.834,0,0,1-4.748,4.748h-39.443v28.122a4.834,4.834,0,0,1-4.748,4.748,4.529,4.529,0,0,1-4.382-4.748V5717h-39.808a4.834,4.834,0,0,1-4.747-4.748,4.529,4.529,0,0,1,4.747-4.383h39.808Z" transform="translate(-4976.662 -4385.394)"/><g transform="translate(2668.849 1227.519)"><rect class="v" width="285" height="198" transform="translate(9.671 9.518)"/><path class="w" d="M8805.943,5744.988H8608V5593.06L8619.321,5558Z" transform="translate(-8599.602 -5538.643)"/><path class="p" d="M8594.859,5505H8888.49v216.2H8585V5505Zm274.275,19.356H8604.724v177.127h264.411Z" transform="translate(-8585 -5505)"/><path class="x" d="M9001,5532h142.068v196.484H9001Z" transform="translate(-8849.072 -5522.14)"/><path class="y" d="M9001,5532h84l55.88,55.877V5697.44L9001,5557.566Zm0,73.408V5583.13l139.878,140.24v2.557H9121.52Z" transform="translate(-8849.072 -5522.14)"/><path class="p" d="M8983.861,5505h151.562v216.2H8974V5505Zm132.205,19.356H8993.357v177.127h122.709Z" transform="translate(-8831.934 -5505)"/></g></g><line class="ae" x2="1922" transform="translate(1519.704 2260.656)"/><g transform="translate(26.963 2014.134)"><rect class="u" width="422" height="189" transform="translate(70.74 57.521)"/><path class="m" d="M1815.984,6312.64H1461V6166.191L1485.1,6122Z" transform="translate(-1388.688 -6064.663)"/><path class="p" d="M1451.479,6107h426.565v201.6H1446V6107Zm415.609,10.957H1456.957v179.682h410.131Z" transform="translate(-1379.167 -6055.14)"/><rect class="af" width="72" height="230" transform="translate(19.74 16.522)"/><path class="p" d="M1304.478,5997h77.79v241.769H1299V5997Zm66.833,10.955h-61.355v219.857h61.355Z" transform="translate(-1285.853 -5985.313)"/><path class="ag" d="M1314,6012h72.312v109.929H1314Z" transform="translate(-1295.374 -5994.836)"/><path class="p" d="M1304.478,5997h77.79v120.884H1299V5997Zm66.833,10.955h-61.355v98.972h61.355Z" transform="translate(-1285.853 -5985.313)"/><path class="i" d="M1270.3,5965h95.32a7.326,7.326,0,0,1,7.3,7.306V5982.9a7.325,7.325,0,0,1-7.3,7.3H1270.3a7.325,7.325,0,0,1-7.3-7.3V5972.3A7.326,7.326,0,0,1,1270.3,5965Zm0,31.408h95.32a7.327,7.327,0,0,1,7.3,7.306V6014.3a7.325,7.325,0,0,1-7.3,7.3H1270.3a7.325,7.325,0,0,1-7.3-7.3v-10.591A7.327,7.327,0,0,1,1270.3,5996.407Z" transform="translate(-1263 -5964.999)"/></g><rect class="u" width="422" height="189" transform="translate(525.704 2071.656)"/><path class="m" d="M2985.619,6312.64H2631V6166.191L2655.1,6122Z" transform="translate(-2104.429 -4050.527)"/><path class="p" d="M2621.478,6107h426.565v201.6H2616V6107Zm415.609,10.957H2626.956v179.682h410.131Z" transform="translate(-2094.908 -4041.006)"/><g transform="translate(460.103 2014.134)"><rect class="af" width="73" height="230" transform="translate(17.601 16.522)"/><path class="p" d="M2490.478,5997h77.79v241.769H2485V5997Zm66.833,10.955h-61.355v219.857h61.355Z" transform="translate(-2471.853 -5985.313)"/><path class="ag" d="M2500,6012h72.312v109.929H2500Z" transform="translate(-2481.374 -5994.836)"/><path class="p" d="M2490.478,5997h77.79v120.884H2485V5997Zm66.833,10.955h-61.355v98.972h61.355Z" transform="translate(-2471.853 -5985.313)"/><path class="i" d="M2456.3,5965h95.32a7.326,7.326,0,0,1,7.3,7.306V5982.9a7.325,7.325,0,0,1-7.3,7.3H2456.3a7.325,7.325,0,0,1-7.3-7.3V5972.3A7.326,7.326,0,0,1,2456.3,5965Zm0,31.408h95.32a7.326,7.326,0,0,1,7.3,7.306V6014.3a7.325,7.325,0,0,1-7.3,7.3H2456.3a7.325,7.325,0,0,1-7.3-7.3v-10.591A7.326,7.326,0,0,1,2456.3,5996.407Z" transform="translate(-2449 -5964.999)"/></g><g transform="translate(892.877 2014.134)"><rect class="af" width="71" height="230" transform="translate(19.827 16.522)"/><path class="p" d="M3675.479,5997h77.79v241.769H3670V5997Zm66.833,10.955h-61.355v219.857h61.355Z" transform="translate(-3656.853 -5985.313)"/><path class="ag" d="M3685,6012h72.312v109.929H3685Z" transform="translate(-3666.374 -5994.836)"/><path class="p" d="M3675.479,5997h77.79v120.884H3670V5997Zm66.833,10.955h-61.355v98.972h61.355Z" transform="translate(-3656.853 -5985.313)"/><path class="i" d="M3641.3,5965h95.32a7.326,7.326,0,0,1,7.3,7.306V5982.9a7.325,7.325,0,0,1-7.3,7.3H3641.3a7.325,7.325,0,0,1-7.3-7.3V5972.3A7.326,7.326,0,0,1,3641.3,5965Zm0,31.408h95.32a7.327,7.327,0,0,1,7.3,7.306V6014.3a7.325,7.325,0,0,1-7.3,7.3H3641.3a7.325,7.325,0,0,1-7.3-7.3v-10.591A7.327,7.327,0,0,1,3641.3,5996.407Z" transform="translate(-3634 -5964.999)"/></g><g transform="translate(1589.698 2014.134)"><rect class="u" width="422" height="189" transform="translate(72.006 57.521)"/><path class="m" d="M6094.985,6312.64H5740V6166.191L5764.1,6122Z" transform="translate(-5667.689 -6064.663)"/><path class="p" d="M5730.479,6107h426.565v201.6H5725V6107Zm415.609,10.957H5735.956v179.682h410.132Z" transform="translate(-5658.167 -6055.14)"/><rect class="af" width="69" height="230" transform="translate(21.006 16.522)"/><path class="p" d="M5583.479,5997h77.789v241.769H5578V5997Zm66.833,10.955h-61.355v219.857h61.355Z" transform="translate(-5564.853 -5985.313)"/><path class="ag" d="M5593,6012h72.312v109.929H5593Z" transform="translate(-5574.374 -5994.836)"/><path class="p" d="M5583.479,5997h77.789v120.884H5578V5997Zm66.833,10.955h-61.355v98.972h61.355Z" transform="translate(-5564.853 -5985.313)"/><path class="i" d="M5549.3,5965h95.32a7.326,7.326,0,0,1,7.3,7.306V5982.9a7.324,7.324,0,0,1-7.3,7.3H5549.3a7.326,7.326,0,0,1-7.3-7.3V5972.3A7.327,7.327,0,0,1,5549.3,5965Zm0,31.408h95.32a7.326,7.326,0,0,1,7.3,7.306V6014.3a7.324,7.324,0,0,1-7.3,7.3H5549.3a7.326,7.326,0,0,1-7.3-7.3v-10.591A7.328,7.328,0,0,1,5549.3,5996.407Z" transform="translate(-5542 -5964.999)"/></g><rect class="u" width="422" height="189" transform="translate(2089.704 2071.656)"/><path class="m" d="M7264.62,6312.64H6910V6166.191L6934.1,6122Z" transform="translate(-4820.695 -4050.527)"/><path class="p" d="M6900.478,6107h426.566v201.6H6895V6107Zm415.611,10.957H6905.956v179.682h410.132Z" transform="translate(-4811.174 -4041.006)"/><g transform="translate(2022.837 2014.134)"><rect class="af" width="73" height="230" transform="translate(18.866 16.522)"/><path class="p" d="M6769.478,5997h77.791v241.769H6764V5997Zm66.833,10.955h-61.354v219.857h61.354Z" transform="translate(-6750.853 -5985.313)"/><path class="ag" d="M6779,6012h72.312v109.929H6779Z" transform="translate(-6760.373 -5994.836)"/><path class="p" d="M6769.478,5997h77.791v120.884H6764V5997Zm66.833,10.955h-61.354v98.972h61.354Z" transform="translate(-6750.853 -5985.313)"/><path class="i" d="M6735.3,5965h95.32a7.326,7.326,0,0,1,7.3,7.306V5982.9a7.325,7.325,0,0,1-7.3,7.3H6735.3a7.324,7.324,0,0,1-7.3-7.3V5972.3A7.326,7.326,0,0,1,6735.3,5965Zm0,31.408h95.32a7.326,7.326,0,0,1,7.3,7.306V6014.3a7.325,7.325,0,0,1-7.3,7.3H6735.3a7.324,7.324,0,0,1-7.3-7.3v-10.591A7.326,7.326,0,0,1,6735.3,5996.407Z" transform="translate(-6728 -5964.999)"/></g><g transform="translate(2449.403 2014.134)"><rect class="u" width="420" height="189" transform="translate(73.3 57.521)"/><path class="m" d="M8447.984,6312.64H8093V6166.191L8117.469,6122Z" transform="translate(-8021.054 -6064.663)"/><path class="p" d="M8083.478,6107h426.566v201.6H8078V6107Zm415.61,10.957H8088.957v179.682h410.131Z" transform="translate(-8011.532 -6055.14)"/><rect class="af" width="73" height="230" transform="translate(17.3 16.522)"/><path class="p" d="M7937.478,5997h77.791v241.769H7932V5997Zm66.834,10.955h-61.355v219.857h61.355Z" transform="translate(-7918.853 -5985.313)"/><path class="ag" d="M7947,6012h72.312v109.929H7947Z" transform="translate(-7928.373 -5994.836)"/><path class="p" d="M7937.478,5997h77.791v120.884H7932V5997Zm66.834,10.955h-61.355v98.972h61.355Z" transform="translate(-7918.853 -5985.313)"/><path class="i" d="M7903.3,5965h95.319a7.023,7.023,0,0,1,6.939,7.306V5982.9a7.022,7.022,0,0,1-6.939,7.3H7903.3a7.325,7.325,0,0,1-7.3-7.3V5972.3A7.326,7.326,0,0,1,7903.3,5965Zm0,31.408h95.319a7.024,7.024,0,0,1,6.939,7.306V6014.3a7.022,7.022,0,0,1-6.939,7.3H7903.3a7.325,7.325,0,0,1-7.3-7.3v-10.591A7.327,7.327,0,0,1,7903.3,5996.407Z" transform="translate(-7896 -5964.999)"/></g><rect class="u" width="422" height="189" transform="translate(2947.704 2071.656)"/><path class="m" d="M9617.984,6312.64H9263V6166.191L9287.471,6122Z" transform="translate(-6314.354 -4050.527)"/><path class="p" d="M9253.478,6107h426.567v201.6H9248V6107Zm415.61,10.957h-410.13v179.682h410.13Z" transform="translate(-6304.833 -4041.006)"/><g transform="translate(2882.177 2014.134)"><rect class="af" width="71" height="230" transform="translate(19.527 16.522)"/><path class="p" d="M9122.479,5997h77.79v241.769H9117V5997Zm66.835,10.955h-61.356v219.857h61.356Z" transform="translate(-9103.854 -5985.313)"/><path class="ag" d="M9132,6012h72.312v109.929H9132Z" transform="translate(-9113.374 -5994.836)"/><path class="p" d="M9122.479,5997h77.79v120.884H9117V5997Zm66.835,10.955h-61.356v98.972h61.356Z" transform="translate(-9103.854 -5985.313)"/><path class="i" d="M9088.3,5965h95.319a7.323,7.323,0,0,1,7.3,7.306V5982.9a7.322,7.322,0,0,1-7.3,7.3H9088.3a7.325,7.325,0,0,1-7.3-7.3V5972.3A7.326,7.326,0,0,1,9088.3,5965Zm0,31.408h95.319a7.324,7.324,0,0,1,7.3,7.306V6014.3a7.322,7.322,0,0,1-7.3,7.3H9088.3a7.325,7.325,0,0,1-7.3-7.3v-10.591A7.326,7.326,0,0,1,9088.3,5996.407Z" transform="translate(-9081 -5964.999)"/></g><g transform="translate(3314.951 2014.134)"><rect class="af" width="74" height="230" transform="translate(17.753 16.522)"/><path class="p" d="M10307.478,5997h77.79v241.769H10302V5997Zm66.833,10.955h-61.354v219.857h61.354Z" transform="translate(-10288.851 -5985.313)"/><path class="ag" d="M10317,6012h72.312v109.929H10317Z" transform="translate(-10298.374 -5994.836)"/><path class="p" d="M10307.478,5997h77.79v120.884H10302V5997Zm66.833,10.955h-61.354v98.972h61.354Z" transform="translate(-10288.851 -5985.313)"/><path class="i" d="M10273.3,5965h95.321a7.325,7.325,0,0,1,7.3,7.306V5982.9a7.324,7.324,0,0,1-7.3,7.3H10273.3a7.323,7.323,0,0,1-7.3-7.3V5972.3A7.324,7.324,0,0,1,10273.3,5965Zm0,31.408h95.321a7.326,7.326,0,0,1,7.3,7.306V6014.3a7.324,7.324,0,0,1-7.3,7.3H10273.3a7.323,7.323,0,0,1-7.3-7.3v-10.591A7.325,7.325,0,0,1,10273.3,5996.407Z" transform="translate(-10266.001 -5964.999)"/></g><line class="ae" x2="1068" transform="translate(-0.296 2260.656)"/><path class="p" d="M2083.178,6507a5.478,5.478,0,0,1,0,10.956h-173.84a5.478,5.478,0,1,1,0-10.956Zm-192.831,0a5.478,5.478,0,0,1,0,10.956h-32.869a5.478,5.478,0,1,1,0-10.956Z" transform="translate(-1609.928 -4294.922)"/><path class="p" d="M3278.178,6507a5.478,5.478,0,0,1,0,10.956h-173.84a5.478,5.478,0,0,1,0-10.956Zm-192.831,0a5.478,5.478,0,1,1,0,10.956h-32.869a5.478,5.478,0,1,1,0-10.956Z" transform="translate(-2368.502 -4294.922)"/><path class="p" d="M6374.542,6507a5.478,5.478,0,1,1,0,10.956H6200.337a5.478,5.478,0,1,1,0-10.956Zm-193.2,0a5.478,5.478,0,1,1,0,10.956h-32.868a5.478,5.478,0,1,1,0-10.956Z" transform="translate(-4333.81 -4294.922)"/><path class="p" d="M7539.543,6507a5.478,5.478,0,0,1,0,10.956H7365.337a5.478,5.478,0,0,1,0-10.956Zm-193.2,0a5.478,5.478,0,1,1,0,10.956h-32.869a5.478,5.478,0,0,1,0-10.956Z" transform="translate(-5073.341 -4294.922)"/><path class="p" d="M8725.178,6507a5.478,5.478,0,0,1,0,10.956h-173.84a5.478,5.478,0,0,1,0-10.956Zm-192.832,0a5.478,5.478,0,1,1,0,10.956h-32.867a5.478,5.478,0,1,1,0-10.956Z" transform="translate(-5826.202 -4294.922)"/><path class="p" d="M9910.178,6507a5.478,5.478,0,1,1,0,10.956h-173.84a5.478,5.478,0,0,1,0-10.956Zm-192.832,0a5.478,5.478,0,1,1,0,10.956H9684.48a5.478,5.478,0,1,1,0-10.956Z" transform="translate(-6578.427 -4294.922)"/><path class="ah" d="M1957.253,7005.949H2120.5a44.257,44.257,0,0,0,32.5-42.365h0a43.8,43.8,0,0,0-43.46-43.459H1770.631a43.33,43.33,0,0,1-43.46-43.46h0a43.564,43.564,0,0,1,43.46-43.459h154.484a43.8,43.8,0,0,0,43.46-43.459h0a43.563,43.563,0,0,0-43.46-43.46H1604.46a43.564,43.564,0,0,1-43.46-43.459v-.366A43.563,43.563,0,0,1,1604.46,6659h3133.5a43.8,43.8,0,0,1,43.46,43.459v.366a43.8,43.8,0,0,1-43.46,43.459H4417.31a43.33,43.33,0,0,0-43.46,43.46h0a43.563,43.563,0,0,0,43.46,43.459h154.483a43.8,43.8,0,0,1,43.459,43.459h0a43.563,43.563,0,0,1-43.459,43.46H4232.878a43.8,43.8,0,0,0-43.46,43.459h0a44.259,44.259,0,0,0,32.5,42.365h162.884a43.331,43.331,0,0,1,43.46,43.459h0a43.564,43.564,0,0,1-43.46,43.46H1957.253a43.8,43.8,0,0,1-43.46-43.46h0A43.564,43.564,0,0,1,1957.253,7005.949Z" transform="translate(-1425.204 -4391.41)"/><path class="ai" d="M2838.161,7005.949H3045.6c14.244-5.113,24.469-22.278,24.469-42.365h0c0-23.738-14.608-43.459-32.869-43.459H2665.416c-17.9,0-32.869-19.355-32.869-43.46h0c0-23.738,14.973-43.459,32.869-43.459h233c17.9,0,32.869-19.721,32.869-43.459h0c0-24.1-14.974-43.46-32.869-43.46H2643.869c-17.9,0-32.869-19.721-32.869-43.459v-.366c0-23.739,14.973-43.459,32.869-43.459H5042.935c17.9,0,32.5,19.72,32.5,43.459v.366c0,23.739-14.608,43.459-32.5,43.459H4777.062c-18.261,0-32.87,19.355-32.87,43.46h0c0,23.739,14.609,43.459,32.87,43.459h246.882c17.895,0,32.5,19.721,32.5,43.459h0c0,24.105-14.608,43.46-32.5,43.46H4637.916c-17.9,0-32.868,19.721-32.868,43.459h0c0,20.087,10.592,37.252,24.469,42.365h200.5c17.9,0,32.5,19.356,32.5,43.459h0c0,23.739-14.608,43.46-32.5,43.46H2838.161c-17.9,0-32.869-19.721-32.869-43.46h0C2805.292,7025.305,2820.265,7005.949,2838.161,7005.949Z" transform="translate(-2091.733 -4391.41)"/><path class="aj" d="M8678.572,2190.224h-.732a54.876,54.876,0,0,0-55.51,55.513,32.733,32.733,0,0,0,.729,8.4H8553.3a7.3,7.3,0,0,1,0-14.608h54.78a69.619,69.619,0,0,1,68.3-63.912,89.67,89.67,0,0,1,30.677-26.66A90.968,90.968,0,0,1,8750.151,2138a90.476,90.476,0,0,1,76.693,41.634,76.453,76.453,0,0,1,49.671,22.278,79.11,79.11,0,0,1,20.45,37.616h109.563a7.3,7.3,0,1,1,0,14.608H8884.186a62.334,62.334,0,0,0-17.9-41.633,61.336,61.336,0,0,0-43.463-18.261l-4.38-.365-1.825-3.288a75.249,75.249,0,0,0-66.471-37.981,74.826,74.826,0,0,0-36.155,9.13,73.727,73.727,0,0,0-27.756,25.2l-2.192,3.286Z" transform="translate(-5859.21 -1521.525)"/><path class="aj" d="M2404.9,2010.591h.73a54.877,54.877,0,0,1,55.512,55.511,59.088,59.088,0,0,1-.366,8.035h69.39a7.3,7.3,0,0,0,0-14.609h-54.417a71.453,71.453,0,0,0-20.452-43.095,69.446,69.446,0,0,0-48.208-20.451,87.465,87.465,0,0,0-30.677-27.026,90.681,90.681,0,0,0-88.381,1.1A91.287,91.287,0,0,0,2256.623,2000a75.3,75.3,0,0,0-69.755,59.529H2077.3a7.3,7.3,0,0,0,0,14.609H2199.65a60.461,60.461,0,0,1,17.9-41.634,62.924,62.924,0,0,1,43.1-18.26h4.383l2.191-3.652a75.962,75.962,0,0,1,28.121-27.756,77.577,77.577,0,0,1,37.982-10.226,74.823,74.823,0,0,1,36.156,9.13,77.811,77.811,0,0,1,27.756,25.565l2.556,3.287Z" transform="translate(-1748.312 -1407.263)"/><path class="aj" d="M6931.936,749.225h-1.1a56.12,56.12,0,0,0-55.511,55.512,65.109,65.109,0,0,0,.731,8.4H6806.3a7.3,7.3,0,0,1,0-14.608h54.782a70.015,70.015,0,0,1,20.086-43.46,71.79,71.79,0,0,1,48.208-20.452,93.774,93.774,0,0,1,30.677-26.66,91.386,91.386,0,0,1,88.748,1.1,92.568,92.568,0,0,1,31.042,29.582c19.356,1.461,36.887,9.5,49.669,22.643a76.289,76.289,0,0,1,20.452,37.251H7259.53a7.3,7.3,0,1,1,0,14.608H7137.185a62.33,62.33,0,0,0-17.9-41.634,61.328,61.328,0,0,0-43.46-18.26h-4.018l-2.192-3.652a75.918,75.918,0,0,0-28.12-27.756,74.847,74.847,0,0,0-37.982-10.226,76.271,76.271,0,0,0-36.522,9.13,73.725,73.725,0,0,0-27.755,25.2l-2.19,3.652Z" transform="translate(-4750.234 -606.793)"/><ellipse class="ak" cx="19" cy="20" rx="19" ry="20" transform="translate(2305.704 830.656)"/><ellipse class="ak" cx="19.5" cy="20" rx="19.5" ry="20" transform="translate(1655.703 480.656)"/><ellipse class="ak" cx="19.5" cy="20" rx="19.5" ry="20" transform="translate(1131.704 569.656)"/><circle class="ak" cx="20.5" cy="20.5" r="20.5" transform="translate(1898.703 696.656)"/></g></g></g></g></g></g></svg>