<svg xmlns="http://www.w3.org/2000/svg" xmlns:xlink="http://www.w3.org/1999/xlink" width="1920" height="1080" viewBox="0 0 1920 1080"><defs><style>.a,.al{fill:#fff;}.a{stroke:#707070;}.b{clip-path:url(#c);}.c{clip-path:url(#a);}.ae,.d{fill:none;}.e{fill:#ffdb0d;}.ab,.ad,.ag,.ah,.ai,.e,.f,.g,.h,.i,.j,.k,.m,.n,.o,.q,.r,.t,.w,.x,.y{fill-rule:evenodd;}.f{fill:#fabe1e;}.g,.u{fill:#97d1e3;}.h{fill:#88b7d5;}.i,.p{fill:#28324e;}.j,.m,.z{fill:#bae1ec;}.ae,.j,.k,.l{stroke:#28324e;stroke-linecap:round;}.j{stroke-width:30px;}.af,.k,.q{fill:#414f6f;}.k{stroke-linejoin:round;}.ae,.k{stroke-width:50px;}.aa,.l{fill:#506a8d;}.l{stroke-width:20px;}.n{fill:#a38f84;}.o{fill:#75706b;}.r{fill:#54617d;}.s,.t{fill:#54acd2;}.ad,.v{fill:#fba026;}.ac,.w{fill:#f0882d;}.x{fill:#f7da64;}.y{fill:#faedb4;}.ab{fill:#3d5980;}.ag{fill:#5d7d9e;}.ah{fill:#d8eb4c;}.ai{fill:#bccb4c;}.aj{fill:#b8312f;}.ak{fill:#fefefe;}</style><clipPath id="a"><rect class="a" width="1920" height="1080"/></clipPath><clipPath id="c"><rect width="1920" height="1080"/></clipPath></defs><g id="b" class="b"><rect class="al" width="1920" height="1080"/><g class="c"><g transform="translate(2652.23 392.51)"><g transform="translate(-4478.23 -4809.51)"><g transform="translate(0 0)"><rect class="d" width="6677" height="6944" transform="translate(0 0)"/><g transform="translate(670 415.039)"><path class="e" d="M4230.921,450C5408.77,450,6370.876,1963.509,6432.84,3867.154H2029C2090.4,1963.509,3052.507,450,4230.921,450Z" transform="translate(-1556.078 -450)"/><path class="f" d="M5872.361,1740.89c325.585,593.967,532.877,1365.939,560.479,2216.309H2029c29.292-914.931,267-1738.553,635.96-2348.2,313.756,196.452,566.675,595.812,697.359,1100.314,205.04-298.827,475.421-480.522,771.152-480.522,295.166,0,564.984,180.772,769.46,477.756C5095.577,2147.628,5456.086,1764.87,5872.361,1740.89Z" transform="translate(-1556.078 -709.999)"/><g transform="translate(49.49 1174.443)"><path class="g" d="M7034,4971H8905.83V6229.029H7034Z" transform="translate(-3791.275 -2363.514)"/><path class="h" d="M8905.83,5391v238.877H7034V5391Zm0,477.755v238.877H7034V5868.756Z" transform="translate(-3791.275 -2396.144)"/><path class="i" d="M7014.785,4927H8911.964v296.063h-25.35v-255.48H7014.785V6225.611H8852.818v40.582H6990V4927Z" transform="translate(-3772.061 -2360.095)"/><path class="j" d="M7352.852,5241.707h1620.6v145.725H8859.1v948.134H8694.057V5387.432H7518.46v948.134H7352.852V5387.432H6927V5167h425.852Z" transform="translate(-3744.549 -2378.742)"/><path class="k" d="M5951.585,4147.686,5715,3491H7869.6l526.681,1493.217H6462.493Z" transform="translate(-3215.262 -2248.531)"/><rect class="l" width="222" height="671" transform="translate(3242.51 3193.518)"/><path class="m" d="M2699,6321.194H5140.884V4982L2743.5,5111.125Z" transform="translate(-1898.159 -2364.369)"/><path class="g" d="M5171.017,5255V4982L2773.633,5111.125,2768,5255Z" transform="translate(-1928.292 -2364.369)"/><path class="g" d="M5163.592,5637.571V5490H2751v147.57Zm0,295.137V5785.141H2751v147.567Z" transform="translate(-1920.868 -2403.835)"/><path class="n" d="M2918,6365.621h195.463V5910H2918Z" transform="translate(-1993.798 -2436.466)"/><path class="o" d="M3113.463,6095.384V5910H2918Z" transform="translate(-1993.798 -2436.466)"/><path class="p" d="M2919.083,6352.7h181.381v-431.64H2919.083Zm188.7,23.057H2912.323c-3.943,0-7.323-4.611-7.323-11.067V5909.068c0-6.457,3.38-11.067,7.323-11.067h195.463c3.943,0,7.323,4.61,7.323,11.067v455.621C3115.109,6371.145,3111.729,6375.756,3107.786,6375.756Z" transform="translate(-1988.121 -2435.535)"/><path class="p" d="M2919.083,6352.932h181.381v-119.9H2919.083Zm188.7,23.059H2912.323c-3.943,0-7.323-4.611-7.323-11.069V6221.041c0-5.533,3.38-11.068,7.323-11.068h195.463c3.943,0,7.323,5.536,7.323,11.068v143.881C3115.109,6371.38,3111.729,6375.991,3107.786,6375.991Zm-7.323-320.042V5924.981H2919.083v130.968Zm14.646-142.957v154.024c0,6.458-3.38,11.989-7.323,11.989H2912.323c-3.943,0-7.323-5.532-7.323-11.989V5912.992c0-6.458,3.38-11.991,7.323-11.991h195.463C3111.729,5901,3115.109,5906.535,3115.109,5912.992Z" transform="translate(-1988.121 -2435.766)"/><path class="i" d="M2736.741,6262.166H5123.985V5041.951L2777.3,5079.766ZM2699,6321.194H5160.036V4982l-2416.536,41.5Z" transform="translate(-1898.159 -2364.369)"/><path class="m" d="M1390.956,4919.152,1289,5207.833l20.279,34.125,929.436-6.455,38.867-110.678H4409.091l39.994,111.6,908.595.922,24.223-50.728-71.539-201.985H4579.207l-109.28-103.3-5.633-32.278-28.727.92L4309.951,4731H2024.1Z" transform="translate(-1282.405 -2344.867)"/><path class="g" d="M1315.475,5167,1289,5241.707l20.279,34.126,929.436-6.458L2274.766,5167Zm3097,0,36.614,103.3,908.595.925L5381.9,5220.5,5362.75,5167Z" transform="translate(-1282.405 -2378.742)"/><path class="i" d="M1403.869,4961.577l-82.8,234.266,895.639-6.456,30.982-88.542c5.633-14.755,15.209-23.056,24.785-23.056H4403.979c11.829,0,21.969,11.068,25.912,27.669l30.418,84.851,884.937.924-56.329-159.56H4574.093c-6.2,0-11.829-3.69-16.9-8.3l-106.463-101.454c-6.759-5.532-11.266-15.68-12.956-25.824h-6.759c-5.633,0-10.7-2.769-15.21-7.379l-118.292-111.6H2020.677Zm-18.025-42.425L1288.957,5194c-19.715,55.336-16.9,47.957,27.6,47.957L2233.6,5235.5l38.868-110.678H4403.979l39.994,111.6,906.9.922c43.373,0,43.373,0,25.912-49.805l-71.539-202.907H4574.093l-109.279-103.3-5.633-32.278-28.728.92L4304.838,4731H2018.987Z" transform="translate(-1277.292 -2344.867)"/><path class="q" d="M4946.881,4261l-1821.7,244.414L2950,4984.091H5211.63Z" transform="translate(-2007.773 -2308.352)"/><path class="r" d="M3044.07,4758.687,2950,5015.09h549.776L3124.058,4660Z" transform="translate(-2007.773 -2339.352)"/><path class="i" d="M4927.729,4321.874l-1781.7,238.879-133.5,365.232H5149.1ZM4946.881,4261l-1821.7,244.414L2950,4984.091H5211.63Z" transform="translate(-2007.773 -2308.352)"/><path class="q" d="M2676.407,3788.982l-61.4-391.98H1915.959L1369,4948.326h898.455Zm1395.282,0L4003.531,3029h698.486L5379.1,4948.326H4480.642Z" transform="translate(-1317.342 -2212.637)"/><path class="r" d="M7408.193,5010.946,7300.6,4908.57v102.376ZM6276.532,3941.066,6165,3835l1.126,16.6,77.736,219.509Zm87.312,470.377,211.236,599.5h422.471Z" transform="translate(-3411.78 -2275.256)"/><path class="r" d="M1614.033,4356,1369,5051.422h729.467l167.862-78.4Z" transform="translate(-1317.342 -2315.734)"/><path class="i" d="M2638.1,3780.682l-50.7-325.576H1936.238L1430.4,4889.3h816.778Zm38.3,8.3-61.4-391.98H1915.959L1369,4948.326h898.455Zm1395.282,0L4003.531,3029h698.486L5379.1,4948.326H4480.642Zm-27.038-701.877,61.4,682.508L4500.92,4889.3H5317.7L4681.739,3087.106Z" transform="translate(-1317.342 -2212.637)"/><path class="q" d="M5096.773,3393,3221,3324.75,3364.64,2562H4937.923Z" transform="translate(-2126.119 -2176.355)"/><path class="r" d="M3405.761,3338.975,3221,3332.519,3347.178,2662l319.951,301.6Z" transform="translate(-2126.119 -2184.125)"/><path class="p" d="M5081.545,3419.106l-1874.082-68.251c-10.14,0-17.463-13.834-17.463-29.513,0-2.768.563-5.535.563-8.3l143.64-762.75c2.253-11.989,9.013-20.291,16.9-20.291H4924.386c8.448,0,15.208,9.223,16.9,22.136l158.848,830.078c2.816,14.757-2.253,31.358-11.266,35.971C5086.051,3419.106,5083.8,3420.028,5081.545,3419.106Zm-1849.86-125.434,1827.329,66.406L4911.43,2588.105H3364.059Z" transform="translate(-2112.582 -2173.869)"/><path class="m" d="M3290,3632.133v938.91h866.911V3714.219l-85.058-173.394L3310.842,3515Z" transform="translate(-2156.252 -2250.395)"/><path class="g" d="M3290,3642v150.337h866.911v-68.251L4116.354,3642Zm0,301.6v150.337h864.1V3943.6Zm0,301.595v151.259h866.911V4245.19Z" transform="translate(-2156.252 -2260.262)"/><path class="p" d="M3294.488,3633.337v905.707h830.86V3721.878l-75.481-154.948-739.606-24.9ZM3259,4568.557V3629.648a41.1,41.1,0,0,1,.564-8.3l20.278-117.134c2.253-11.99,9.576-21.214,17.462-21.214l760.448,25.825c5.633,0,10.7,3.69,14.082,11.068l84.495,171.549a43.264,43.264,0,0,1,5.069,20.292v856.823c0,15.68-8.45,29.514-18.026,29.514h-866.91C3266.886,4598.071,3259,4584.236,3259,4568.557Z" transform="translate(-2142.714 -2247.909)"/><path class="m" d="M4829,3725.617v938.912H5836.736V3613.1L4942.223,3543Z" transform="translate(-2828.342 -2252.57)"/><path class="g" d="M5839.792,4521.571V4371.235H4838.253v150.336Zm0-301.6V4068.718H4836v151.258Zm0-301.6V3767.123H4838.253V3918.38Zm0-301.594V3613.1L4945.279,3543l-45.626,73.786Z" transform="translate(-2831.398 -2252.57)"/><path class="p" d="M4833.051,3735.122v898.33h971.684V3638.279l-869.164-68.25ZM4797,4662.042v-938.91a40.085,40.085,0,0,1,5.632-20.292l113.223-182.618c3.38-5.534,8.45-9.224,13.519-9.224l893.386,71.019c9.576,0,17.462,12.912,17.462,28.591V4662.042c0,16.6-7.886,29.514-17.462,29.514H4815.025C4805.45,4691.556,4797,4678.643,4797,4662.042Z" transform="translate(-2814.367 -2250.084)"/><path class="m" d="M3408.932,3446H4976.581l112.1,134.658H3236Z" transform="translate(-2132.67 -2245.033)"/><path class="q" d="M5495.882,3021,5181,3400.069h602.163Z" transform="translate(-2982.061 -2212.016)"/><path class="q" d="M3547,3339.144h816.776l346.428-458.388L4304.632,2403Z" transform="translate(-2268.485 -2164.002)"/><path class="p" d="M5061.026,3538.106c-10.139,0-18.025-12.914-18.025-29.515,0-15.678,7.886-28.592,18.025-28.592h90.127c10.14,0,18.026,12.914,18.026,28.592,0,16.6-7.886,29.515-18.026,29.515Zm459.648,0c-9.576,0-17.461-12.914-17.461-29.515,0-15.678,7.885-28.592,17.461-28.592h90.69c9.576,0,17.462,12.914,17.462,28.592,0,16.6-7.886,29.515-17.462,29.515Zm-231.513,0c-9.576,0-17.463-12.914-17.463-29.515,0-15.678,7.888-28.592,17.463-28.592h90.689c9.576,0,17.462,12.914,17.462,28.592,0,16.6-7.886,29.515-17.462,29.515Z" transform="translate(-2921.796 -2247.676)"/><path class="p" d="M4168.405,3328.164c0,9.222-5.068,17.524-10.7,17.524-6.2,0-10.7-8.3-10.7-17.524v-566.3c0-10.146,4.506-17.524,10.7-17.524,5.634,0,10.7,7.379,10.7,17.524Zm537.947-6.456c0,10.146-5.069,17.523-10.7,17.523-6.2,0-10.7-7.377-10.7-17.523V2433.525c0-9.223,4.506-17.525,10.7-17.525,5.633,0,10.7,8.3,10.7,17.525Zm-254.609,0c0,10.146-5.069,17.523-10.7,17.523-6.2,0-10.7-7.377-10.7-17.523V2433.525c0-9.223,4.506-17.525,10.7-17.525,5.633,0,10.7,8.3,10.7,17.525Z" transform="translate(-2530.508 -2165.012)"/><path class="p" d="M3357.135,3388h1632.43l145.893,234.267H3129L3352.065,3388Zm1618.347,59.028H3362.2l-111.532,116.211H5048.147Z" transform="translate(-2085.943 -2240.527)"/><path class="m" d="M4533.916,2915.4l58.02-108.833L4084.969,2196,3044,3449.419l58.583,120.822,982.386-1183.323Z" transform="translate(-2048.822 -2147.92)"/><path class="p" d="M4512.679,2852.323l21.968-41.5-467.535-563.531L3063.884,3455.513l24.222,50.728,967.178-1164.876c7.886-9.223,17.462-8.3,24.221,1.845Zm77.171-13.835-58.583,108.833c-7.324,13.835-18.026,16.6-27.038,6.455L4067.113,2439.13l-969.43,1167.642c-9.013,11.991-21.405,10.146-29.855-6.455l-58.019-120.823c-1.126-3.689-2.253-6.456-3.38-10.146-6.76-23.057-2.817-52.571,8.449-66.406l1040.406-1252.5c7.322-8.3,15.772-9.223,23.1,0l505.839,608.724c2.253,1.845,5.07,6.457,7.323,11.068C4599.99,2789.607,4598.863,2820.043,4589.851,2838.489Z" transform="translate(-2030.967 -2143.871)"/><path class="m" d="M4722,3517.5l576.25-694.5,564.422,678.819-64.778,108.833-502.46-605.035-500.206,602.269Z" transform="translate(-2781.615 -2196.633)"/><path class="p" d="M4653.668,3493.1l592.023-712.944c11.266-13.835,25.348-12.914,35.487,0l572.308,688.964c12.957,15.68,15.771,46.116,6.2,67.328a18.791,18.791,0,0,1-2.815,6.457l-63.653,107.91c-10.14,17.523-26.475,19.369-38.3,5.533l-494.573-594.889-494.01,594.889c-10.7,12.914-25.348,11.99-35.487,0l-76.045-84.852c-13.519-14.755-17.462-44.271-7.887-66.406C4648.6,3500.479,4650.852,3495.867,4653.668,3493.1Zm609.485-614.258L4722.39,3529.993l25.912,28.591,494.009-595.811c10.139-12.914,24.785-13.835,35.487,0l491.194,590.277,22.532-38.736Z" transform="translate(-2746.516 -2192.525)"/><path class="p" d="M3772.026,3538.106c-10.139,0-18.026-12.914-18.026-29.515,0-15.678,7.887-28.592,18.026-28.592h90.127c10.14,0,18.025,12.914,18.025,28.592,0,16.6-7.885,29.515-18.025,29.515Zm459.648,0c-9.575,0-18.025-12.914-18.025-29.515,0-15.678,8.45-28.592,18.025-28.592h90.691c9.576,0,17.461,12.914,17.461,28.592,0,16.6-7.885,29.515-17.461,29.515Zm-231.514,0c-9.576,0-17.462-12.914-17.462-29.515,0-15.678,7.886-28.592,17.462-28.592h90.691c9.576,0,17.462,12.914,17.462,28.592,0,16.6-7.886,29.515-17.462,29.515Z" transform="translate(-2358.883 -2247.676)"/><rect class="s" width="139" height="387" transform="translate(1966.51 484.518)"/><path class="p" d="M4762.45,2659h139.133c4.507,0,8.45,4.612,8.45,11.067v385.525c0,6.456-3.943,11.067-8.45,11.067H4762.45c-5.07,0-8.449-4.612-8.449-11.067V2670.067C4754,2663.612,4757.38,2659,4762.45,2659Zm130.685,23.057H4770.9V3043.6h122.235Z" transform="translate(-2795.589 -2183.891)"/><path class="t" d="M4769,2671h139.134v64.562H4769Z" transform="translate(-2802.139 -2184.823)"/><path class="p" d="M4762.45,2659h139.133c4.507,0,8.45,4.612,8.45,11.067v64.561c0,6.456-3.943,11.99-8.45,11.99H4762.45c-5.07,0-8.449-5.534-8.449-11.99v-64.561C4754,2663.612,4757.38,2659,4762.45,2659Zm130.685,23.057H4770.9v41.5h122.235Z" transform="translate(-2795.589 -2183.891)"/><path class="t" d="M4908.134,3018v65.483H4769V3018Z" transform="translate(-2802.139 -2211.783)"/><path class="p" d="M4910.033,3017.068v65.484c0,6.455-3.943,11.068-8.45,11.068H4762.45c-5.07,0-8.449-4.613-8.449-11.068v-65.484c0-6.456,3.379-11.067,8.449-11.067h139.133C4906.09,3006,4910.033,3010.612,4910.033,3017.068Zm-16.9,53.494v-41.5H4770.9v41.5Z" transform="translate(-2795.589 -2210.851)"/><rect class="u" width="74" height="231" transform="translate(1999.51 563.518)"/><path class="p" d="M5731.761,3079.523c0-9.221,4.507-17.523,10.7-17.523,5.634,0,10.7,8.3,10.7,17.523v308.052c0,10.145-5.069,17.524-10.7,17.524-6.195,0-10.7-7.379-10.7-17.524Zm-95.76,0c0-9.221,4.505-17.523,10.7-17.523,5.633,0,10.7,8.3,10.7,17.523v308.052c0,10.145-5.069,17.524-10.7,17.524-6.2,0-10.7-7.379-10.7-17.524Z" transform="translate(-3180.763 -2215.201)"/><path class="p" d="M5413.994,2540.54c0,14.756-7.323,26.747-16.335,26.747-8.45,0-15.773-11.99-15.773-26.747V2430.785h-4.506c-2.254,0-3.38-2.768-3.38-7.378v-59.028c0-3.689,1.126-7.379,3.38-7.379h41.12c2.254,0,3.381,3.69,3.381,7.379v59.028c0,4.611-1.127,7.378-3.381,7.378h-4.506Z" transform="translate(-3066.345 -2160.428)"/><rect class="v" width="481" height="546" transform="translate(1341.51 1571.518)"/><path class="w" d="M3989.908,4395.493H3657V3970.308L3674.463,3879Z" transform="translate(-2316.523 -2278.675)"/><path class="p" d="M3643.025,3816h499.08v604.113H3625V3816Zm463.593,58.1h-446.13v487.9h446.13Z" transform="translate(-2302.549 -2273.781)"/><path class="x" d="M4084,3847h240.527v546.007H4084Z" transform="translate(-2502.996 -2276.189)"/><path class="y" d="M4084,3847h144.2l96.323,157.714v308.975L4084,3918.939Zm240.527,538.628v7.379h-33.8L4084,4054.519V3991.8Z" transform="translate(-2502.996 -2276.189)"/><path class="p" d="M4070.025,3816h258.553v604.113H4052V3816Zm223.065,58.1h-205.6v487.9h205.6Z" transform="translate(-2489.022 -2273.781)"/><rect class="v" width="570" height="647" transform="translate(2219.51 1519.518)"/><path class="w" d="M5610.124,4442.259H5213V3942.366L5234.969,3828Z" transform="translate(-2996.036 -2274.713)"/><path class="p" d="M5202.153,3758h589.771v710.177H5183V3758Zm550.9,64.561H5221.868v581.978h531.187Z" transform="translate(-2982.935 -2269.273)"/><path class="x" d="M5723,3793h285.028v646.536H5723Z" transform="translate(-3218.756 -2271.994)"/><path class="y" d="M5723,3793h168.988l112.1,183.54v360.622L5723,3876.931Zm0,241.646v-72.864l281.084,460.232v8.3h-38.867Z" transform="translate(-3218.756 -2271.994)"/><path class="p" d="M5708.153,3758H6012.9v710.177H5689V3758Zm265.875,64.561H5727.868v581.978h246.161Z" transform="translate(-3203.908 -2269.273)"/><path class="p" d="M3277.772,4578.571c-3.943,0-8.449-2.766-11.266-7.378S3262,4559.2,3262,4552.746a42.222,42.222,0,0,1,4.506-19.368c2.817-4.611,7.323-7.379,11.266-7.379h264.186c4.507,0,8.45,2.768,11.266,7.379a42.4,42.4,0,0,1,5.07,19.368,38.611,38.611,0,0,1-5.07,18.447c-2.816,4.612-6.759,7.378-11.266,7.378Zm306.433,0c-4.506,0-8.45-2.766-11.266-7.378-3.38-4.611-5.07-11.991-5.07-18.447a36.415,36.415,0,0,1,5.07-19.368c2.816-4.611,6.76-7.379,11.266-7.379h64.215c4.506,0,8.449,2.768,11.266,7.379a42.216,42.216,0,0,1,4.506,19.368c0,6.457-1.689,13.836-4.506,18.447s-6.76,7.378-11.266,7.378Z" transform="translate(-2144.024 -2328.939)"/><path class="p" d="M4816.773,4671.572c-4.506,0-8.45-2.765-11.267-8.3-2.816-4.611-4.506-11.068-4.506-18.446s1.69-13.834,4.506-18.444,6.76-7.381,11.267-7.381h264.186c4.506,0,8.449,2.767,11.266,7.381s4.507,11.067,4.507,18.444-1.691,13.835-4.507,18.446c-2.817,5.536-6.76,8.3-11.266,8.3Zm305.869,0c-4.507,0-8.45-2.765-11.266-8.3-2.817-4.611-4.507-11.068-4.507-18.446s1.69-13.834,4.507-18.444,6.759-7.381,11.266-7.381h64.215c4.506,0,8.45,2.767,11.829,7.381,2.817,4.61,4.506,11.067,4.506,18.444s-1.689,13.835-4.506,18.446q-5.069,8.3-11.829,8.3Z" transform="translate(-2816.114 -2336.165)"/><path class="p" d="M2847.323,5107.981c-3.943,0-7.323-5.534-7.323-11.99s3.38-11.992,7.323-11.992h125.052c3.943,0,7.323,5.536,7.323,11.992s-3.38,11.99-7.323,11.99Zm2214.313,0c-3.943,0-7.323-5.534-7.323-11.99s3.38-11.992,7.323-11.992h125.051c3.943,0,7.322,5.536,7.322,11.992s-3.379,11.99-7.322,11.99Z" transform="translate(-1959.735 -2372.292)"/><rect class="z" width="86" height="1058" transform="translate(114.51 2875.518)"/><path class="g" d="M1565.621,5330v147.572H1480V5330Zm0,295.142v147.568H1480V5625.141Z" transform="translate(-1365.816 -2391.404)"/><path class="p" d="M1471.7,5239h96.323V6341.161H1461V5239Zm74.918,42.426h-64.216V6298.734h64.216Z" transform="translate(-1357.518 -2384.335)"/><path class="t" d="M1565.621,5833v533.1H1480V5833Z" transform="translate(-1365.816 -2430.483)"/><path class="g" d="M1565.621,5921V6068.57H1480V5921Zm0,295.138V6363.71H1480V6216.139Z" transform="translate(-1365.816 -2437.321)"/><path class="p" d="M1568.026,5831.213v554.307H1461V5810h107.026Zm-21.405,511.881V5851.5h-64.216v491.59Z" transform="translate(-1357.518 -2428.695)"/><rect class="aa" width="593" height="1006" transform="translate(200.51 2875.518)"/><path class="ab" d="M1868.021,5262h356.566v683.429L1632,5384.668v-62.715Z" transform="translate(-1432.195 -2386.123)"/><path class="g" d="M1632,5262h592.587v105.142H1632Z" transform="translate(-1432.195 -2386.123)"/><path class="p" d="M1625.013,5243h601.6v140.19H1616V5243Zm583.573,35.047H1633.462v70.1h575.124Z" transform="translate(-1425.208 -2384.646)"/><path class="i" d="M2224.586,5800v30.437H1632V5800Zm0,190.919v30.435H1632V5990.92Zm0,184.462v29.512H1632v-29.512Z" transform="translate(-1432.195 -2427.921)"/><rect class="z" width="85" height="1058" transform="translate(792.51 2875.518)"/><path class="g" d="M2769.621,5330v147.572H2684V5330Zm0,295.142v147.568H2684V5625.141Z" transform="translate(-1891.608 -2391.404)"/><path class="p" d="M2675.7,5239h96.323V6341.161H2665V5239Zm74.918,42.426h-64.216V6298.734h64.216Z" transform="translate(-1883.311 -2384.335)"/><path class="t" d="M2769.621,5833v533.1H2684V5833Z" transform="translate(-1891.608 -2430.483)"/><path class="g" d="M2769.621,5921V6068.57H2684V5921Zm0,295.138V6363.71H2684V6216.139Z" transform="translate(-1891.608 -2437.321)"/><path class="p" d="M2772.026,5831.213v554.307H2665V5810h107.026Zm-21.405,511.881V5851.5h-64.216v491.59Z" transform="translate(-1883.311 -2428.695)"/><path class="i" d="M1726,5518h64.779v106.064H1726Zm421.907,0h64.779v106.064h-64.779Zm-103.646,0h64.779v106.064h-64.779Zm-211.236,0h64.779v106.064h-64.779Z" transform="translate(-1473.245 -2406.01)"/><path class="p" d="M1626.323,5247h599.909V6279.067H1619V5247Zm585.827,27.669H1633.083V6251.4H2212.15Z" transform="translate(-1426.518 -2384.957)"/><rect class="aa" width="1799" height="1004" transform="translate(1161.51 2890.518)"/><path class="ab" d="M3340,5279H5138.6V6281.549H4400.686Z" transform="translate(-2178.088 -2387.443)"/><path class="p" d="M3326.025,5247h1798.6c9.576,0,17.462,12.911,17.462,29.513V6279.067c0,16.6-7.886,29.511-17.462,29.511h-1798.6c-9.576,0-18.025-12.911-18.025-29.511V5276.514C3308,5259.912,3316.449,5247,3326.025,5247ZM5106.6,5305.106H3344.051v945.367H5106.6Z" transform="translate(-2164.113 -2384.957)"/><path class="i" d="M5138.6,5601v29.515H3340V5601Zm0,183.539v30.438H3340v-30.438Zm0,190.92v30.435H3340v-30.435Zm0,184.462v29.512H3340V6159.92Z" transform="translate(-2178.088 -2412.458)"/><path class="i" d="M3489,5379h64.779v106.065H3489Zm421.345,0h64.779v106.065h-64.779Zm-103.083,0h64.779v106.065h-64.779Zm-211.8,0h64.778v106.065h-64.778Z" transform="translate(-2243.156 -2395.211)"/><path class="i" d="M5528,5379h64.779v106.065H5528Zm421.91,0h64.777v106.065h-64.777Zm-103.647,0h64.779v106.065h-64.779Zm-211.236,0H5699.8v106.065h-64.779Z" transform="translate(-3133.597 -2395.211)"/><path class="p" d="M1738.013,4597.592c-5.07,0-9.013-6.456-9.013-14.758,0-7.377,3.943-13.833,9.013-13.833H2129.5c5.07,0,9.012,6.456,9.012,13.833,0,8.3-3.943,14.758-9.012,14.758Zm443.313,0c-4.506,0-8.449-6.456-8.449-14.758,0-7.377,3.943-13.833,8.449-13.833h103.646c5.07,0,9.012,6.456,9.012,13.833,0,8.3-3.943,14.758-9.012,14.758Z" transform="translate(-1474.555 -2332.282)"/><path class="p" d="M2869.972,3981.592c5.069,0,9.013-6.457,9.013-14.757,0-7.377-3.943-13.834-9.013-13.834h-391.49c-5.07,0-9.013,6.457-9.013,13.834,0,8.3,3.943,14.757,9.013,14.757Zm-443.313,0c5.07,0,9.013-6.457,9.013-14.757,0-7.377-3.943-13.834-9.013-13.834H2323.013c-5.07,0-9.013,6.457-9.013,13.834,0,8.3,3.943,14.757,9.013,14.757Z" transform="translate(-1730.028 -2284.424)"/><path class="p" d="M7625.973,4440.592c5.07,0,9.013-6.457,9.013-13.835,0-8.3-3.943-14.757-9.013-14.757h-391.49c-5.069,0-9.013,6.458-9.013,14.757,0,7.379,3.944,13.835,9.013,13.835Zm-443.313,0c5.071,0,9.013-6.457,9.013-13.835,0-8.3-3.942-14.757-9.013-14.757H7079.014c-4.507,0-9.013,6.458-9.013,14.757,0,7.379,4.506,13.835,9.013,13.835Z" transform="translate(-3806.998 -2320.083)"/><path class="p" d="M6598.323,3824.592c-3.942,0-7.323-6.456-7.323-14.757,0-7.377,3.381-13.834,7.323-13.834h327.838c4.507,0,7.323,6.458,7.323,13.834,0,8.3-2.816,14.757-7.323,14.757Zm371.212,0c-3.944,0-7.323-6.456-7.323-14.757,0-7.377,3.379-13.834,7.323-13.834h86.747c4.507,0,7.886,6.458,7.886,13.834,0,8.3-3.379,14.757-7.886,14.757Z" transform="translate(-3597.815 -2272.226)"/><path class="p" d="M3094.013,4903.516c-5.07,0-9.013-6.458-9.013-14.759s3.943-14.758,9.013-14.758H3485.5c5.07,0,9.012,6.457,9.012,14.758s-3.943,14.759-9.012,14.759Zm443.313,0c-5.07,0-9.013-6.458-9.013-14.759s3.943-14.758,9.013-14.758h103.646c4.507,0,8.45,6.457,8.45,14.758s-3.943,14.759-8.45,14.759Z" transform="translate(-2066.728 -2355.977)"/><path class="p" d="M3865.584,2722c5.07,0,9.013,6.457,9.013,14.757s-3.943,14.757-9.013,14.757H3635.2c-5.07,0-9.013-6.456-9.013-14.757S3630.127,2722,3635.2,2722Zm-259.116,0c5.07,0,9.014,6.457,9.014,14.757s-3.943,14.757-9.014,14.757h-58.019c-4.507,0-8.449-6.456-8.449-14.757s3.942-14.757,8.449-14.757Z" transform="translate(-2265.429 -2188.785)"/><path class="p" d="M5612.449,2722c-4.505,0-8.449,6.457-8.449,14.757s3.943,14.757,8.449,14.757H5843.4c5.069,0,9.013-6.456,9.013-14.757S5848.47,2722,5843.4,2722Zm259.116,0c-5.07,0-9.012,6.457-9.012,14.757s3.942,14.757,9.012,14.757h58.02c5.069,0,9.012-6.456,9.012-14.757s-3.943-14.757-9.012-14.757Z" transform="translate(-3166.788 -2188.785)"/><path class="q" d="M7848,5074.933h715.95l611.738-22.136L8512.125,4255Z" transform="translate(-4146.753 -2307.886)"/><path class="p" d="M8393.152,5064.72c0,9.222-4.506,15.679-9.575,15.679s-9.577-6.457-9.577-15.679v-496.2c0-8.3,4.507-14.759,9.577-14.759s9.575,6.457,9.575,14.759Zm470.915-5.533c0,9.222-3.943,15.681-9.014,15.681s-9.576-6.458-9.576-15.681V4281.68c0-8.3,4.507-15.68,9.576-15.68s9.014,7.379,9.014,15.68Zm-223.066,0c0,9.222-3.94,15.681-9.011,15.681s-9.576-6.458-9.576-15.681V4281.68c0-8.3,4.5-15.68,9.576-15.68s9.011,7.379,9.011,15.68Z" transform="translate(-4376.46 -2308.741)"/><path class="p" d="M9633.588,5088.958c0,9.224-3.941,15.682-9.012,15.682-5.633,0-9.576-6.458-9.576-15.682v-496.2c0-8.3,3.943-14.755,9.576-14.755,5.07,0,9.012,6.454,9.012,14.755Z" transform="translate(-4918.411 -2332.98)"/><g transform="translate(3480.998 2697.873)"><path class="m" d="M7701.527,5120H9075.4l98.577,118.056H7550Z" transform="translate(-7497.613 -5072.961)"/><path class="p" d="M9149.773,5200.65c-9.014,0-15.772-11.99-15.772-25.823S9140.76,5149,9149.773,5149h78.861c9.013,0,15.771,11.988,15.771,25.826s-6.758,25.823-15.771,25.823Zm402.757,0c-8.45,0-15.774-11.99-15.774-25.823S9544.08,5149,9552.53,5149h79.423c8.451,0,15.772,11.988,15.772,25.826s-7.321,25.823-15.772,25.823Zm-202.788,0c-8.448,0-15.771-11.99-15.771-25.823s7.322-25.826,15.771-25.826h79.426c8.448,0,15.208,11.988,15.208,25.826s-6.76,25.823-15.208,25.823Z" transform="translate(-8189.356 -5075.215)"/><path class="p" d="M7656.407,5069H9087.178l127.867,204.751H7457L7651.9,5069Zm1418.377,51.648H7660.913l-97.45,102.377H9139Z" transform="translate(-7457 -5069.001)"/><path class="p" d="M8019.773,5200.65c-8.449,0-15.772-11.99-15.772-25.823s7.323-25.826,15.772-25.826H8099.2c8.45,0,15.209,11.988,15.209,25.826s-6.759,25.823-15.209,25.823Zm402.754,0c-8.448,0-15.208-11.99-15.208-25.823s6.76-25.826,15.208-25.826h79.427c8.447,0,15.771,11.988,15.771,25.826s-7.323,25.823-15.771,25.823Zm-202.786,0c-8.448,0-15.208-11.99-15.208-25.823s6.76-25.826,15.208-25.826h79.425c8.452,0,15.772,11.988,15.772,25.826s-7.32,25.823-15.772,25.823Z" transform="translate(-7695.878 -5075.215)"/></g><path class="m" d="M9173.368,5267.391l51.259-95.919L8319.976,4073,7408,5171.472l51.259,106.066,860.716-1036.675Z" transform="translate(-3954.605 -2293.747)"/><path class="p" d="M9151.514,5214.963l19.152-35.972L8304.318,4118.337l-878.74,1057.889,21.4,44.271,847.2-1020.073c6.758-8.3,15.207-7.38,21.4,1.845Zm67.6-11.99-51.26,95.919c-6.2,11.068-15.773,13.836-23.66,4.612L8304.318,4286.2,7454.87,5309.038c-7.886,11.067-18.588,9.224-25.912-5.533l-50.7-106.066q-1.691-4.151-3.38-8.3c-5.634-20.29-2.253-46.116,7.323-58.105L8294.18,4032.562c6.2-6.457,14.082-7.377,20.279,0l899.58,1100.315a32.65,32.65,0,0,1,6.2,10.144C9228.123,5160.546,9226.992,5187.294,9219.109,5202.973Z" transform="translate(-3938.947 -2290.202)"/><path class="o" d="M6604,6365.621h195.463V5910H6604Z" transform="translate(-3603.493 -2436.466)"/><path class="n" d="M6604,6388h169.552l18.588-11.99L6604,6198Z" transform="translate(-3603.493 -2458.841)"/><path class="p" d="M6605.083,6352.7h181.382v-431.64H6605.083Zm188.7,23.057H6598.323c-3.942,0-7.323-4.611-7.323-11.067V5909.068c0-6.457,3.381-11.067,7.323-11.067h195.464c3.942,0,7.323,4.61,7.323,11.067v455.621C6801.11,6371.145,6797.729,6375.756,6793.787,6375.756Z" transform="translate(-3597.815 -2435.535)"/><path class="p" d="M6605.083,6352.932h181.382v-119.9H6605.083Zm188.7,23.059H6598.323c-3.942,0-7.323-4.611-7.323-11.069V6221.041c0-5.533,3.381-11.068,7.323-11.068h195.464c3.942,0,7.323,5.536,7.323,11.068v143.881C6801.11,6371.38,6797.729,6375.991,6793.787,6375.991Zm-7.322-320.042V5924.981H6605.083v130.968Zm14.645-142.957v154.024c0,6.458-3.38,11.989-7.323,11.989H6598.323c-3.942,0-7.323-5.532-7.323-11.989V5912.992c0-6.458,3.381-11.991,7.323-11.991h195.464C6797.729,5901,6801.11,5906.535,6801.11,5912.992Z" transform="translate(-3597.815 -2435.766)"/><rect class="s" width="123" height="339" transform="translate(4304.511 2184.518)"/><path class="p" d="M8913.322,4502h122.236c3.944,0,7.323,4.613,7.323,10.146v337.565c0,5.534-3.379,10.144-7.323,10.144H8913.322c-3.94,0-7.322-4.61-7.322-10.144V4512.146C8906,4506.613,8909.382,4502,8913.322,4502Zm114.913,20.291h-107.59v317.275h107.59Z" transform="translate(-4608.788 -2327.076)"/><path class="t" d="M8919,4513h122.234v56.262H8919Z" transform="translate(-4614.465 -2327.932)"/><path class="p" d="M8913.322,4502h122.236c3.944,0,7.323,4.613,7.323,10.146v56.261c0,5.533-3.379,10.145-7.323,10.145H8913.322c-3.94,0-7.322-4.611-7.322-10.145v-56.261C8906,4506.613,8909.382,4502,8913.322,4502Zm114.913,20.291h-107.59v35.969h107.59Z" transform="translate(-4608.788 -2327.076)"/><path class="t" d="M9041.234,4817v57.184H8919V4817Z" transform="translate(-4614.465 -2351.55)"/><path class="p" d="M9042.882,4816.146v57.183c0,5.535-3.379,10.147-7.323,10.147H8913.322c-3.94,0-7.322-4.612-7.322-10.147v-57.183c0-5.534,3.382-10.146,7.322-10.146h122.236C9039.5,4806,9042.882,4810.612,9042.882,4816.146Zm-14.646,47.038v-36.893h-107.59v36.893Z" transform="translate(-4608.788 -2350.694)"/><rect class="u" width="67" height="204" transform="translate(4332.51 2250.518)"/><path class="n" d="M7727,6394.167h113.786V6040H7727Z" transform="translate(-4093.913 -2446.565)"/><path class="o" d="M7840.787,6151.6V6040H7727v4.612Z" transform="translate(-4093.913 -2446.565)"/><path class="p" d="M7728.45,6384.246h105.335V6048.526H7728.45Zm109.28,18.448H7723.944c-2.253,0-3.944-4.612-3.944-9.224V6039.3c0-4.612,1.69-8.3,3.944-8.3h113.786c2.253,0,3.942,3.689,3.942,8.3v354.167C7841.672,6398.081,7839.982,6402.693,7837.729,6402.693Z" transform="translate(-4090.855 -2445.867)"/><path class="p" d="M7728.45,6384.4h105.335v-93.155H7728.45Zm109.28,18.444H7723.944c-2.253,0-3.944-4.61-3.944-9.223v-111.6c0-4.61,1.69-9.222,3.944-9.222h113.786c2.253,0,3.942,4.612,3.942,9.222v111.6C7841.672,6398.235,7839.982,6402.846,7837.729,6402.846Zm-3.944-249.944V6051.447H7728.45V6152.9Zm7.887-110.676v119.9c0,5.533-1.689,9.225-3.942,9.225H7723.944c-2.253,0-3.944-3.692-3.944-9.225v-119.9c0-4.613,1.69-9.225,3.944-9.225h113.786C7839.982,6033,7841.672,6037.612,7841.672,6042.225Z" transform="translate(-4090.855 -2446.021)"/><path class="o" d="M10110,6394.167h113.221V6040H10110Z" transform="translate(-5134.583 -2446.565)"/><path class="n" d="M10110,6411.57h98.576l10.7-9.223L10110,6264Z" transform="translate(-5134.583 -2463.967)"/><path class="p" d="M10110.451,6384.246h105.337V6048.526h-105.337Zm109.278,18.448H10106.5c-2.252,0-4.5-4.612-4.5-9.224V6039.3c0-4.612,2.253-8.3,4.5-8.3h113.225c2.254,0,4.507,3.689,4.507,8.3v354.167C10224.236,6398.081,10221.983,6402.693,10219.729,6402.693Z" transform="translate(-5131.087 -2445.867)"/><path class="p" d="M10110.451,6384.4h105.337v-93.155h-105.337Zm109.278,18.444H10106.5c-2.252,0-4.5-4.61-4.5-9.223v-111.6c0-4.61,2.253-9.222,4.5-9.222h113.225c2.254,0,4.507,4.612,4.507,9.222v111.6C10224.236,6398.235,10221.983,6402.846,10219.729,6402.846Zm-3.941-249.944V6051.447h-105.337V6152.9Zm8.448-110.676v119.9c0,5.533-2.253,9.225-4.507,9.225H10106.5c-2.252,0-4.5-3.692-4.5-9.225v-119.9c0-4.613,2.253-9.225,4.5-9.225h113.225C10221.983,6033,10224.236,6037.612,10224.236,6042.225Z" transform="translate(-5131.087 -2446.021)"/><rect class="ac" width="135" height="170" transform="translate(3290.51 3263.518)"/><path class="ad" d="M7118,5688h136.318v129.124Z" transform="translate(-3827.959 -2419.219)"/><path class="p" d="M7112.323,5675h143.64v189.074H7105V5675Zm129.559,23.059H7119.646v142.958h122.235Z" transform="translate(-3822.282 -2418.208)"/><path class="p" d="M7173.723,5686.99c0-6.456,2.816-11.991,6.76-11.991s7.323,5.535,7.323,11.991v71.02h60.834c3.943,0,7.323,4.61,7.323,11.067s-3.38,11.988-7.323,11.988h-60.834v71.02c0,6.456-3.381,11.989-7.323,11.989s-6.76-5.534-6.76-11.989v-71.02h-61.4c-3.942,0-7.323-5.533-7.323-11.988s3.381-11.067,7.323-11.067h61.4Z" transform="translate(-3822.282 -2418.208)"/><g transform="translate(4116.395 3100)"><rect class="v" width="439" height="493" transform="translate(15.116 24.518)"/><path class="w" d="M8913.3,6030.224H8608V5646.542L8625.464,5558Z" transform="translate(-8595.043 -5509.119)"/><path class="p" d="M8600.208,5505H9053.1v546.006H8585V5505Zm423.035,48.882H8615.418V6001.2h407.825Z" transform="translate(-8585 -5505.001)"/><path class="x" d="M9001,5532h219.121v496.2H9001Z" transform="translate(-8766.671 -5507.098)"/><path class="y" d="M9001,5532H9130.56l86.185,141.114V5949.8L9001,5596.562Zm0,185.384v-56.26l215.742,354.167v6.454h-29.855Z" transform="translate(-8766.671 -5507.098)"/><path class="p" d="M8989.212,5505h233.767v546.006H8974V5505Zm203.913,48.882H9003.857V6001.2h189.268Z" transform="translate(-8754.88 -5505.001)"/></g></g><line class="ae" x2="2962" transform="translate(2345 5001.961)"/><g transform="translate(41.439 4501.261)"><rect class="u" width="650" height="482" transform="translate(111.561 144.701)"/><path class="m" d="M2008.523,6603.445H1461V6233.6l37.177-111.6Z" transform="translate(-1349.468 -5977.198)"/><path class="p" d="M1454.45,6107h657.928v509.114H1446V6107Zm641.03,27.668H1462.9v453.776h632.58Z" transform="translate(-1342.917 -5976.034)"/><rect class="af" width="111" height="582" transform="translate(29.561 44.701)"/><path class="p" d="M1307.449,5997h119.982v610.573H1299V5997Zm103.083,27.672H1315.9V6579.9h94.634Z" transform="translate(-1278.721 -5967.484)"/><path class="ag" d="M1314,6012h111.533v277.614H1314Z" transform="translate(-1285.272 -5968.653)"/><path class="p" d="M1307.449,5997h119.982v305.287H1299V5997Zm103.083,27.672H1315.9v249.944h94.634Z" transform="translate(-1278.721 -5967.484)"/><path class="i" d="M1274.266,5965h147.02c6.2,0,11.266,8.3,11.266,18.448v26.748c0,10.144-5.07,18.444-11.266,18.444h-147.02c-6.2,0-11.266-8.3-11.266-18.444v-26.748C1263,5973.3,1268.07,5965,1274.266,5965Zm0,79.319h147.02c6.2,0,11.266,8.3,11.266,18.447v26.748c0,10.145-5.07,18.445-11.266,18.445h-147.02c-6.2,0-11.266-8.3-11.266-18.445v-26.748C1263,6052.62,1268.07,6044.318,1274.266,6044.318Z" transform="translate(-1263 -5964.999)"/></g><g transform="translate(709.507 4501.261)"><rect class="af" width="111" height="582" transform="translate(28.493 44.701)"/><path class="p" d="M2493.449,5997h119.982v610.573H2485V5997Zm103.083,27.672H2501.9V6579.9h94.634Z" transform="translate(-2464.722 -5967.484)"/><path class="ag" d="M2500,6012h111.532v277.614H2500Z" transform="translate(-2471.272 -5968.653)"/><path class="p" d="M2493.449,5997h119.982v305.287H2485V5997Zm103.083,27.672H2501.9v249.944h94.634Z" transform="translate(-2464.722 -5967.484)"/><path class="i" d="M2460.266,5965h147.02c6.2,0,11.266,8.3,11.266,18.448v26.748c0,10.144-5.069,18.444-11.266,18.444h-147.02c-6.2,0-11.266-8.3-11.266-18.444v-26.748C2449,5973.3,2454.07,5965,2460.266,5965Zm0,79.319h147.02c6.2,0,11.266,8.3,11.266,18.447v26.748c0,10.145-5.069,18.445-11.266,18.445h-147.02c-6.2,0-11.266-8.3-11.266-18.445v-26.748C2449,6052.62,2454.07,6044.318,2460.266,6044.318Z" transform="translate(-2449 -5964.999)"/></g><rect class="u" width="650" height="482" transform="translate(3222 4643.961)"/><path class="m" d="M7456.96,6603.445H6910V6233.6l37.178-111.6Z" transform="translate(-3687.637 -1477.539)"/><path class="p" d="M6903.45,6107h657.927v509.114H6895V6107Zm641.028,27.668H6911.9v453.776h632.58Z" transform="translate(-3681.085 -1477.387)"/><g transform="translate(3119.845 4501.261)"><rect class="af" width="111" height="582" transform="translate(29.154 44.701)"/><path class="p" d="M6772.45,5997h119.981v610.573H6764V5997Zm103.082,27.672H6780.9V6579.9h94.633Z" transform="translate(-6743.722 -5967.484)"/><path class="ag" d="M6779,6012h111.532v277.614H6779Z" transform="translate(-6750.272 -5968.653)"/><path class="p" d="M6772.45,5997h119.981v305.287H6764V5997Zm103.082,27.672H6780.9v249.944h94.633Z" transform="translate(-6743.722 -5967.484)"/><path class="i" d="M6739.266,5965h147.021c6.2,0,11.266,8.3,11.266,18.448v26.748c0,10.144-5.07,18.444-11.266,18.444H6739.266c-6.2,0-11.266-8.3-11.266-18.444v-26.748C6728,5973.3,6733.07,5965,6739.266,5965Zm0,79.319h147.021c6.2,0,11.266,8.3,11.266,18.447v26.748c0,10.145-5.07,18.445-11.266,18.445H6739.266c-6.2,0-11.266-8.3-11.266-18.445v-26.748C6728,6052.62,6733.07,6044.318,6739.266,6044.318Z" transform="translate(-6728 -5964.999)"/></g><g transform="translate(3777.774 4501.261)"><rect class="u" width="650" height="482" transform="translate(110.226 144.701)"/><path class="m" d="M8640.522,6603.445H8093V6233.6l37.74-111.6Z" transform="translate(-7982.032 -5977.198)"/><path class="p" d="M8086.45,6107h657.927v509.114H8078V6107Zm641.029,27.668H8094.9v453.776h632.58Z" transform="translate(-7975.481 -5976.034)"/><rect class="af" width="111" height="582" transform="translate(29.226 44.701)"/><path class="p" d="M7940.449,5997h119.981v610.573H7932V5997Zm103.083,27.672H7948.9V6579.9h94.634Z" transform="translate(-7911.722 -5967.484)"/><path class="ag" d="M7947,6012h111.532v277.614H7947Z" transform="translate(-7918.272 -5968.653)"/><path class="p" d="M7940.449,5997h119.981v305.287H7932V5997Zm103.083,27.672H7948.9v249.944h94.634Z" transform="translate(-7911.722 -5967.484)"/><path class="i" d="M7907.268,5965h147.02c6.2,0,10.7,8.3,10.7,18.448v26.748c0,10.144-4.508,18.444-10.7,18.444h-147.02c-6.2,0-11.268-8.3-11.268-18.444v-26.748C7896,5973.3,7901.071,5965,7907.268,5965Zm0,79.319h147.02c6.2,0,10.7,8.3,10.7,18.447v26.748c0,10.145-4.508,18.445-10.7,18.445h-147.02c-6.2,0-11.268-8.3-11.268-18.445v-26.748C7896,6052.62,7901.071,6044.318,7907.268,6044.318Z" transform="translate(-7896 -5964.999)"/></g><rect class="u" width="651" height="482" transform="translate(4548 4643.961)"/><path class="m" d="M9810.524,6603.445H9263V6233.6l37.74-111.6Z" transform="translate(-4715.2 -1477.539)"/><path class="p" d="M9256.452,6107H9914.38v509.114H9248V6107Zm641.028,27.668H9264.9v453.776h632.58Z" transform="translate(-4708.651 -1477.387)"/><g transform="translate(4445.279 4501.261)"><rect class="af" width="113" height="582" transform="translate(27.721 44.701)"/><path class="p" d="M9125.449,5997h119.982v610.573H9117V5997Zm103.083,27.672H9133.9V6579.9h94.634Z" transform="translate(-9096.723 -5967.484)"/><path class="ag" d="M9132,6012h111.532v277.614H9132Z" transform="translate(-9103.272 -5968.653)"/><path class="p" d="M9125.449,5997h119.982v305.287H9117V5997Zm103.083,27.672H9133.9v249.944h94.634Z" transform="translate(-9096.723 -5967.484)"/><path class="i" d="M9092.268,5965h147.019c6.2,0,11.267,8.3,11.267,18.448v26.748c0,10.144-5.069,18.444-11.267,18.444H9092.268c-6.2,0-11.268-8.3-11.268-18.444v-26.748C9081,5973.3,9086.069,5965,9092.268,5965Zm0,79.319h147.019c6.2,0,11.267,8.3,11.267,18.447v26.748c0,10.145-5.069,18.445-11.267,18.445H9092.268c-6.2,0-11.268-8.3-11.268-18.445v-26.748C9081,6052.62,9086.069,6044.318,9092.268,6044.318Z" transform="translate(-9081 -5964.999)"/></g><g transform="translate(5112.784 4501.261)"><rect class="af" width="112" height="582" transform="translate(28.216 44.701)"/><path class="p" d="M10310.449,5997h119.983v610.573H10302V5997Zm103.084,27.672H10318.9V6579.9h94.632Z" transform="translate(-10281.723 -5967.484)"/><path class="ag" d="M10317,6012h111.532v277.614H10317Z" transform="translate(-10288.272 -5968.653)"/><path class="p" d="M10310.449,5997h119.983v305.287H10302V5997Zm103.084,27.672H10318.9v249.944h94.632Z" transform="translate(-10281.723 -5967.484)"/><path class="i" d="M10277.267,5965h147.02c6.2,0,11.267,8.3,11.267,18.448v26.748c0,10.144-5.069,18.444-11.267,18.444h-147.02c-6.2,0-11.267-8.3-11.267-18.444v-26.748C10266,5973.3,10271.071,5965,10277.267,5965Zm0,79.319h147.02c6.2,0,11.267,8.3,11.267,18.447v26.748c0,10.145-5.069,18.445-11.267,18.445h-147.02c-6.2,0-11.267-8.3-11.267-18.445v-26.748C10266,6052.62,10271.071,6044.318,10277.267,6044.318Z" transform="translate(-10266 -5964.999)"/></g><line class="ae" x2="1647" transform="translate(0 5001.961)"/><path class="p" d="M2208.566,6507c4.507,0,8.45,6.459,8.45,13.836s-3.943,13.834-8.45,13.834H1940.438c-5.07,0-8.45-6.455-8.45-13.834s3.38-13.836,8.45-13.836Zm-297.42,0c4.506,0,8.45,6.459,8.45,13.836s-3.943,13.834-8.45,13.834h-50.7c-5.07,0-8.449-6.455-8.449-13.834s3.38-13.836,8.449-13.836Z" transform="translate(-1478.781 -1631.922)"/><path class="p" d="M7665.128,6507c4.506,0,8.452,6.459,8.452,13.836s-3.945,13.834-8.452,13.834h-268.69c-4.507,0-8.45-6.455-8.45-13.834s3.943-13.836,8.45-13.836Zm-297.981,0c5.07,0,8.448,6.459,8.448,13.836s-3.378,13.834-8.448,13.834h-50.7c-4.506,0-8.449-6.455-8.449-13.834s3.943-13.836,8.449-13.836Z" transform="translate(-3861.443 -1631.922)"/><path class="p" d="M8850.567,6507c5.069,0,8.449,6.459,8.449,13.836s-3.38,13.834-8.449,13.834H8582.439c-4.508,0-8.45-6.455-8.45-13.834s3.942-13.836,8.45-13.836Zm-297.421,0c4.507,0,8.449,6.459,8.449,13.836s-3.942,13.834-8.449,13.834h-50.7c-4.506,0-8.448-6.455-8.448-13.834s3.942-13.836,8.448-13.836Z" transform="translate(-4379.376 -1631.922)"/><path class="p" d="M10035.567,6507c5.069,0,8.449,6.459,8.449,13.836s-3.38,13.834-8.449,13.834H9767.438c-4.507,0-8.447-6.455-8.447-13.834s3.94-13.836,8.447-13.836Zm-297.419,0c5.067,0,8.448,6.459,8.448,13.836s-3.381,13.834-8.448,13.834h-50.7c-4.506,0-8.449-6.455-8.449-13.834s3.943-13.836,8.449-13.836Z" transform="translate(-4896.871 -1631.922)"/><path class="ah" d="M2172.175,7535.194h251.793c28.728-12.912,50.133-56.261,50.133-106.987h0c0-59.95-30.418-109.755-67.032-109.755H1884.332c-37.177,0-67.032-48.884-67.032-109.754h0c0-59.951,29.854-109.757,67.032-109.757h238.274c36.614,0,67.032-49.8,67.032-109.754h0c0-60.873-30.418-109.754-67.032-109.754H1628.032c-37.177,0-67.032-49.805-67.032-109.756v-.923c0-59.951,29.855-109.753,67.032-109.753H6461.1c36.614,0,67.032,49.8,67.032,109.753v.923c0,59.951-30.418,109.756-67.032,109.756H5966.53c-37.178,0-67.032,48.881-67.032,109.754h0c0,59.949,29.854,109.754,67.032,109.754H6204.8c36.614,0,67.032,49.806,67.032,109.757h0c0,60.87-30.418,109.754-67.032,109.754H5682.066c-36.615,0-67.032,49.8-67.032,109.755h0c0,50.727,21.405,94.075,50.133,106.987H5916.4c37.178,0,67.033,48.884,67.033,109.752h0c0,59.951-29.854,109.757-67.033,109.757H2172.175c-36.614,0-67.032-49.806-67.032-109.757h0C2105.143,7584.078,2135.561,7535.194,2172.175,7535.194Z" transform="translate(-1351.7 -1643.733)"/><path class="ai" d="M2961.37,7535.194h319.952c21.968-12.912,37.741-56.261,37.741-106.987h0c0-59.95-22.532-109.755-50.7-109.755H2694.931c-27.6,0-50.7-48.884-50.7-109.754h0c0-59.951,23.1-109.757,50.7-109.757h359.382c27.6,0,50.7-49.8,50.7-109.754h0c0-60.873-23.095-109.754-50.7-109.754H2661.7c-27.6,0-50.7-49.805-50.7-109.756v-.923c0-59.951,23.1-109.753,50.7-109.753H6361.981c27.6,0,50.133,49.8,50.133,109.753v.923c0,59.951-22.531,109.756-50.133,109.756H5951.9c-28.165,0-50.7,48.881-50.7,109.754h0c0,59.949,22.531,109.754,50.7,109.754H6332.69c27.6,0,50.134,49.806,50.134,109.757h0c0,60.87-22.533,109.754-50.134,109.754h-595.4c-27.6,0-50.7,49.8-50.7,109.755h0c0,50.727,16.336,94.075,37.741,106.987h309.25c27.6,0,50.133,48.884,50.133,109.752h0c0,59.951-22.531,109.757-50.133,109.757H2961.37c-27.6,0-50.7-49.806-50.7-109.757h0C2910.673,7584.078,2933.769,7535.194,2961.37,7535.194Z" transform="translate(-1810.24 -1643.733)"/><path class="aj" d="M8750.477,2269.891h-1.127c-23.657,0-45.062,15.678-60.834,40.581-15.209,25.825-24.785,60.872-24.785,99.609,0,7.38,0,13.835,1.125,21.214H8557.269c-6.2,0-11.268-8.3-11.268-18.447s5.07-18.445,11.268-18.445h84.493c2.253-42.427,13.519-81.164,30.981-109.755,19.15-31.358,45.626-50.727,74.355-51.649,12.391-27.669,28.728-51.649,47.314-67.33,19.716-17.523,42.811-27.669,66.47-27.669,25.349,0,49.569,11.068,70.412,30.437,19.152,18.446,36.051,44.271,47.88,74.707,29.855,2.767,56.893,23.979,76.607,56.26,15.21,25.826,26.476,58.106,31.547,95h168.987c6.2,0,11.266,8.3,11.266,18.445s-5.068,18.447-11.266,18.447h-188.7c-1.127-41.5-11.267-78.4-27.6-105.144-17.463-28.591-41.12-46.115-67.031-46.115l-6.76-.923-2.817-8.3c-10.7-29.514-25.347-53.493-43.374-71.018-17.461-15.679-37.739-24.9-59.146-24.9-20.278,0-39.431,8.3-55.766,23.058-17.462,14.757-32.108,36.892-42.811,63.639l-3.379,8.3Z" transform="translate(-4402.084 -750.764)"/><path class="aj" d="M2586.541,2090.812h1.126c23.659,0,45.064,15.68,60.836,40.582,15.209,25.825,24.785,60.873,24.785,99.61,0,6.456,0,13.834-.564,20.291h107.026c6.2,0,11.266-8.3,11.266-18.447s-5.07-18.447-11.266-18.447H2695.82c-2.816-42.426-14.082-80.24-31.544-108.831-19.152-31.359-45.063-50.728-74.355-51.651-12.393-28.59-28.164-51.648-47.317-68.25-19.715-17.523-42.247-27.669-66.469-27.669-25.348,0-49.57,11.068-69.848,30.436-19.716,18.446-36.051,44.271-48.444,75.63-29.854,2.767-56.893,23.98-76.608,56.26-15.209,25.825-26.475,58.106-30.981,94.075H2081.266c-6.76,0-11.266,8.3-11.266,18.447s4.506,18.447,11.266,18.447h188.7c.563-40.583,10.7-77.475,27.6-105.143s40.557-45.194,66.469-46.116h6.759l3.38-9.223c10.139-28.591,25.348-53.494,43.374-70.1,16.9-15.679,37.177-25.824,58.583-25.824,20.278,0,39.431,8.3,55.766,23.058,17.462,15.679,32.108,37.815,42.811,64.562l3.943,8.3Z" transform="translate(-1573.982 -718.693)"/><path class="aj" d="M7004.04,828.89h-1.691c-23.658,0-45.062,15.679-60.272,41.5-15.772,24.9-25.348,59.95-25.348,98.687,0,7.379.563,13.835,1.127,21.213H6810.266c-6.2,0-11.265-8.3-11.265-18.446s5.069-18.446,11.265-18.446h84.495c2.254-42.426,13.519-81.163,30.982-109.755,19.152-30.436,45.625-50.727,74.354-51.649,12.394-27.669,28.729-50.727,47.318-67.328,19.716-17.524,42.81-27.669,67.031-27.669,25.35,0,49.007,11.068,69.85,30.436,19.152,18.446,36.051,44.271,47.88,74.707,29.854,3.689,56.893,23.98,76.607,57.183,15.209,24.9,26.475,57.183,31.544,94.075h168.989c6.2,0,11.266,8.3,11.266,18.446s-5.07,18.446-11.266,18.446h-188.7c-1.126-41.5-11.266-78.4-27.6-105.143-17.462-28.591-41.12-46.115-67.033-46.115h-6.2l-3.38-9.223c-10.7-29.514-25.348-53.494-43.374-70.1-17.462-16.6-37.177-25.825-58.583-25.825-20.84,0-39.43,8.3-56.328,23.058-17.462,14.757-32.109,36.892-42.811,63.639l-3.379,9.223Z" transform="translate(-3639.161 -469.19)"/><ellipse class="ak" cx="30" cy="48.5" rx="30" ry="48.5" transform="translate(3557 1878.961)"/><ellipse class="ak" cx="29.5" cy="47" rx="29.5" ry="47" transform="translate(2554 1218.961)"/><ellipse class="ak" cx="30" cy="50" rx="30" ry="50" transform="translate(1745 1287.961)"/><ellipse class="ak" cx="29.5" cy="48.5" rx="29.5" ry="48.5" transform="translate(2930 1575.961)"/></g></g></g></g></g></g></svg>