<svg xmlns="http://www.w3.org/2000/svg" xmlns:xlink="http://www.w3.org/1999/xlink" viewBox="0 0 1920 1080"><defs><clipPath id="b"><rect width="1920" height="1080"/></clipPath></defs><g id="a" clip-path="url(#b)"><g transform="translate(1003.43 900.24)"><rect width="382.598" height="131.499" transform="translate(0.418)" fill="#506a8d"/><g transform="translate(0 0.064)"><path d="M3340,5279h382.587v131.438H3565.622Z" transform="translate(-3339.541 -5279)" fill="#3d5980" fill-rule="evenodd"/><rect width="384.264" height="9.998" transform="translate(0 126.042)" fill="#28324e"/></g><path d="M3722.587,5601v3.869H3340V5601Zm0,24.062v3.992H3340v-3.992Zm0,25.03v3.99H3340v-3.991Zm0,24.184v3.87H3340v-3.87Z" transform="translate(-3339.501 -5562.011)" fill="#28324e" fill-rule="evenodd"/><path d="M3489,5379h13.6v13.907H3489Zm88.445,0h13.6v13.907h-13.6Zm-21.642,0h13.6v13.907h-13.6Zm-44.454,0h13.6v13.907h-13.6Z" transform="translate(-3470.882 -5366.853)" fill="#28324e" fill-rule="evenodd"/><path d="M5528,5379h13.6v13.907H5528Zm88.563,0h13.6v13.907h-13.6Zm-21.755,0h13.6v13.907h-13.6Zm-44.34,0h13.6v13.907h-13.6Z" transform="translate(-5263.746 -5366.853)" fill="#28324e" fill-rule="evenodd"/></g></g></svg>