<?xml version="1.0" encoding="utf-8"?>
<!-- Generator: Adobe Illustrator 19.0.0, SVG Export Plug-In . SVG Version: 6.00 Build 0)  -->
<svg version="1.1" id="Layer_1" xmlns="http://www.w3.org/2000/svg" xmlns:xlink="http://www.w3.org/1999/xlink" x="0px" y="0px"
	 width="1920px" height="1080px" viewBox="0 0 1920 1080" enable-background="new 0 0 1920 1080" xml:space="preserve">
<g id="XMLID_31_">
	<g id="XMLID_35_">
		<rect id="XMLID_6_" x="1428.5" y="897.4" fill-rule="evenodd" clip-rule="evenodd" width="12.3" height="87.8"/>
		<path id="XMLID_7_" fill-rule="evenodd" clip-rule="evenodd" fill="#0B2A49" d="M1433.4,695.7c-2.1,22.1-11.1,48.4-19.4,67
			c3-2.6,6.2-4.4,9.2-7.4c0.8,14.3-5.4,26.5-11.5,37.5c2.3-1.4,4.9-3.1,7.2-4.8c-3.3,8.9-5.5,19.5-9.8,27.5c2.8-0.8,6.2-1,9.3-2.3
			c-3,10.4-7.8,20.7-13.6,29.3c2.7-2.1,6-4.1,8.5-6.5c-4,10.9-9.1,22.4-13.9,33.3c-1,1-1,1-0.1-0.2c3.5-3.4,8.2-5.8,11.7-9.6
			c-5,13.5-13.7,24.9-20.2,37.5c0.5-0.6,9-6.7,12.2-9.7c-5.2,9.5-14.7,24.4-18.5,30.6c5.3-3.8,11.1-6,16-10.4
			c-6.6,9-13.4,17.3-20.4,25.8c8.4-0.3,16.5-3.7,23.2-9.6c0.2,3.6,0.9,8,0.9,11.5c2.6-4.8,9.1-8.7,12-14c1,3.8,3.4,9.2,4.1,11.6
			c1.8-0.4,1.9-7,3.1-8.3c2.8,1.4,3.6,7.4,6.9,8.3c-0.1-2.9-0.1-8.8,0.3-11.7c2.6,5.5,7.1,9.2,9.6,14.3c-0.7-5,0.8-11.9,0.2-17.4
			c3.4,2.9,9.2,5.4,12.1,8.3c0-2.7-0.4-9,0.2-11.5c5.2,6.9,12.4,10.6,17.1,14.7c-3.2-5.9-5.8-15.1-9.3-21c5.3,5.9,12,11.5,16.5,17.9
			c-3.6-11.9-10.8-26.8-14.5-40.9c2.9,4.1,7,8.1,9.6,11.6c-1.6-11.1-6.1-21.3-10.1-31.8c-0.9-1.2-0.9-1.2-0.1,0.1
			c2.4,2.7,5.8,6.4,7.7,8.8c-1.9-10.1-6.9-21.2-9-31c2.5,2.3,4.8,5,7.2,7.4c-4.7-9.4-9.3-19.2-14-28.3c1.3-6.1,3.4-10.8,1.9-21.4
			c2.2,1.3,4.8,3.4,6.5,4.9c-2.7-5.3-4.8-14.7-9.1-20.9c1.3,1.1,2.7,1.5,4.3,1.4c-2.4-8.5-3.7-16.8-9.1-24.4c0,0,4,4.8,4.1,5
			c-1.5-8.8-3.5-19.6-7.2-27.8c0.7,0.4,3.9,4.3,4.8,5.1c-5.2-15.8-15.5-27.9-11.9-48.6"/>
	</g>
	<g id="XMLID_32_">
		<rect id="XMLID_4_" x="1566.8" y="913.4" fill-rule="evenodd" clip-rule="evenodd" width="11.5" height="66.4"/>
		<path id="XMLID_5_" fill-rule="evenodd" clip-rule="evenodd" fill="#0B2A49" d="M1571.4,760.8c-1.9,16.7-10.4,36.6-18.2,50.7
			c2.8-1.9,5.8-3.4,8.6-5.6c0.7,10.8-5.1,20.1-10.8,28.4c2.1-1,4.6-2.3,6.8-3.6c-3.1,6.7-5.1,14.8-9.2,20.8c2.6-0.6,5.8-0.8,8.7-1.8
			c-2.8,7.8-7.3,15.6-12.7,22.1c2.5-1.6,5.6-3.1,8-4.9c-3.7,8.3-8.5,17-13,25.2c-0.9,0.8-0.9,0.7-0.1-0.1c3.3-2.6,7.6-4.4,10.9-7.2
			c-4.7,10.2-12.8,18.8-18.9,28.4c0.5-0.5,8.4-5.1,11.4-7.4c-4.8,7.1-13.8,18.5-17.3,23.2c4.9-2.9,10.3-4.5,15-7.9
			c-6.1,6.8-12.6,13.1-19.1,19.5c7.8-0.2,15.4-2.8,21.7-7.3c0.1,2.8,0.8,6.1,0.9,8.7c2.4-3.6,8.6-6.6,11.3-10.6
			c0.9,2.9,3.2,6.9,3.8,8.8c1.7-0.3,1.8-5.3,2.9-6.3c2.6,1.1,3.4,5.6,6.4,6.3c-0.1-2.2-0.1-6.6,0.3-8.8c2.4,4.1,6.6,7,9,10.8
			c-0.6-3.8,0.7-9,0.2-13.2c3.2,2.2,8.6,4.1,11.3,6.3c0-2.1-0.4-6.8,0.2-8.7c4.9,5.3,11.6,8,16,11.1c-3-4.4-5.4-11.4-8.7-15.9
			c5,4.4,11.2,8.7,15.4,13.6c-3.4-9-10.1-20.2-13.6-30.9c2.7,3.1,6.6,6.1,9,8.8c-1.5-8.4-5.8-16.1-9.5-24.1
			c-0.8-0.9-0.9-0.9-0.1,0.1c2.3,2.1,5.4,4.9,7.2,6.7c-1.8-7.7-6.5-16.1-8.4-23.5c2.3,1.8,4.5,3.8,6.8,5.6
			c-4.4-7.1-8.7-14.5-13.1-21.4c1.2-4.6,3.2-8.2,1.7-16.2c2.1,1,4.5,2.5,6.1,3.7c-2.5-4-4.5-11.1-8.5-15.8c1.2,0.8,2.6,1.2,4,1.1
			c-2.2-6.4-3.5-12.7-8.5-18.5c0,0,3.7,3.6,3.8,3.8c-1.4-6.6-3.3-14.9-6.7-21c0.7,0.3,3.6,3.3,4.5,3.9
			c-4.9-11.9-14.5-21.1-11.1-36.7"/>
	</g>
	<g id="XMLID_44_">
		<rect id="XMLID_12_" x="1495.6" y="906.6" fill-rule="evenodd" clip-rule="evenodd" fill="#0B2A49" width="11.6" height="105.2"/>
		<path id="XMLID_13_" fill-rule="evenodd" clip-rule="evenodd" fill="#0F4673" d="M1500.2,665.1c-2,26.4-10.5,58-18.4,80.2
			c2.8-3.1,5.9-5.3,8.7-8.9c0.8,17.1-5.1,31.7-10.9,44.9c2.1-1.7,4.6-3.7,6.8-5.7c-3.1,10.6-5.2,23.4-9.3,32.9
			c2.6-1,5.9-1.2,8.8-2.8c-2.8,12.4-7.4,24.8-12.8,35c2.5-2.5,5.7-4.9,8.1-7.8c-3.8,13.1-8.6,26.9-13.2,39.9
			c-0.9,1.2-0.9,1.2-0.1-0.2c3.3-4.1,7.7-6.9,11-11.5c-4.8,16.2-12.9,29.8-19.1,44.9c0.5-0.7,8.5-8,11.6-11.7
			c-4.9,11.4-14,29.3-17.5,36.7c5-4.5,10.5-7.1,15.1-12.4c-6.2,10.8-12.7,20.8-19.3,30.9c7.9-0.4,15.6-4.4,21.9-11.5
			c0.1,4.4,0.8,9.6,0.9,13.8c2.4-5.8,8.7-10.5,11.4-16.7c0.9,4.5,3.2,10.9,3.9,13.8c1.7-0.5,1.8-8.4,2.9-10c2.7,1.7,3.4,8.9,6.5,9.9
			c-0.1-3.4-0.1-10.5,0.3-14c2.4,6.6,6.7,11,9.1,17.1c-0.6-6,0.7-14.2,0.2-20.8c3.2,3.5,8.7,6.5,11.4,9.9c0-3.2-0.4-10.8,0.2-13.8
			c4.9,8.3,11.7,12.7,16.2,17.6c-3-7-5.5-18.1-8.8-25.2c5,7,11.3,13.7,15.6,21.5c-3.4-14.2-10.3-32.1-13.8-49
			c2.7,4.9,6.7,9.7,9.1,13.9c-1.6-13.2-5.8-25.5-9.6-38.1c-0.8-1.5-0.9-1.4-0.1,0.1c2.3,3.3,5.5,7.7,7.3,10.6
			c-1.8-12.1-6.5-25.4-8.5-37.1c2.3,2.8,4.5,6,6.8,8.9c-4.4-11.3-8.8-23-13.2-33.9c1.2-7.3,3.2-12.9,1.8-25.6c2.1,1.5,4.6,4,6.2,5.9
			c-2.6-6.4-4.6-17.6-8.6-25.1c1.2,1.3,2.6,1.8,4,1.7c-2.2-10.2-3.5-20.2-8.6-29.3c0,0,3.8,5.7,3.9,5.9c-1.4-10.5-3.3-23.5-6.8-33.3
			c0.7,0.5,3.7,5.2,4.5,6.2c-4.9-18.9-14.7-33.4-11.3-58.1"/>
	</g>
</g>
<g id="XMLID_47_">
	<rect id="XMLID_14_" x="1647.6" y="862.2" fill-rule="evenodd" clip-rule="evenodd" fill="#321A18" width="20.5" height="185.7"/>
	<path id="XMLID_15_" fill-rule="evenodd" clip-rule="evenodd" fill="#013333" d="M1655.8,435.8c-3.5,46.7-18.6,102.4-32.4,141.6
		c5-5.4,10.4-9.4,15.4-15.6c1.3,30.2-9,56-19.3,79.3c3.8-2.9,8.2-6.6,12.1-10.1c-5.5,18.8-9.2,41.2-16.4,58.1
		c4.6-1.7,10.4-2.1,15.6-5c-5,21.9-13,43.7-22.6,61.9c4.5-4.5,10.1-8.6,14.2-13.7c-6.7,23.1-15.2,47.4-23.3,70.5
		c-1.6,2.2-1.6,2.1-0.1-0.4c5.8-7.2,13.7-12.2,19.5-20.3c-8.4,28.6-22.9,52.7-33.7,79.3c0.9-1.2,15.1-14.2,20.4-20.6
		c-8.6,20-24.6,51.6-30.9,64.7c8.8-7.9,18.5-12.6,26.7-21.9c-10.9,19.1-22.4,36.7-34,54.6c14-0.6,27.5-7.8,38.7-20.3
		c0.3,7.7,1.5,16.9,1.6,24.4c4.3-10.2,15.3-18.5,20.1-29.5c1.6,8,5.7,19.3,6.9,24.4c3-0.8,3.2-14.9,5.1-17.6
		c4.7,2.9,6,15.7,11.5,17.5c-0.2-6.1-0.2-18.5,0.5-24.7c4.3,11.6,11.9,19.5,16.1,30.2c-1.1-10.6,1.2-25.2,0.3-36.8
		c5.7,6.2,15.4,11.4,20.2,17.5c0-5.7-0.7-19.1,0.3-24.4c8.7,14.6,20.7,22.4,28.6,31.1c-5.4-12.4-9.7-31.9-15.6-44.5
		c8.9,12.4,20,24.2,27.6,38c-6.1-25.1-18.1-56.6-24.3-86.5c4.8,8.6,11.8,17.1,16.1,24.6c-2.7-23.4-10.3-45-16.9-67.2
		c-1.5-2.6-1.5-2.5-0.1,0.2c4.1,5.8,9.6,13.6,12.9,18.7c-3.2-21.4-11.5-44.8-15.1-65.5c4.1,4.9,8,10.5,12.1,15.6
		c-7.8-20-15.6-40.6-23.4-59.8c2.1-12.9,5.7-22.8,3.1-45.2c3.8,2.7,8.1,7.1,10.9,10.3c-4.5-11.2-8.1-31.1-15.2-44.2
		c2.2,2.2,4.6,3.2,7.1,3c-4-18-6.2-35.6-15.2-51.6c0,0,6.6,10.1,6.9,10.5c-2.5-18.5-5.9-41.5-12-58.8c1.2,0.9,6.5,9.2,8,10.9
		c-8.7-33.3-25.9-59-19.9-102.6"/>
	<g id="XMLID_28_">
		<rect id="XMLID_2_" x="1751.9" y="920.7" fill-rule="evenodd" clip-rule="evenodd" fill="#321A18" width="18.5" height="106.8"/>
		<path id="XMLID_3_" fill-rule="evenodd" clip-rule="evenodd" fill="#023333" d="M1759.3,675.5c-3.1,26.8-16.7,58.9-29.2,81.4
			c4.5-3.1,9.3-5.4,13.8-9c1.2,17.4-8.1,32.2-17.3,45.6c3.4-1.7,7.4-3.8,10.9-5.8c-4.9,10.8-8.3,23.7-14.7,33.4
			c4.1-1,9.3-1.2,14-2.9c-4.5,12.6-11.7,25.1-20.4,35.6c4-2.6,9.1-4.9,12.8-7.9c-6,13.3-13.6,27.3-20.9,40.5
			c-1.5,1.3-1.5,1.2-0.1-0.2c5.3-4.2,12.3-7,17.5-11.7c-7.6,16.5-20.6,30.3-30.3,45.6c0.8-0.7,13.6-8.2,18.3-11.9
			c-7.8,11.5-22.2,29.7-27.8,37.2c7.9-4.6,16.6-7.2,24.1-12.6c-9.9,11-20.2,21.1-30.6,31.4c12.6-0.4,24.7-4.5,34.9-11.7
			c0.2,4.4,1.3,9.7,1.4,14c3.9-5.8,13.8-10.6,18.1-17c1.5,4.6,5.2,11.1,6.2,14c2.7-0.5,2.8-8.5,4.6-10.1c4.2,1.7,5.4,9,10.3,10.1
			c-0.2-3.5-0.1-10.6,0.5-14.2c3.9,6.6,10.7,11.2,14.5,17.4c-1-6.1,1.1-14.5,0.3-21.1c5.1,3.6,13.8,6.6,18.2,10.1
			c0-3.3-0.6-11,0.3-14c7.9,8.4,18.7,12.9,25.7,17.9c-4.8-7.1-8.7-18.3-14-25.6c8,7.1,18,13.9,24.8,21.8
			c-5.5-14.5-16.3-32.5-21.8-49.7c4.3,5,10.6,9.8,14.5,14.2c-2.5-13.5-9.2-25.9-15.2-38.6c-1.3-1.5-1.4-1.5-0.1,0.1
			c3.7,3.3,8.7,7.8,11.6,10.8c-2.9-12.3-10.4-25.8-13.6-37.7c3.7,2.8,7.2,6,10.9,9c-7-11.5-14.1-23.4-21-34.4
			c1.9-7.4,5.2-13.1,2.8-26c3.4,1.5,7.3,4.1,9.9,5.9c-4.1-6.5-7.3-17.9-13.6-25.4c2,1.3,4.1,1.9,6.4,1.7
			c-3.6-10.4-5.6-20.4-13.7-29.7c0,0,6,5.8,6.2,6c-2.3-10.7-5.3-23.9-10.8-33.8c1.1,0.5,5.9,5.3,7.2,6.3
			c-7.9-19.2-23.3-33.9-17.9-59"/>
	</g>
</g>
<g id="XMLID_1_">
	<g id="XMLID_41_">
		<rect id="XMLID_10_" x="1364.4" y="878.1" fill-rule="evenodd" clip-rule="evenodd" fill="#321A18" width="21" height="173"/>
		<path id="XMLID_11_" fill-rule="evenodd" clip-rule="evenodd" fill="#023333" d="M1372.8,480.9c-3.5,43.5-19.1,95.4-33.3,131.9
			c5.1-5,10.6-8.7,15.8-14.5c1.4,28.1-9.3,52.2-19.8,73.8c3.9-2.7,8.4-6.1,12.4-9.4c-5.6,17.5-9.4,38.4-16.8,54.1
			c4.7-1.6,10.6-2,16-4.6c-5.1,20.4-13.3,40.7-23.2,57.6c4.6-4.2,10.3-8,14.6-12.8c-6.9,21.5-15.6,44.2-23.9,65.6
			c-1.7,2.1-1.7,1.9-0.1-0.3c6-6.7,14-11.4,20-18.9c-8.6,26.7-23.5,49-34.6,73.9c0.9-1.2,15.5-13.3,20.9-19.2
			c-8.8,18.7-25.3,48.1-31.7,60.3c9-7.4,19-11.7,27.4-20.4c-11.2,17.8-23,34.1-34.9,50.9c14.4-0.6,28.2-7.2,39.8-18.9
			c0.3,7.2,1.5,15.8,1.6,22.7c4.4-9.5,15.7-17.2,20.6-27.5c1.7,7.4,5.9,18,7,22.8c3-0.7,3.2-13.8,5.3-16.4
			c4.8,2.7,6.1,14.6,11.8,16.3c-0.2-5.7-0.2-17.3,0.5-23c4.4,10.8,12.2,18.1,16.5,28.1c-1.2-9.9,1.3-23.4,0.3-34.2
			c5.8,5.8,15.8,10.6,20.7,16.3c0-5.4-0.7-17.8,0.3-22.7c8.9,13.6,21.3,20.9,29.3,29c-5.5-11.6-10-29.7-16-41.4
			c9.1,11.5,20.5,22.6,28.3,35.4c-6.2-23.4-18.6-52.8-24.9-80.6c4.9,8,12.1,16,16.5,22.9c-2.8-21.8-10.5-41.9-17.3-62.6
			c-1.5-2.4-1.6-2.4-0.1,0.2c4.2,5.4,9.9,12.7,13.2,17.4c-3.3-19.9-11.9-41.8-15.5-61c4.2,4.5,8.2,9.8,12.4,14.6
			c-8-18.6-16-37.8-24-55.8c2.2-12,5.9-21.2,3.2-42.1c3.9,2.5,8.3,6.6,11.2,9.6c-4.6-10.5-8.3-29-15.6-41.2c2.2,2.1,4.7,3,7.3,2.8
			c-4.1-16.8-6.4-33.1-15.6-48.1c0,0,6.8,9.4,7,9.8c-2.6-17.3-6.1-38.7-12.3-54.8c1.3,0.8,6.6,8.6,8.2,10.2
			c-9-31.1-26.6-55-20.4-95.6"/>
	</g>
	<g id="XMLID_38_">
		<rect id="XMLID_8_" x="1223.4" y="919.7" fill-rule="evenodd" clip-rule="evenodd" fill="#321A18" width="14.7" height="105.3"/>
		<path id="XMLID_9_" fill-rule="evenodd" clip-rule="evenodd" fill="#023333" d="M1229.2,677.9c-2.5,26.5-13.3,58.1-23.3,80.3
			c3.6-3.1,7.4-5.3,11-8.8c1,17.1-6.5,31.8-13.8,44.9c2.7-1.6,5.9-3.7,8.7-5.7c-3.9,10.7-6.6,23.4-11.8,32.9c3.3-1,7.4-1.2,11.2-2.8
			c-3.6,12.4-9.3,24.8-16.3,35.1c3.2-2.6,7.2-4.9,10.2-7.8c-4.8,13.1-10.9,26.9-16.7,40c-1.2,1.2-1.2,1.2-0.1-0.2
			c4.2-4.1,9.8-6.9,14-11.5c-6,16.3-16.4,29.8-24.2,45c0.6-0.7,10.8-8.1,14.6-11.7c-6.2,11.3-17.7,29.3-22.2,36.7
			c6.3-4.5,13.3-7.1,19.2-12.4c-7.9,10.8-16.1,20.8-24.4,31c10.1-0.4,19.7-4.4,27.8-11.5c0.2,4.4,1,9.6,1.1,13.9
			c3.1-5.8,11-10.5,14.4-16.8c1.2,4.5,4.1,11,4.9,13.9c2.1-0.5,2.3-8.4,3.7-10c3.4,1.7,4.3,8.9,8.3,9.9c-0.1-3.4-0.1-10.5,0.4-14
			c3.1,6.6,8.5,11.1,11.5,17.1c-0.8-6,0.9-14.3,0.2-20.8c4.1,3.5,11,6.5,14.5,9.9c0-3.3-0.5-10.8,0.2-13.8
			c6.3,8.3,14.9,12.7,20.5,17.6c-3.9-7-7-18.1-11.2-25.2c6.4,7,14.4,13.7,19.8,21.5c-4.4-14.3-13-32.1-17.4-49
			c3.4,4.9,8.4,9.7,11.5,13.9c-2-13.3-7.4-25.5-12.1-38.1c-1.1-1.4-1.1-1.4-0.1,0.1c2.9,3.3,6.9,7.7,9.3,10.6
			c-2.3-12.2-8.3-25.4-10.8-37.2c3,2.8,5.7,6,8.7,8.9c-5.6-11.3-11.2-23-16.8-33.9c1.5-7.3,4.1-12.9,2.2-25.6c2.7,1.5,5.8,4,7.9,5.9
			c-3.2-6.4-5.8-17.7-10.9-25.1c1.6,1.3,3.3,1.9,5.1,1.7c-2.8-10.2-4.5-20.2-10.9-29.3c0,0,4.7,5.7,4.9,5.9
			c-1.8-10.5-4.3-23.5-8.6-33.4c0.9,0.5,4.7,5.2,5.7,6.2c-6.3-18.9-18.6-33.5-14.3-58.2"/>
	</g>
</g>
</svg>
