<svg xmlns="http://www.w3.org/2000/svg" xmlns:xlink="http://www.w3.org/1999/xlink" width="1920" height="1080" viewBox="0 0 1920 1080"><defs><style>.a{clip-path:url(#b);}.b{fill:#ffefcf;}.c{fill:#006c87;}.d{fill:#006680;}.e{fill:#bdd5ff;}.f{fill:#005469;}.g{fill:#ffc79b;}.h{fill:#ffaf70;}.i{fill:#93aedb;}.j{fill:#fecfaa;}.k{fill:#f0f6ff;}.l{fill:#cf210d;}.m{fill:#c41f0d;}.n{fill:#de5949;}.o{fill:#703c00;}.p{fill:#fffef7;}.q{fill:#ffbc87;}.r{fill:#ffcca3;}.s{fill:#eb9857;}.t{fill:#fff;}</style><clipPath id="b"><rect width="1920" height="1080"/></clipPath></defs><g id="a" class="a"><rect class="t" width="1920" height="1080"/><g transform="translate(1063.795 287.225)"><path class="b" d="M1767.08-1022.607l9.191-15.694,9.191,15.694-9.191,15.691Zm9.191-22.1-12.942,22.1,12.942,22.1,12.943-22.1-12.943-22.1" transform="translate(-1520.976 1387.969)"/><path class="c" d="M976.371-581.3a28.962,28.962,0,0,1-26.166-8.554c-11.734,2.875-22.236,9.846-34.116,12.033-8.805,1.622-17.922.51-26.587-1.74-8.452-2.2-16.791-5.5-25.524-5.5-7.013,0-14.018,2.148-20.956,1.13-8.848-1.3-15.856-7.37-21.953-14.19-.451,2.6-.837,5.219-1.245,7.844a31.866,31.866,0,0,1-2,7.249c-.909,2.22-1.937,4.389-2.649,6.687-1.479,4.766-2.144,9.8-3.158,14.682q-3.085,14.852-7.156,29.473c-2.658,9.548-5.91,18.935-8.34,28.546a98.551,98.551,0,0,0-2.623,14.223q-.181,1.794-.272,3.6a7.6,7.6,0,0,0,.171,3.063c.591,1.531,2.371,1.942,3.814,2.2a306.811,306.811,0,0,0,30.571,3.866c9.476.734,19.239,1.477,28.67-.091a46.334,46.334,0,0,0,6.817-1.646,26.323,26.323,0,0,0,5.884-2.561,12.218,12.218,0,0,0,4.036-4.561c1.225-2.154,2.415-4.325,3.6-6.5q7.171-13.107,13.75-26.525,6.231-12.708,11.917-25.674a20.423,20.423,0,0,0,5.679,3.087q.777,13.356,1.554,26.713.47,8.074.94,16.15l.47,8.077c.116,1.993.154,4.123,1.27,5.86,1.918,2.984,5.859,3.745,9.118,4.177,5.132.674,10.294,1.145,15.456,1.48,5.117.332,10.257.565,15.383.507a39.952,39.952,0,0,0,12.728-1.8,21.157,21.157,0,0,0,9.554-6.708,36.092,36.092,0,0,0,5.5-10.23c1.565-4.192,2.782-8.539,3.924-12.861a56.578,56.578,0,0,0,2.087-14.909c-.033-5.213-.589-10.405-.474-15.625a141.93,141.93,0,0,1,1.4-15.915c1.432-10.52,3.129-21.007,4.709-31.506.157-1.036.314-2.069.468-3.1a28.908,28.908,0,0,1-16.256,9.548" transform="translate(-770.885 1042.55)"/><path class="d" d="M936.977-754.136c6.939,1.018,13.943-1.127,20.956-1.13,8.732,0,17.072,3.3,25.524,5.5,8.665,2.25,17.782,3.362,26.587,1.74,11.879-2.187,22.381-9.158,34.116-12.033a28.963,28.963,0,0,0,26.166,8.554,28.907,28.907,0,0,0,16.256-9.547q.943-6.257,1.888-12.511c.7-4.663,1.45-9.321,1.93-14.015.858-8.354.951-17.183-2.283-25.085a29.779,29.779,0,0,0-2.918-5.437.138.138,0,0,0-.214-.036,120.8,120.8,0,0,1-26.613,19.829,148.4,148.4,0,0,1-30.866,12.689,190.725,190.725,0,0,1-36.646,6.569,285.37,285.37,0,0,1-38.2.489,123.407,123.407,0,0,1-16.45-1.507,36.391,36.391,0,0,1-8.991-2.755c-2.157-1.021-4.84-4.093-7.252-2.368-2.835,2.027-2.9,7.391-3.642,10.466-.516,2.126-.93,4.259-1.3,6.4,6.1,6.82,13.105,12.891,21.953,14.19" transform="translate(-864.84 1212.758)"/><path class="e" d="M916.187-1526.507c3.5-2.419,6.293-6.125,10.41-7.188,5.592-1.447,11,2.513,16.6,3.92a19.667,19.667,0,0,0,21.17-8.925,19.665,19.665,0,0,0-2.7-22.816c-4.588,4.229-11.037,5.709-17.229,6.485-5.624.71-11.281,1.057-16.705,2.836-4.889,1.607-9.351,4.192-14.4,5.5a54,54,0,0,1-31.249-1.525c-11.667-4.072-20.24-14.438-25.171-25.771s-6.749-23.722-8.815-35.907-4.511-24.553-10.514-35.354c2.582,16.053,5.167,32.43,2.648,48.5s-11.04,32.059-25.536,39.429c6.441-.809,13.481-1.462,19.421.6,0-.1.013-.19.016-.287.005-.148.008-.293.012-.438a24.445,24.445,0,0,0,9.024-11.665c1.995-5.418,2.295-11.16,2.334-16.893.346,1.574.667,3.153.98,4.733.63,3.172,1.233,6.349,1.961,9.5.738,3.2,1.853,6.319,2.459,9.542.665,3.537-.1,6.965-.63,10.46q-.785,5.165-1.3,10.363a198.588,198.588,0,0,0-.946,20.862q.067,9.166.989,18.295c12.371-10.215,27.364-17.446,43.28-19.125,8.2-.864,17.1-.447,23.887-5.135" transform="translate(-787.239 1852.471)"/><path class="f" d="M1521.782-572.706c-.03-.018-.172.109-.42.369-.121.13-.269.293-.444.483s-.39.4-.616.643-.507.492-.794.779-.631.568-.991.876a23.869,23.869,0,0,1-2.6,1.876,21.832,21.832,0,0,1-3.458,1.716,19.453,19.453,0,0,1-4.259,1.124,16.813,16.813,0,0,1-4.836.027,19.33,19.33,0,0,1-4.99-1.4,19.315,19.315,0,0,1-4.392-2.709,16.072,16.072,0,0,1-3.21-3.549,16.985,16.985,0,0,1-1.921-3.9c-.054-.166-.109-.332-.16-.5-.393.175-.789.278-1.19.48.027.1.1.311.127.408a17.31,17.31,0,0,0,1.957,4.283,16.9,16.9,0,0,0,3.443,3.92,18.868,18.868,0,0,0,4.784,2.882,20.012,20.012,0,0,0,5.4,1.371,19.186,19.186,0,0,0,5.171-.154,19.676,19.676,0,0,0,4.476-1.314,20.992,20.992,0,0,0,3.546-1.945,21.734,21.734,0,0,0,2.573-2.108c.347-.347.665-.674.945-.982s.522-.6.731-.876.386-.52.538-.734.263-.414.356-.568c.178-.311.263-.483.232-.5" transform="translate(-1307.633 1026.111)"/><path class="f" d="M1253.626-534.935c0,.027-.012.127-.014.154q-.068.929-.149,2.018c-.047.725-.12,1.5-.189,2.326s-.15,1.691-.241,2.607c-.174,1.83-.412,3.836-.688,6-.3,2.154-.625,4.461-1.058,6.884s-.911,4.975-1.505,7.608-1.259,5.361-2.025,8.146l-.225.815.8.051c.419-.761.811-1.45,1.166-2.063.6-2.268,1.134-4.5,1.6-6.663.582-2.661,1.045-5.234,1.442-7.684s.691-4.781.945-6.959c.23-2.178.414-4.2.529-6.05.061-.924.115-1.8.145-2.631s.071-1.613.082-2.344.033-1.408.033-2.033c0-.112.013-.254.013-.363-.218.063-.439.13-.663.184" transform="translate(-1122.024 993.822)"/><path class="f" d="M1275.523-533.718c-.272,2.229-.592,5.092-.96,8.469-.227,2.135-.477,4.476-.746,6.989a43.807,43.807,0,0,1-1.426,7.823,18.616,18.616,0,0,1-1.636,3.893,14.535,14.535,0,0,1-2.7,3.41,15.086,15.086,0,0,1-3.733,2.534,19.222,19.222,0,0,1-4.42,1.519c-.256.057-.51.115-.769.151s-.515.081-.771.124-.516.054-.773.082l-.386.039-.386.021-.77.036c-.256,0-.512,0-.767-.006l-.266,0q-.311.63-.662,1.344a.865.865,0,0,0,.089.006l.406.027.408,0c.272,0,.545,0,.819.006.273-.015.547-.027.822-.039l.412-.024.412-.042c.275-.03.55-.054.826-.091s.548-.088.823-.133.548-.1.821-.163a19.268,19.268,0,0,0,4.727-1.67,17.633,17.633,0,0,0,4-2.806,15.619,15.619,0,0,0,2.9-3.727,19.7,19.7,0,0,0,1.7-4.156,43.526,43.526,0,0,0,1.341-8.052c.223-2.525.414-4.869.589-7.01.284-3.516.535-6.4.689-8.675-.2.076-.414.063-.61.121" transform="translate(-1127.302 992.832)"/><path class="f" d="M1138.176-372.719c-.782,1.426-1.662,3.108-2.593,5.029-.812,1.676-1.66,3.531-2.515,5.549-.423,1.012-.858,2.057-1.276,3.147l-.639,1.655q-.31.847-.628,1.713c-.837,2.314-1.672,4.757-2.517,7.288s-1.715,5.156-2.644,7.823-1.877,5.253-2.889,7.711-2.057,4.793-3.175,6.959c-.271.544-.571,1.066-.849,1.592-.141.26-.281.52-.42.776l-.435.755c-.575,1-1.168,1.954-1.749,2.869-1.174,1.824-2.337,3.483-3.43,4.975s-2.115,2.818-3.021,3.978l-2.338,2.969c-.645.813-1.142,1.45-1.47,1.888a3.218,3.218,0,0,0-.472.692,3.34,3.34,0,0,0,.612-.574c.384-.39.934-.982,1.629-1.752,1.392-1.544,3.378-3.806,5.667-6.742,1.143-1.471,2.358-3.114,3.584-4.935.606-.912,1.227-1.867,1.828-2.869.151-.254.3-.5.454-.761s.292-.519.439-.779c.291-.529.6-1.054.886-1.6,1.165-2.178,2.257-4.534,3.3-7s2.026-5.071,2.97-7.747,1.821-5.3,2.664-7.835,1.661-4.969,2.473-7.279c.2-.574.406-1.145.606-1.707s.409-1.109.61-1.652c.4-1.087.809-2.132,1.209-3.144.807-2.018,1.6-3.881,2.356-5.57s1.467-3.2,2.107-4.528l.406-.837-.721-.045-.025,0" transform="translate(-1011.869 868.211)"/><path class="f" d="M1252.353-381.059l-.32-.021c.067-.251.13-.5.2-.746-.355.613-.747,1.3-1.166,2.063l.025,0,.72.045q.349-.716.662-1.344h-.117" transform="translate(-1124.754 875.255)"/><path class="f" d="M1292.889-376.374a7.4,7.4,0,0,1,2.131.459l1.11.32c.407.109.856.208,1.333.329.959.227,2.032.547,3.252.767q.907.19,1.9.4c.661.136,1.359.223,2.075.344l1.093.175c.184.027.372.063.559.088s.381.042.574.06q1.151.131,2.371.266c.4.054.819.066,1.236.094l1.266.082,1.29.082,1.32.018,1.344.018c.227,0,.453.006.68.012s.456-.015.686-.021c.915-.033,1.845-.063,2.785-.1.939-.072,1.866-.148,2.782-.22.229-.021.456-.033.683-.057s.45-.06.674-.088l1.335-.172c.438-.057.876-.112,1.308-.169.429-.076.855-.154,1.274-.23s.84-.148,1.251-.224.822-.133,1.217-.236q1.2-.276,2.326-.538l.565-.127c.184-.048.365-.1.546-.154.36-.1.716-.2,1.066-.3.7-.2,1.383-.369,2.027-.583l1.843-.616c1.187-.365,2.214-.812,3.138-1.16.459-.181.891-.338,1.284-.5l1.057-.462a11.057,11.057,0,0,1,2.024-.791,11.017,11.017,0,0,1-1.864,1.121l-1.021.559c-.381.2-.8.384-1.253.6-.906.411-1.921.921-3.1,1.353q-.879.34-1.833.716c-.64.245-1.326.444-2.027.68-.35.115-.707.23-1.069.35-.181.057-.365.121-.55.172s-.377.1-.568.151l-2.347.616c-.4.115-.815.184-1.232.275s-.84.169-1.266.257-.858.175-1.293.263l-1.329.2-1.356.2c-.227.033-.456.066-.686.1s-.462.045-.695.066c-.93.088-1.875.175-2.83.263q-1.44.054-2.842.1c-.236.006-.468.018-.7.021s-.462-.009-.692-.015c-.462-.006-.918-.015-1.371-.024l-1.344-.027c-.444-.033-.882-.066-1.317-.1s-.864-.066-1.29-.1-.846-.054-1.257-.118l-2.41-.317c-.194-.027-.387-.051-.58-.079s-.381-.069-.568-.1l-1.108-.211c-.725-.145-1.432-.257-2.1-.42l-1.913-.483c-1.224-.287-2.3-.671-3.244-.976-.472-.16-.914-.3-1.314-.45s-.756-.311-1.081-.444a7.23,7.23,0,0,1-1.956-.97" transform="translate(-1157.105 873.542)"/><path class="f" d="M1032.5-334.76c-.016-.088.564-.287,1.621-.571.53-.139,1.176-.311,1.926-.507s1.608-.4,2.549-.661l1.479-.39c.514-.136,1.045-.293,1.6-.444,1.106-.3,2.276-.655,3.513-1.015.618-.181,1.244-.387,1.888-.586l.975-.3c.326-.109.655-.217.988-.329,1.333-.429,2.7-.918,4.1-1.407,1.392-.52,2.755-1.012,4.056-1.534l.97-.378q.476-.2.944-.39c.622-.26,1.237-.5,1.828-.758,1.181-.513,2.309-.991,3.349-1.474.521-.239,1.029-.459,1.51-.689s.942-.447,1.383-.655c.887-.408,1.672-.809,2.372-1.145s1.3-.634,1.789-.876a5.468,5.468,0,0,1,1.58-.655c.035.06-.458.417-1.381,1.012-.46.3-1.03.655-1.705,1.042s-1.436.849-2.3,1.311q-.647.349-1.355.734c-.472.254-.973.5-1.487.761-1.025.535-2.143,1.057-3.317,1.613-.588.278-1.2.541-1.82.819q-.467.2-.943.417l-.971.4c-1.3.553-2.669,1.075-4.072,1.61-1.412.5-2.791,1-4.14,1.426q-.5.168-1,.326c-.332.1-.662.2-.988.3-.653.193-1.289.393-1.915.562-1.255.341-2.446.667-3.573.924-.563.13-1.1.266-1.629.378l-1.51.314c-.96.205-1.839.344-2.608.477s-1.436.217-1.983.275c-1.093.124-1.7.154-1.718.066" transform="translate(-955.704 850.281)"/><path class="f" d="M921.3-600.233c.041-.018.144.079.3.278s.365.507.659.885l.459.643c.172.229.359.48.56.749s.427.547.659.846.5.6.767.924c.544.64,1.178,1.3,1.878,2,.717.674,1.487,1.389,2.36,2.069a28.439,28.439,0,0,0,2.841,1.978,29.288,29.288,0,0,0,3.29,1.722,29.161,29.161,0,0,0,3.5,1.247,28.062,28.062,0,0,0,3.391.74,30.278,30.278,0,0,0,3.135.317c.988.033,1.912.036,2.754-.009.421-.027.824-.039,1.2-.085s.739-.054,1.072-.106l.932-.118.782-.124c.473-.066.833-.151,1.087-.181s.389-.036.4,0-.108.1-.342.2a10.5,10.5,0,0,1-1.046.384l-.772.229c-.284.079-.6.148-.932.23a21.2,21.2,0,0,1-2.309.4,26.674,26.674,0,0,1-2.841.19,27.049,27.049,0,0,1-3.273-.169,26.167,26.167,0,0,1-3.57-.652,27.69,27.69,0,0,1-3.7-1.241,27.754,27.754,0,0,1-3.473-1.794,25.888,25.888,0,0,1-2.96-2.117l-.655-.553c-.212-.187-.413-.38-.615-.565-.41-.365-.768-.761-1.13-1.127a25.951,25.951,0,0,1-1.827-2.2c-.256-.353-.5-.686-.713-1.021s-.421-.634-.587-.939-.334-.577-.47-.843l-.352-.728a9.673,9.673,0,0,1-.4-1.048c-.077-.245-.1-.384-.058-.4" transform="translate(-869.679 1044.187)"/><path class="f" d="M1533.61-544.928c.078.042-.124.586-.562,1.546-.112.242-.233.507-.369.8s-.317.589-.5.915c-.369.649-.767,1.411-1.3,2.19-.257.4-.526.813-.81,1.244s-.616.852-.942,1.3c-.64.909-1.414,1.812-2.214,2.776-.4.477-.858.93-1.3,1.414-.224.239-.45.48-.68.722s-.486.465-.731.7l-.746.71c-.124.121-.25.242-.377.363s-.263.229-.4.344c-.534.456-1.078.921-1.625,1.392l-1.7,1.3c-.142.106-.278.214-.42.317s-.287.2-.429.3c-.287.2-.571.39-.852.583s-.559.384-.834.571-.571.347-.849.52c-.565.332-1.1.686-1.652.982-1.1.589-2.142,1.169-3.165,1.61-.508.226-.988.465-1.468.655l-1.38.538c-.873.359-1.7.592-2.41.822-.356.109-.688.217-1,.3l-.855.2a4.652,4.652,0,0,1-1.631.229c-.021-.078.508-.332,1.471-.731.242-.1.51-.2.806-.314s.607-.263.945-.408c.677-.3,1.459-.592,2.29-1.006l1.314-.619c.456-.214.912-.477,1.4-.725.242-.124.487-.254.734-.384s.5-.266.746-.414c.5-.29,1.018-.586,1.543-.891s1.042-.661,1.585-1l.813-.52q.4-.285.806-.571c.269-.19.544-.384.819-.58l.414-.29c.139-.1.272-.208.408-.314q.811-.63,1.643-1.275c.535-.456,1.063-.909,1.586-1.353.13-.112.263-.217.39-.332s.248-.232.369-.347c.248-.23.492-.459.734-.683l.722-.674c.227-.233.453-.462.674-.692.444-.459.9-.891,1.3-1.344.813-.909,1.61-1.755,2.28-2.61.341-.423.689-.816.994-1.22s.6-.788.873-1.16c.577-.725,1.027-1.432,1.456-2.033.208-.305.414-.58.589-.843s.332-.507.474-.725c.577-.87.933-1.335,1.015-1.293" transform="translate(-1319.172 1001.411)"/><g transform="translate(108.565 21.721)"><path class="g" d="M1259.428-2423.549c.6-8.966-2.986-15.9-7.021-24.042-3.557-7.177-15.255-16.177-22.875-18.907-4.534-1.625-9.248.647-14.005,0-4.612-.624-4.073.891-8.636,1.867-4.212.9-8.486,3.822-12.121,6.134-3.509,2.23-6.949,5.108-9,8.784a21.664,21.664,0,0,0-2.129,6.455c-.476,2.436-2.947,6.526-3.369,8.971-.869,5.036-1.07-.663-1.456,4.435-.012.158.011,3.111,0,3.268-.464-.4.507,5.549,0,5.2-.637-.435,0,17.675,0,17.675s-4.173,6.586-3.673,7c1.011.843,5.129,20.551,5.129,20.551s11.586,13.207,16.991,17.949,9.269,6.69,14.9,7.108,12.564,1.62,15.965-1.025,10.71-7.779,13.157-10.928c1.105-1.18,9.781-12.3,8.681-16.32-.2-.723,9.133,4.916,9.459,3.216.59-3.045,2.84-19.469,2.864-19.408,1.155,2.71-.524-2.878,0-4.831,1.319-4.9-4.978-3.9-4.82-8.968.017-.63,2.1-2.354,1.956-2.971" transform="translate(-1172.739 2464.121)"/></g><path class="h" d="M1267.247-2060.381c-3.675,2.646-11.074,3.821-17.158,3.4s-10.262-2.365-16.1-7.107-14.156-19.774-14.156-19.774q-.732,4.8-1.083,9.641,3.155,4.177,6.31,8.358c3.269,4.331,6.631,8.75,11.278,11.822,7.651,5.053,18.352,5.664,26.782,1.813,7.252-3.317,12.363-9.276,17.546-15.154q.4-3.144.793-6.285a118,118,0,0,1-14.211,13.286" transform="translate(-1099.761 2191.723)"/><path class="i" d="M1158.333-1913.5a10.936,10.936,0,0,0-1.123,1.214,7.117,7.117,0,0,0-.692,1.072l0,.009a6,6,0,0,0,.862,1.018l-1.408.453a5.858,5.858,0,0,1,.542-1.48,7.974,7.974,0,0,1-.676-1.223,15.726,15.726,0,0,1-.844-2.461c-.106-.429-.238-.852-.362-1.281s-.219-.87-.339-1.3a28.635,28.635,0,0,0-1.847-4.83c-.687-1.471-1.354-2.83-1.869-4.132a28.259,28.259,0,0,1-1.166-3.721c-.283-1.166-.483-2.241-.65-3.187s-.286-1.773-.413-2.444a8.024,8.024,0,0,0-.469-2.078,7.629,7.629,0,0,0-.073,2.135c.011.683.067,1.519.151,2.492s.217,2.078.438,3.3a26.29,26.29,0,0,0,1.022,3.938c.483,1.384,1.113,2.8,1.743,4.274a29.113,29.113,0,0,1,1.643,4.643c.1.417.208.84.291,1.278s.155.888.275,1.338a15.874,15.874,0,0,0,.91,2.749,9.673,9.673,0,0,0,.828,1.486,7.592,7.592,0,0,0,1.123,1.308l1.1,1.021.308-1.477a4.722,4.722,0,0,1,.9-1.876c.085-.115.177-.224.27-.332l-.081-.314c-.141-.565-.276-1.091-.394-1.586" transform="translate(-1044.883 2078.808)"/><path class="i" d="M1197.408-1878.835c.2-.2.408-.393.622-.577a28.4,28.4,0,0,0,3.414-3.114,6.963,6.963,0,0,0,1.195-1.99,6.632,6.632,0,0,0,.4-2.145c.031-1.359-.161-2.519-.155-3.528a5.256,5.256,0,0,1,.528-2.543,2.742,2.742,0,0,1,1.393-1.229,2.388,2.388,0,0,1,1.208-.157c.286.046.446.1.478.049s-.077-.19-.381-.351a2.3,2.3,0,0,0-1.48-.133,3.229,3.229,0,0,0-1.016.423,3.415,3.415,0,0,0-.959.924,5.879,5.879,0,0,0-.91,2.975c-.082,1.133.039,2.32-.052,3.495a5.387,5.387,0,0,1-.385,1.688,5.65,5.65,0,0,1-1.009,1.537,12.769,12.769,0,0,1-1.52,1.411c-.562.462-1.183.918-1.81,1.447l-.1.091c.012.039.024.079.037.121.157.5.328,1.033.51,1.607" transform="translate(-1082.832 2045.348)"/><path class="i" d="M1185.313-1819.168a6,6,0,0,1-.862-1.018l0-.009a5.843,5.843,0,0,0-.541,1.48l1.408-.453" transform="translate(-1072.811 1987.786)"/><path class="i" d="M1418.649-1878.356a12.167,12.167,0,0,0,.139-1.951,6.738,6.738,0,0,0-.284-1.836,4.057,4.057,0,0,0-1.99-2.531,3.52,3.52,0,0,0-2.386-.242,2.932,2.932,0,0,0-1.3.689,1.25,1.25,0,0,0-.242.293c-.045.072-.057.117-.039.136s.066.009.139-.024.178-.094.314-.16a3.6,3.6,0,0,1,1.235-.363,3.045,3.045,0,0,1,1.882.408,3.234,3.234,0,0,1,1.362,2.078,5.867,5.867,0,0,1,.142,1.553,11.535,11.535,0,0,1-.218,1.749c-.115.619-.26,1.271-.377,1.975-.058.35-.109.716-.139,1.094-.018.19-.018.384-.024.577a5.469,5.469,0,0,0,0,.58,11.406,11.406,0,0,0,.408,2.655c.381-1.5.722-2.836,1.021-4,.066-.9.239-1.788.359-2.676" transform="translate(-1249.648 2037.928)"/><path class="i" d="M1448.314-1804.417c-.211-.36-.423-.716-.625-1.072-.242.335-.483.671-.719,1l1.344.073" transform="translate(-1276.282 1976.411)"/><path class="i" d="M1452.314-1920.247c-.317.634-.661,1.429-1.084,2.341s-.888,1.954-1.429,3.093-1.154,2.377-1.827,3.694-1.41,2.718-2.229,4.168-1.7,2.957-2.664,4.485-1.988,3.1-3.075,4.679c-.35.516-.71,1.024-1.066,1.525-.118.163-.233.32-.347.483.2.356.414.713.625,1.072l-1.344-.073c.236-.329.477-.665.719-1a32.135,32.135,0,0,1-1.667-3.226,13.526,13.526,0,0,1-1.024-3.422c-.208,1-.438,2.084-.692,3.253.094.26.19.517.3.77a38.168,38.168,0,0,0,2.32,4.51l.622,1.072.725-1c.359-.5.731-.991,1.091-1.5s.719-1.027,1.075-1.552c1.093-1.61,2.111-3.217,3.038-4.8s1.785-3.129,2.571-4.621,1.48-2.933,2.108-4.292,1.166-2.649,1.643-3.827.879-2.256,1.22-3.208.622-1.77.816-2.456a13.455,13.455,0,0,0,.571-2.138,15.582,15.582,0,0,0-.991,1.975" transform="translate(-1267.187 2066.701)"/><path class="i" d="M1299.647-1563.036q-.17,1.608-.324,3.286c-.2,2.238-.379,4.558-.555,6.932-.351,4.745-.671,9.264-.932,13.377s-.469,7.82-.656,10.934-.254,5.636-.291,7.382a9.337,9.337,0,0,0,.108,2.721,9.336,9.336,0,0,0,.488-2.679c.208-1.734.483-4.244.745-7.352l.88-10.916c.318-4.111.631-8.632.951-13.377.165-2.371.334-4.685.515-6.914.051-.6.1-1.2.154-1.791q-.366-.521-.872-1.283c-.069-.1-.14-.211-.212-.32" transform="translate(-1160.192 1788.882)"/><path class="i" d="M1314.426-1666.766c-.171.426-.442,1.054-.723,1.882s-.629,1.842-.968,3.038l-.271.927c-.085.32-.171.652-.261.993s-.177.692-.27,1.054-.17.734-.258,1.117-.175.773-.266,1.172-.164.813-.249,1.229c-.175.84-.331,1.713-.489,2.622s-.3,1.845-.455,2.815c-.135.97-.283,1.969-.407,3-.094.734-.181,1.489-.266,2.25.193.35.375.674.541.976.186.335.352.643.5.918.123-1.374.251-2.715.4-4.008.106-1.021.233-2.015.347-2.981.135-.96.241-1.9.385-2.8s.263-1.776.411-2.609l.207-1.227.221-1.172.212-1.115c.076-.363.15-.713.222-1.054s.139-.677.2-1,.145-.631.213-.933c.262-1.205.533-2.232.741-3.078s.394-1.5.5-1.945.145-.689.111-.7-.142.205-.323.631" transform="translate(-1169.988 1869.603)"/><path class="i" d="M1374.637-1818.311c-1.347,5.34-2.978,11.692-4.7,18.772-.858,3.543-1.746,7.261-2.615,11.133q-.322,1.454-.656,2.93c-.211.985-.426,1.981-.64,2.981-.438,2-.831,4.048-1.25,6.11-.782,4.135-1.525,8.183-2.105,12.115-.139.984-.3,1.957-.417,2.927s-.239,1.927-.354,2.875-.223,1.891-.317,2.821-.184,1.849-.272,2.758c-.667,7.27-.973,13.837-1.145,19.346s-.193,9.973-.175,13.054a26.318,26.318,0,0,0,.208,4.791,27.065,27.065,0,0,0,.429-4.775c.157-3.075.384-7.524.667-13.021.3-5.494.7-12.03,1.426-19.258.09-.9.181-1.818.287-2.742s.2-1.861.329-2.8.242-1.894.363-2.854.284-1.927.423-2.906q.422-2.932.934-5.953c.16-1.009.359-2.018.543-3.035s.365-2.045.568-3.072c.411-2.057.792-4.1,1.22-6.092.208-1,.414-1.993.619-2.978s.426-1.96.637-2.927c.84-3.866,1.694-7.59,2.51-11.136,1.646-7.095,3.126-13.483,4.371-18.848.568-2.47,1.066-4.727,1.5-6.741-.151-.423-.287-.849-.4-1.278-.577,2.262-1.244,4.878-1.99,7.8" transform="translate(-1209.006 1992.365)"/><path class="i" d="M1434.451-1842.5a8.653,8.653,0,0,1,.006-1.281c-.3,1.166-.64,2.5-1.021,4,.115.429.251.855.4,1.278.254-1.169.483-2.256.692-3.253-.033-.251-.063-.5-.079-.746" transform="translate(-1265.815 2006.03)"/><path class="i" d="M1221.82-1766.92q-.407-.752-.882-1.628c-.631-1.169-1.372-2.486-2.145-3.969q-.59-1.105-1.233-2.313c-.428-.8-.851-1.652-1.3-2.525-.912-1.74-1.827-3.627-2.808-5.606-.489-.988-.96-2.018-1.459-3.06-.248-.52-.5-1.048-.751-1.58l-.736-1.628c-.49-1.1-1.016-2.2-1.5-3.34l-1.5-3.461-1.436-3.489c-.481-1.145-.905-2.289-1.351-3.4-.22-.559-.439-1.111-.656-1.661s-.412-1.1-.614-1.64c-.4-1.082-.814-2.135-1.185-3.175-.739-2.081-1.46-4.05-2.077-5.914-.313-.93-.631-1.824-.912-2.691l-.808-2.495c-.531-1.583-.959-3.032-1.363-4.3-.017-.054-.033-.106-.05-.157-.229.224-.447.453-.65.692.31,1.214.65,2.579,1.084,4.06.231.806.473,1.652.725,2.531s.548,1.788.839,2.73c.572,1.888,1.257,3.881,1.969,5.984.357,1.051.758,2.117,1.15,3.211q.3.816.6,1.655.321.825.648,1.674c.444,1.12.87,2.274,1.354,3.425l1.453,3.5,1.526,3.473c.494,1.145,1.031,2.25,1.533,3.35l.756,1.628q.391.8.773,1.58c.515,1.042,1,2.069,1.511,3.057,1.019,1.969,1.978,3.848,2.94,5.57.476.864.924,1.7,1.38,2.5s.9,1.552,1.317,2.28c.828,1.459,1.642,2.74,2.338,3.875.352.565.676,1.094.984,1.574.23.351.447.677.647.982.032-.308.067-.607.1-.912l-.215-.386" transform="translate(-1082.479 1991.468)"/><path class="i" d="M1195.432-1830.854c-.182-.574-.352-1.112-.51-1.607-.013-.042-.024-.082-.037-.121-.194.166-.387.341-.579.52.119.5.253,1.021.394,1.586l.081.314c.2-.239.421-.468.65-.692" transform="translate(-1080.856 1997.367)"/><path class="i" d="M1309.2-1567.063c-.034.3-.068.6-.1.912.073.109.144.218.212.32q.505.761.872,1.283c.018-.208.037-.414.056-.622-.147-.275-.313-.583-.5-.918-.167-.3-.347-.625-.541-.976" transform="translate(-1169.645 1791.997)"/><path class="i" d="M1285.643-1234.171c-.079,1.039-.172,2.576-.276,4.552s-.225,4.4-.335,7.21-.249,6.014-.353,9.553-.233,7.418-.326,11.58c-.113,4.162-.176,8.615-.251,13.3q-.037,3.511-.075,7.191-.016,1.839-.033,3.715t-.009,3.788c-.022,5.1.01,10.375.043,15.779q.05,4.055.1,8c.03,2.631.1,5.225.144,7.771q.04,1.912.078,3.787t.1,3.715q.105,3.675.206,7.189c.16,4.681.309,9.127.5,13.29l.266,6.02c.1,1.93.192,3.785.282,5.552.174,3.537.382,6.736.555,9.545s.345,5.226.5,7.2.287,3.507.4,4.546a5.856,5.856,0,0,0,.248,1.577,5.928,5.928,0,0,0,.079-1.595c0-1.045-.033-2.583-.089-4.561-.126-3.96-.308-9.684-.533-16.76q-.086-2.655-.18-5.552t-.176-6.02c-.133-4.159-.234-8.605-.357-13.284q-.077-3.506-.158-7.186-.04-1.835-.081-3.709t-.063-3.784c-.1-5.089-.157-10.363-.235-15.76-.047-5.4-.1-10.671-.116-15.764q-.01-1.912-.021-3.785t0-3.712q0-3.674,0-7.189c.023-4.678.045-9.125.066-13.287q.023-3.122.045-6.023t.065-5.555c.095-7.08.172-12.807.226-16.766.025-1.981.033-3.519.023-4.561a8.112,8.112,0,0,0-.073-1.595,8.132,8.132,0,0,0-.177,1.586" transform="translate(-1150.214 1535.742)"/><path class="i" d="M1348.568-1114.705c-.051-.532-.1-1.072-.154-1.613-.1-1.087-.242-2.187-.387-3.3-.3-2.223-.691-4.495-1.1-6.814-.812-4.639-1.746-9.472-2.157-14.525a156.356,156.356,0,0,1-.338-15.758c.241-10.855.471-21.194.679-30.6q.036-1.763.073-3.483t.1-3.389q.1-3.339.205-6.479c.148-4.18.287-8.074.414-11.629.254-7.11.5-12.864.658-16.842.079-1.988.133-3.531.16-4.582a8.008,8.008,0,0,0-.027-1.6,7.468,7.468,0,0,0-.236,1.586c-.112,1.042-.251,2.583-.417,4.567-.332,3.969-.755,9.714-1.2,16.821-.226,3.552-.423,7.449-.625,11.629-.094,2.09-.19,4.256-.29,6.482q-.068,1.672-.136,3.392-.05,1.717-.106,3.482c-.142,4.706-.287,9.644-.438,14.761q-.109,3.842-.22,7.811c-.075,2.643-.154,5.325-.2,8.043a151.4,151.4,0,0,0,.341,15.924c.432,5.162,1.4,10.043,2.244,14.661.423,2.311.825,4.561,1.148,6.751.154,1.1.308,2.175.414,3.241.057.535.112,1.063.169,1.589.042.526.081,1.048.124,1.564a111.919,111.919,0,0,1,.242,11.562c-.091,3.543-.3,6.748-.5,9.56s-.42,5.238-.589,7.219-.3,3.525-.359,4.573a5.469,5.469,0,0,0-.009,1.607,5.419,5.419,0,0,0,.372-1.564c.178-1.033.42-2.561.695-4.537s.6-4.389.891-7.207.583-6.035.746-9.6a104.485,104.485,0,0,0-.069-11.707q-.055-.788-.109-1.592" transform="translate(-1195.683 1535.402)"/><path class="i" d="M1664.194-1696.513c.682-1.341,1.341-2.673,1.933-4.005.287-.673.577-1.332.849-1.99s.523-1.317.764-1.969a92.943,92.943,0,0,0,3.894-14.193c.411-2.051.728-3.912,1-5.549s.471-3.048.628-4.2a19.533,19.533,0,0,0,.354-3.612,20.1,20.1,0,0,0-.873,3.522c-.242,1.139-.535,2.534-.873,4.153s-.737,3.455-1.22,5.476a102.153,102.153,0,0,1-4.186,13.918c-.248.637-.52,1.271-.782,1.918s-.568,1.284-.855,1.936c-.6,1.293-1.259,2.6-1.945,3.92-1.374,2.652-2.878,5.383-4.2,8.318a45.387,45.387,0,0,0-1.746,4.455c-.5,1.492-.909,2.978-1.29,4.434-.764,2.912-1.423,5.712-2.274,8.288a37.827,37.827,0,0,1-1.417,3.685c-.529,1.163-1.112,2.271-1.7,3.338-1.169,2.138-2.338,4.129-3.2,6.071a21.781,21.781,0,0,0-1.063,2.851,16.563,16.563,0,0,0-.547,2.67,13.69,13.69,0,0,0-.094,2.371c.006.365.058.716.088,1.045.054.329.1.643.169.936a9.229,9.229,0,0,0,.483,1.519c.094.208.175.4.263.577s.181.323.26.459c.338.528.562.77.6.746s-.091-.326-.308-.888a11.174,11.174,0,0,1-.652-2.531c-.039-.278-.061-.577-.088-.888-.006-.314-.033-.643-.015-.988a14,14,0,0,1,.22-2.223,19.917,19.917,0,0,1,1.719-5.18c.438-.924.946-1.876,1.5-2.857s1.166-2,1.779-3.063,1.241-2.19,1.815-3.392a36.884,36.884,0,0,0,1.534-3.8c.915-2.646,1.607-5.476,2.38-8.358.387-1.441.8-2.894,1.281-4.34a44.969,44.969,0,0,1,1.691-4.31c1.287-2.863,2.767-5.582,4.129-8.264" transform="translate(-1429.709 1919.598)"/><path class="i" d="M1748.6-1239.485c-.224.1-.471.208-.74.329s-.571.236-.888.368c-.637.266-1.35.589-2.163.894-.4.16-.824.326-1.266.5s-.9.329-1.38.5c-.951.363-1.987.686-3.069,1.054-.541.181-1.105.338-1.676.52-.284.088-.574.175-.864.266l-.891.242c-.6.157-1.2.344-1.827.489s-1.257.305-1.9.459l-1.906.4c-.625.142-1.25.233-1.861.351-.3.057-.607.112-.906.166l-.894.136c-.592.084-1.169.187-1.734.257-1.133.136-2.208.284-3.22.365-.507.045-.994.106-1.465.139l-1.353.1c-.861.078-1.643.1-2.332.148l-.958.06c-.3.018-.565.03-.81.042-.969.066-1.513.163-1.519.257s.529.221,1.507.341c.244.027.513.057.813.088s.619.039.969.058c.695.03,1.489.078,2.365.06.441-.006.9-.009,1.381-.015s.976-.042,1.492-.066c1.033-.039,2.132-.154,3.289-.269.577-.058,1.166-.148,1.77-.227.3-.039.607-.081.915-.124s.613-.106.924-.16c.622-.115,1.263-.205,1.9-.347s1.287-.278,1.942-.42q.974-.245,1.927-.489c.635-.154,1.245-.356,1.855-.529.3-.091.6-.178.9-.269s.586-.2.873-.293c.577-.2,1.145-.375,1.688-.58,1.084-.414,2.117-.806,3.057-1.232.474-.208.933-.4,1.368-.6s.843-.408,1.238-.6c.794-.372,1.486-.761,2.1-1.09.3-.166.592-.317.849-.468s.486-.3.7-.423c.831-.516,1.275-.831,1.239-.9s-.55.118-1.441.5" transform="translate(-1482.034 1539.026)"/><path class="i" d="M736.093-1260.817c-.285-.054-.6-.112-.947-.178s-.727-.1-1.134-.16c-.815-.109-1.743-.254-2.776-.323q-.775-.068-1.621-.136c-.564-.045-1.153-.057-1.762-.087-1.219-.069-2.522-.057-3.9-.057-.687,0-1.389.051-2.107.081-.359.015-.722.033-1.089.052s-.735.063-1.107.094l-1.127.1c-.379.03-.76.07-1.143.121l-2.33.3-2.316.393c-.381.061-.757.136-1.129.218s-.741.157-1.107.232-.728.157-1.087.233c-.355.091-.708.181-1.056.269-.7.181-1.381.347-2.039.544-1.315.4-2.567.767-3.712,1.193-.574.205-1.134.39-1.661.6s-1.029.414-1.51.61c-.966.375-1.81.791-2.556,1.136-.372.178-.719.338-1.033.5s-.593.32-.849.459c-1.014.565-1.549.921-1.5,1.015s.667-.082,1.747-.48c.269-.1.568-.214.894-.335l1.071-.381c.769-.269,1.63-.61,2.606-.918l1.521-.514c.529-.175,1.089-.332,1.662-.51,1.143-.369,2.387-.686,3.688-1.042.651-.175,1.329-.317,2.014-.486l1.04-.254c.353-.072.709-.145,1.069-.22s.722-.148,1.087-.223.734-.154,1.108-.215l2.271-.393,2.283-.32c.375-.057.749-.1,1.12-.136l1.1-.118,1.086-.118c.359-.027.715-.051,1.068-.079.7-.045,1.394-.112,2.068-.145,1.349-.061,2.632-.139,3.835-.136.6-.006,1.183-.027,1.741-.018s1.095.018,1.607.03c1.026,0,1.95.069,2.766.1.407.015.787.033,1.136.045s.667.048.954.066a6.534,6.534,0,0,0,1.8.021,6.621,6.621,0,0,0-1.749-.429" transform="translate(-693.493 1555.855)"/><path class="h" d="M1230.648-1919.523c-1.885-7.177-3.824-14.477-7.776-20.756-1.421-2.256-3.13-4.455-3.606-7.08-.532-2.942.565-6.083-.4-8.91-1.078-3.159-4.323-4.92-6.919-7.02a24.009,24.009,0,0,1-4.268-4.642,19.247,19.247,0,0,1-3.589-8.928,62.876,62.876,0,0,1,.1-6.5c0-.278-.01-.55-.019-.818a11.194,11.194,0,0,0-3.93,9.076c.277,5.132,4.472,8.092,8.262,10.861a20.087,20.087,0,0,1,5.877,5.905,14.381,14.381,0,0,1,1.855,8.717c-.153,1.4-.488,2.833.1,4.18.616,1.41,1.759,2.422,2.178,3.951a15.2,15.2,0,0,0,1.575,4.053c.788,1.3,1.731,2.5,2.533,3.788a44.885,44.885,0,0,1,4.3,9.949c1.189,3.661,2.312,7.349,3.462,11.025a.14.14,0,0,0,.266.012c5.071-11.665,6.72-24.432,11.278-36.269.592-1.534,1.236-3.051,1.939-4.537a61.88,61.88,0,0,0-7.231,13.679,167.957,167.957,0,0,0-5.984,20.267" transform="translate(-1085.432 2114.624)"/><path class="j" d="M1258.414-2022.31c-7.8,3.851-18.422,4.25-25.5-.8-4.3-3.072-5.006-7.02-8.032-11.351-1.947-2.785-5.581-4.053-7.527-6.838q-.369,5.446-.292,10.913.015,1.01.047,2.021s0,0-.006.006c.009.269.019.541.019.818a62.808,62.808,0,0,0-.1,6.5,19.244,19.244,0,0,0,3.589,8.928,24.012,24.012,0,0,0,4.268,4.643c2.6,2.1,5.841,3.86,6.919,7.019.965,2.827-.132,5.969.4,8.91.475,2.625,2.185,4.824,3.606,7.08,3.952,6.28,5.89,13.58,7.776,20.757a167.974,167.974,0,0,1,5.983-20.267,61.85,61.85,0,0,1,7.231-13.679c.637-1.35,1.326-2.676,2.078-3.966a41.3,41.3,0,0,1,2.6-3.984,3.307,3.307,0,0,1,2.356-1.311,10.768,10.768,0,0,0,1.966-.541,10.475,10.475,0,0,0,5.651-5.238,15.951,15.951,0,0,0,1.205-4.718c.251-1.9.45-3.806.674-5.706q.661-5.677,1.329-11.351c-4.8,5.878-9.527,11.837-16.238,15.153" transform="translate(-1098.365 2158.805)"/><path class="k" d="M1237.77-1861.817c.016,1.419-.786,2.583-1.79,2.591s-1.831-1.129-1.847-2.552.786-2.583,1.79-2.592,1.831,1.13,1.847,2.552" transform="translate(-1111.66 2021.953)"/><path class="k" d="M1407.707-1857c-.29,1.389-1.32,2.353-2.3,2.147s-1.543-1.5-1.253-2.891,1.323-2.353,2.3-2.147,1.543,1.5,1.253,2.891" transform="translate(-1243.103 2018.51)"/><path class="k" d="M1276.4-1719.238c.39,1.8-.324,3.48-1.6,3.754s-2.618-.958-3.008-2.758.324-3.48,1.6-3.754,2.618.958,3.008,2.758" transform="translate(-1140.712 1911.862)"/><path class="k" d="M1336.755-1551.892c-.118,1.836-1.265,3.259-2.564,3.175s-2.254-1.64-2.136-3.48,1.269-3.256,2.568-3.171,2.253,1.64,2.132,3.476" transform="translate(-1187.392 1782.954)"/><path class="k" d="M1313.026-1077.369c-.119,1.836-1.268,3.259-2.566,3.175s-2.254-1.643-2.135-3.48,1.268-3.256,2.566-3.174,2.254,1.643,2.135,3.479" transform="translate(-1169.038 1415.928)"/><path class="k" d="M1311.3-908.437c-.119,1.836-1.268,3.259-2.566,3.175s-2.254-1.643-2.135-3.48,1.268-3.259,2.566-3.174,2.254,1.643,2.135,3.479" transform="translate(-1167.699 1285.266)"/><path class="k" d="M1325.277-730.624c-.118,1.836-1.266,3.256-2.565,3.172s-2.253-1.64-2.135-3.477,1.268-3.259,2.566-3.174,2.254,1.64,2.134,3.479" transform="translate(-1178.514 1147.733)"/><path class="l" d="M1346.925-1418.617c-.142-3.407-.354-6.814-.571-10.218-.169-2.655-.254-5.6-2.323-7.56-1.9-1.8-4.642-2.38-7.128-2.854a60.6,60.6,0,0,0-9.883-1.036,77.792,77.792,0,0,0-9.962.417,76.089,76.089,0,0,0-9.518,1.471,12.146,12.146,0,0,0-5.842,2.815,115.013,115.013,0,0,0,3.273,21.835c1.917,7.657,4.871,15.48,10.9,20.578a23.167,23.167,0,0,0,20.675,4.591,22.813,22.813,0,0,0,9.294-5.153q.385-2.306.643-4.633a132.966,132.966,0,0,0,.444-20.252" transform="translate(-1163.92 1693.956)"/><path class="m" d="M1246.169-1383.247a20.335,20.335,0,0,1-6.812-11.722,23.723,23.723,0,0,1-.465-3.658,5.289,5.289,0,0,1,.777-3.519,2.718,2.718,0,0,1,3.628-.538,14.626,14.626,0,0,1,2.573,2.087,8.374,8.374,0,0,0,1.665,1.124c.674,5.926,1.406,11.849,2.594,17.694q.109.535.223,1.069A17.208,17.208,0,0,1,1246.169-1383.247Zm16.124,6.21c-6.026-5.1-8.98-12.921-10.9-20.578a115.052,115.052,0,0,1-3.273-21.835,7.759,7.759,0,0,0-.7.785c-1.751,2.278-2.09,5.292-1.833,8.068,0,.042.01.081.013.124a15.378,15.378,0,0,0-5.867-.813c-3.966.42-6.437,4.159-7.067,7.808a22.732,22.732,0,0,0,.027,6.669,35.961,35.961,0,0,0,1.428,6.536,27.423,27.423,0,0,0,6.359,10.883,21.778,21.778,0,0,0,10.456,6.008c.448.106.9.19,1.354.263.1.344.21.688.32,1.03a20.807,20.807,0,0,0,3.45,7.05c4.165,5.05,11.049,4.232,16.857,3.752,5.132-.426,11.52.314,15.193-4.1a17.422,17.422,0,0,0,3.123-7.183c.4-1.664.74-3.341,1.027-5.029a22.814,22.814,0,0,1-9.294,5.153,23.168,23.168,0,0,1-20.675-4.591" transform="translate(-1110.344 1677.823)"/><path class="n" d="M1343.5-1428.707a3.493,3.493,0,0,0,1.963-1.978c.456-1.45-.737-2.468-1.939-3-6.023-2.634-13.245-2.54-19.687-2.2-.752.039-1.507.094-2.256.163a64.549,64.549,0,0,0-11.1,1.942,13.787,13.787,0,0,0-4.734,2.108c-1.086.815-2.137,2.117-1.6,3.552a3.177,3.177,0,0,0,1.179,1.438,68.661,68.661,0,0,1,38.168-2.033" transform="translate(-1165.705 1690.665)"/><path class="o" d="M1309.855-1407.7a7.589,7.589,0,0,0,1.722.882,24.959,24.959,0,0,0,5.541,1.356,47.653,47.653,0,0,0,11.49-.127,115.928,115.928,0,0,0,11.973-1.8,41.007,41.007,0,0,0,5.6-1.6,18.693,18.693,0,0,0,1.839-.746,68.659,68.659,0,0,0-38.168,2.033" transform="translate(-1170.229 1671.689)"/><path class="p" d="M1394.128-1548.285c0,.036-.06.066-.175.084a1.524,1.524,0,0,1-.529.012,3.472,3.472,0,0,1-1.858-.861,5.078,5.078,0,0,1-.969-1.157,5.743,5.743,0,0,1-.665-1.676,5.434,5.434,0,0,1-.054-2.1,7.282,7.282,0,0,1,.749-2.2,13.064,13.064,0,0,1,3.325-3.884,26.445,26.445,0,0,1,4.772-3.162,26.289,26.289,0,0,1,2.839-1.266c1.009-.384,2-.662,2.882-1.048a4.2,4.2,0,0,0,2.012-1.522,2.614,2.614,0,0,0,.323-1.115,5.506,5.506,0,0,0-.112-1.4,34.038,34.038,0,0,1-.644-3.368,10.7,10.7,0,0,1,.329-3.558,13.809,13.809,0,0,1,3.189-5.706,20.951,20.951,0,0,1,4.5-3.609,40.868,40.868,0,0,1,4.355-2.268c1.353-.616,2.576-1.142,3.643-1.613s1.978-.888,2.715-1.241,1.314-.634,1.71-.815.616-.263.652-.211-.118.229-.447.525a15.343,15.343,0,0,1-1.538,1.16c-.691.468-1.564,1-2.594,1.577s-2.211,1.205-3.5,1.906-2.679,1.474-4.077,2.419a20.319,20.319,0,0,0-3.993,3.447,12.2,12.2,0,0,0-2.622,4.938,8.787,8.787,0,0,0-.229,2.863c.078.942.411,1.972.64,3.171a7.553,7.553,0,0,1,.142,1.936,4.668,4.668,0,0,1-.61,2.033,5.02,5.02,0,0,1-1.4,1.5,8.384,8.384,0,0,1-1.61.882c-1.066.45-2.1.722-3.005,1.048a26.87,26.87,0,0,0-2.658,1.109,26.846,26.846,0,0,0-4.549,2.781,12.214,12.214,0,0,0-3.105,3.232,6.167,6.167,0,0,0-.737,1.725,4.315,4.315,0,0,0-.1,1.619,5.041,5.041,0,0,0,.387,1.4,4.872,4.872,0,0,0,.646,1.051,3.75,3.75,0,0,0,1.375,1.045c.184.094.338.136.444.184s.157.091.154.124" transform="translate(-1232.064 1811.273)"/><path class="p" d="M1417.118-1491.237c-.054.045-.193-.021-.408-.187a6.584,6.584,0,0,1-.849-.815,9.746,9.746,0,0,1-1.117-1.522,6.415,6.415,0,0,1-.882-2.5,4.707,4.707,0,0,1,.13-1.658,4.447,4.447,0,0,1,.834-1.628,8.176,8.176,0,0,1,3.005-2.166c.559-.263,1.12-.492,1.682-.734s1.145-.48,1.734-.725c1.178-.492,2.4-.994,3.658-1.5s2.513-.982,3.622-1.468a9.41,9.41,0,0,0,2.806-1.764,4.68,4.68,0,0,0,1.32-2.447,7.474,7.474,0,0,0,.042-2.613,13.087,13.087,0,0,0-.571-2.2c-.224-.646-.447-1.2-.628-1.661-.365-.921-.531-1.462-.414-1.528s.5.344,1.075,1.175a16.493,16.493,0,0,1,.954,1.589,11.56,11.56,0,0,1,.921,2.347,8.243,8.243,0,0,1,.214,3.159,6.291,6.291,0,0,1-.5,1.776,6.126,6.126,0,0,1-1.1,1.655,10.68,10.68,0,0,1-3.3,2.28c-1.214.571-2.425,1.042-3.679,1.564s-2.48,1.012-3.667,1.483c-.592.236-1.178.465-1.749.692s-1.133.438-1.643.652a7,7,0,0,0-2.468,1.537,3.027,3.027,0,0,0-.812,2.093,5.792,5.792,0,0,0,.459,2.069,16.687,16.687,0,0,0,.74,1.58c.227.432.4.779.507,1.024s.139.4.084.438" transform="translate(-1250.656 1754.325)"/><path class="p" d="M1365.187-1476.118c-.033.051-.163.036-.4-.045a3.157,3.157,0,0,1-.423-.175c-.154-.088-.333-.2-.526-.329s-.377-.32-.595-.513c-.1-.1-.2-.218-.3-.335a3.249,3.249,0,0,1-.308-.377,7.659,7.659,0,0,1-1.051-2.03,8.956,8.956,0,0,1-.483-2.73,9.788,9.788,0,0,1,.444-3.177,10.725,10.725,0,0,1,1.637-3.132,14.247,14.247,0,0,1,2.595-2.67,19.307,19.307,0,0,1,3.069-1.993,27.2,27.2,0,0,1,3.072-1.344c.985-.369,1.915-.686,2.773-.994s1.646-.6,2.35-.891,1.317-.6,1.854-.87q.4-.214.734-.408c.217-.139.426-.257.6-.375l.834-.547c.2-.124.326-.172.372-.133s0,.166-.124.375a3.7,3.7,0,0,1-.245.369q-.168.2-.39.462c-.154.169-.338.341-.538.534s-.435.381-.688.583a15,15,0,0,1-1.828,1.2c-.7.4-1.492.782-2.341,1.169s-1.755.77-2.688,1.184-1.879.864-2.818,1.4a20.694,20.694,0,0,0-2.755,1.836,13.518,13.518,0,0,0-2.283,2.287,9.633,9.633,0,0,0-1.459,2.552,8.843,8.843,0,0,0-.532,2.6,8.448,8.448,0,0,0,.187,2.329,7.836,7.836,0,0,0,.64,1.827,4.153,4.153,0,0,0,.2.365c.07.115.136.23.2.335.148.2.275.393.4.556s.251.3.35.435.2.227.272.32c.148.178.218.3.187.354" transform="translate(-1209.868 1739.509)"/><path class="q" d="M1451.922-1021.153c8.418-3.948,15.03-10.973,20.385-18.57,8.375-11.88,14.135-25.4,19.026-39.084,5.724-16.029,10.333-32.433,14.936-48.822,1.483-5.28,2.936-11.085.692-16.093-2.516-5.615-9.164-8.448-15.317-8.264-5.059.151-9.877,1.948-14.513,4.065a75.546,75.546,0,0,1-2.142,12.9c-1.03,4.3-2.235,8.551-3.213,12.858a81.173,81.173,0,0,0-1.906,12.958c-.287,4.612-.3,9.242-.752,13.846a52.563,52.563,0,0,1-2.848,12.8c-2.845,7.9-7.373,15.057-12.115,21.932-.329.48-.664.957-1,1.435a36.526,36.526,0,0,0-15.736,5.053,66.392,66.392,0,0,0-8.765,6.935,69.638,69.638,0,0,1-9.542,6.745c-1.646.982-3.317,1.918-5,2.824-1.577.849-3.2,1.631-4.727,2.568-2.573,1.573-4.929,3.845-5.18,7.019a5.141,5.141,0,0,0,4.467,5.534c3.054.531,5.814-.909,8.2-2.667,1.64-1.205,3.189-2.513,4.884-3.64a50.778,50.778,0,0,1,5.47-3.129c.335-.166.677-.329,1.015-.489a27.932,27.932,0,0,0-1.254,5.271,10.229,10.229,0,0,0,1.595,7.1c7.292,3.087,16.081,2.317,23.339-1.087" transform="translate(-1243.189 1470.955)"/><path class="h" d="M1595.99-1154.728c-.085-1.507-.251-3.226-1.7-4.053a11.007,11.007,0,0,0-2.779-.9q-1.581-.4-3.183-.7a51.931,51.931,0,0,0-6.255-.782,52.928,52.928,0,0,0-12.9.743,52.176,52.176,0,0,0-6.328,1.565,3.743,3.743,0,0,0-1.978.975,4.634,4.634,0,0,0-.4,2.486c-.006.1-.015.2-.021.3,4.636-2.117,9.454-3.914,14.513-4.065,6.153-.184,12.8,2.649,15.316,8.264,2.244,5.008.792,10.813-.691,16.093-4.6,16.389-9.212,32.793-14.936,48.822-4.89,13.688-10.65,27.2-19.026,39.084-5.355,7.6-11.967,14.622-20.385,18.569-7.258,3.4-16.047,4.174-23.339,1.088a10.869,10.869,0,0,0,.882,1.163,21.106,21.106,0,0,0,3.265,2.963,17.222,17.222,0,0,0,4.223,2.471,16.614,16.614,0,0,0,9.17.462,31.97,31.97,0,0,0,15.978-8.856c2.323-2.338,4.12-5.087,6.195-7.63,2.147-2.628,4.667-4.9,6.509-7.781a27.974,27.974,0,0,0,2.815-5.8,44.953,44.953,0,0,0,6.313-8.152c4.543-7.427,7.174-15.8,10.043-23.961,3.045-8.66,6.512-17.159,9.653-25.782a164.587,164.587,0,0,0,7.6-26.374,92.191,92.191,0,0,0,1.52-13.411c.078-2.266.063-4.534-.063-6.8" transform="translate(-1326.495 1478.134)"/><path class="r" d="M1422.345-621.14a5.853,5.853,0,0,1-3.806.71,3.672,3.672,0,0,1-2.45-1.836c-.679-1.356.145-2.721,1.06-3.727a13.351,13.351,0,0,1,3.435-2.658,14.985,14.985,0,0,1,3.507,4.712c.695,1.507-.583,2.217-1.746,2.8" transform="translate(-1252.205 1066.167)"/><path class="h" d="M1203.03-1379.974a10.206,10.206,0,0,1-4.915-.568,16.06,16.06,0,0,0-4.874-1.006,10.232,10.232,0,0,0-6.4,3.014q-3.026,2.7-5.791,5.681l-.385.417c2.443-.5,4.767-1.447,7.153-2.166.079-.024.158-.048.238-.069l-.464,0a14.513,14.513,0,0,0,4.387-3.132,10.619,10.619,0,0,0,2.742,1.513,7.179,7.179,0,0,0,3.135.187,20.748,20.748,0,0,0,3.791-.731c1.557-.465,3.353-1.317,3.877-2.993a3.12,3.12,0,0,0,.059-1.631,4.58,4.58,0,0,1-2.548,1.48" transform="translate(-1070.302 1648.508)"/><path class="h" d="M822.33-1175.111c-5.389-.362-10.73-2.072-16.094-1.441-5.765.679-10.828,3.969-15.954,6.693-12.448,6.615-26.234,10.221-39.876,13.773-4.635,1.205-9.6,2.4-14.123.821-4.459-1.558-7.62-5.561-9.845-9.726a44.284,44.284,0,0,1-5.006-16.954c-.217.613-.414,1.232-.583,1.857a29.125,29.125,0,0,0,1.666,18.727,25.029,25.029,0,0,0,5.084,8.249c2.356,2.293,5.394,2.564,8.527,2.676a91.773,91.773,0,0,0,40.018-7.7,89.63,89.63,0,0,0,9.082-4.618c2.927-1.707,5.752-3.582,8.729-5.2a29.6,29.6,0,0,1,9.38-3.485c3.463-.553,7.107.082,10.458-1.139a9.009,9.009,0,0,0,.884-.375c4.311,1.9,9.39,2.005,14.017,1.586a17.2,17.2,0,0,0,7.968-2.4,30.658,30.658,0,0,0,3.429-2.854c1.162-1.03,2.456-1.912,3.569-3a11.7,11.7,0,0,0,2.6-3.854,32.989,32.989,0,0,1-23.933,8.366" transform="translate(-713.984 1495.306)"/><path class="q" d="M854.833-1377.249a4.683,4.683,0,0,0-2.612-4.238,8.25,8.25,0,0,0-3.794-.894c1.884-.5,4.107-.812,5.731-1.957,2.676-1.885,3.322-6.482,1.8-9.249a6.729,6.729,0,0,0-2.808-2.709c.224-.363.437-.731.645-1.094a4.99,4.99,0,0,0,.8-2.5,4.728,4.728,0,0,0-.857-2.483,14.417,14.417,0,0,0-1.844-2.178,10.449,10.449,0,0,0-2.311-1.9,11.405,11.405,0,0,0-5.758-.948l-7.16.091c-.079.021-.159.045-.237.069-2.386.719-4.71,1.667-7.153,2.166l.385-.417q2.761-2.977,5.791-5.682a10.232,10.232,0,0,1,6.4-3.014,16.054,16.054,0,0,1,4.874,1.006,10.205,10.205,0,0,0,4.915.568,4.576,4.576,0,0,0,2.548-1.48,5.5,5.5,0,0,0-2.146-3.017,28.35,28.35,0,0,0-2.989-1.743,13.8,13.8,0,0,1-2.881-2.256c-1.4-1.377-2.99-2.842-5.108-2.613a8.558,8.558,0,0,0-3.062,1.126c-1.073.577-2.14,1.163-3.21,1.743a53.154,53.154,0,0,0-6.062,3.688c-3.567,2.61-6.678,6.334-7.214,10.822a39.887,39.887,0,0,0-8.14,12.625c-.571.142-1.146.272-1.726.377-2.555.465-5.123.547-7.6,1.389-4.451,1.51-8.595,3.878-12.806,5.947a112.129,112.129,0,0,1-15.727,2.6,110.943,110.943,0,0,1-11.243.471c-3.444-.027-6.881-.251-10.324-.314-6.323-.118-13.012.311-18.507,3.776a22.767,22.767,0,0,0-9.081,11.683,44.286,44.286,0,0,0,5.006,16.954c2.225,4.165,5.386,8.167,9.845,9.726,4.521,1.583,9.488.384,14.123-.822,13.642-3.552,27.428-7.158,39.876-13.773,5.126-2.724,10.189-6.014,15.955-6.693,5.363-.631,10.705,1.078,16.094,1.44a32.989,32.989,0,0,0,23.933-8.366,12.125,12.125,0,0,0,.829-3.051,6.223,6.223,0,0,0,2.8-4.884" transform="translate(-718.921 1681.143)"/><path class="s" d="M1221.92-1192.517c-.015-.118.16-.278.491-.438.166-.078.37-.163.606-.254s.508-.175.806-.278c.6-.19,1.308-.4,2.095-.634l2.552-.755c.9-.269,1.767-.526,2.552-.761s1.5-.447,2.1-.619c.3-.078.578-.157.824-.214s.467-.094.648-.121c.364-.051.587-.039.636.06s-.08.281-.354.535a5.442,5.442,0,0,1-.52.423c-.212.148-.456.314-.734.474a19.074,19.074,0,0,1-2.016,1.039c-.391.169-.8.347-1.239.507s-.889.32-1.359.465-.936.269-1.388.375-.891.2-1.311.275a17.987,17.987,0,0,1-2.252.26c-.323.018-.617.015-.876.009a4.847,4.847,0,0,1-.667-.06c-.369-.061-.58-.166-.6-.287" transform="translate(-1102.214 1505.473)"/><path class="s" d="M1202.125-1239.952c-.025-.112.158-.281.516-.456.178-.094.4-.181.659-.3s.554-.23.882-.353.692-.242,1.084-.36.813-.239,1.257-.359c.888-.239,1.87-.477,2.906-.7,2.073-.45,3.968-.776,5.358-.93.348-.036.664-.066.943-.082s.525-.009.725,0c.4.018.635.07.658.175s-.164.251-.521.438c-.178.094-.4.2-.656.308s-.557.214-.887.329c-1.322.456-3.175.97-5.241,1.45-1.033.239-2.023.444-2.928.607-.453.082-.884.154-1.289.215s-.783.115-1.134.139-.668.048-.948.057-.522.024-.723.015c-.4-.006-.637-.079-.662-.19" transform="translate(-1086.901 1541.731)"/><path class="s" d="M1147.282-1343.614c-.06-.045-.077-.142-.055-.29a2.075,2.075,0,0,1,.183-.589q.078-.177.186-.39c.075-.136.168-.278.266-.432a7.893,7.893,0,0,1,.738-.994c.152-.172.312-.35.478-.541s.365-.357.56-.544a14.952,14.952,0,0,1,1.326-1.105c.242-.184.508-.347.772-.526l.4-.263c.142-.081.285-.16.429-.241.292-.157.578-.335.891-.474s.626-.29.944-.435c.328-.124.653-.248.973-.365s.647-.205.962-.3l.471-.136c.158-.036.315-.07.47-.1.311-.063.612-.139.911-.184a15.787,15.787,0,0,1,1.705-.187c.268-.012.525-.033.774-.03l.715.018a9.788,9.788,0,0,1,1.219.115c.178.024.343.045.495.075s.288.07.411.106c.491.136.751.26.74.372s-.292.2-.776.275c-.122.018-.256.036-.4.051l-.474.076c-.338.054-.721.084-1.14.172l-.655.115c-.227.039-.461.1-.7.154-.486.091-.994.245-1.528.384-.267.069-.534.169-.81.254-.137.045-.276.087-.416.133s-.276.106-.417.16c-.278.112-.57.2-.85.329s-.571.248-.862.371c-.284.142-.564.278-.841.417s-.537.293-.8.429c-.131.073-.26.142-.389.212l-.37.229c-.242.154-.49.29-.716.444-.452.311-.9.589-1.283.888-.2.145-.4.278-.576.417s-.354.275-.519.4c-.344.248-.627.5-.9.7s-.515.381-.713.526a2.062,2.062,0,0,1-.525.29c-.14.051-.241.06-.3.015" transform="translate(-1044.434 1625.455)"/><path class="s" d="M1193.442-1298.476c-.022-.145.242-.356.742-.571a18.267,18.267,0,0,1,2.145-.71c.455-.127.956-.254,1.493-.384s1.114-.266,1.719-.408,1.239-.3,1.9-.45l2.039-.468,2.041-.465c.66-.145,1.3-.287,1.9-.423,1.215-.266,2.315-.5,3.244-.677,1.859-.356,3.043-.492,3.126-.239s-.958.852-2.729,1.577a51.893,51.893,0,0,1-7.11,2.244c-.709.169-1.4.326-2.075.462s-1.325.257-1.948.363-1.214.2-1.771.272-1.076.133-1.554.166a13.721,13.721,0,0,1-2.28.03c-.546-.052-.861-.172-.883-.32" transform="translate(-1080.186 1588.062)"/><path class="s" d="M1094.57-1269.84c.057-.042.169,0,.338.112a2.009,2.009,0,0,1,.289.232c.1.1.215.223.339.362s.241.311.375.5.263.4.387.631a9.215,9.215,0,0,1,.719,1.673,10.4,10.4,0,0,1,.379,4.76,15.3,15.3,0,0,1-.707,2.691c-.3.876-.621,1.734-.839,2.585a8.138,8.138,0,0,0-.267,2.465,9.613,9.613,0,0,0,.441,2.314,13.787,13.787,0,0,0,.839,2.06c.3.64.649,1.217.949,1.755s.6,1.018.864,1.444.484.8.66,1.108c.35.622.516.994.422,1.072s-.434-.145-.98-.616c-.275-.233-.6-.538-.952-.9s-.749-.8-1.165-1.3a16.975,16.975,0,0,1-1.252-1.743,12.983,12.983,0,0,1-1.146-2.247,10.4,10.4,0,0,1-.683-2.794,9.4,9.4,0,0,1,.261-3.12,27.008,27.008,0,0,1,.912-2.761,16.756,16.756,0,0,0,.722-2.353,10.9,10.9,0,0,0,.064-4.05,12.942,12.942,0,0,0-.356-1.565c-.061-.233-.139-.441-.2-.64s-.13-.375-.184-.538a6.87,6.87,0,0,1-.246-.779c-.043-.19-.042-.311.016-.354" transform="translate(-1002.918 1562.118)"/><path class="r" d="M1259.51-1403.021c-.709-.531-1.912-1.5-2.88-1.38a1.285,1.285,0,0,0-.613.242.379.379,0,0,0-.053.033c-1.043.976-2.359,2.758-.764,3.923,1.27.927,5.134,2.423,6.568,1.136,1.352-1.217-1.4-3.316-2.257-3.954" transform="translate(-1127.38 1666.191)"/></g></g></svg>