<?xml version="1.0" encoding="utf-8"?>
<svg version="1.1" id="Layer_1" xmlns="http://www.w3.org/2000/svg" xmlns:xlink="http://www.w3.org/1999/xlink" x="0px" y="0px"
	 width="150px" height="150px" viewBox="45 -45 150 150" enable-background="new 45 -45 150 150" xml:space="preserve">
		<g>
			<g>
				<path d="M109.1,91c0,0-2,7.9,4,11.9c4,4,7.9,4,9.9,4s7.9-2,9.9-6c0-4,0-11.9,0-11.9L109.1,91z"/>
			</g>
			<g>
				<path fill="#F4CF56" d="M103.1,75.1v2c0,2,0,4,0,6c0,0-2,9.9,9.9,9.9c9.9,0,11.9,0,17.9,0c6-2,8-4,8-9.9l0,0c0-2,0-4,0-4
					c0-2,0-2,0-4c0-4,2-7.9,6-9.9l0,0c9.8-5.9,27.7-33.7,13.8-55.5C142.8-10.1,121-10.1,121-10.1s-21.8-2-35.7,19.9
					c-15.9,23.8,3.9,49.5,11.9,55.4l0,0C101.1,67.2,103.1,71.2,103.1,75.1z"/>
			</g>
			<g>
				<path d="M123,95L123,95c-2,0-4,0-9.9,0c-4,0-7.9-2-9.9-4c-2-4-2-6,0-7.9c0-4,0-6,0-6v-2c-2-4-2-6-6-7.9l0,0
					c-9.9-7.8-27.7-33.6-13.9-57.5C97.2-10.1,117-10.1,121-10.1l0,0l0,0c4,0,23.8,0,37.7,19.9c13.9,21.8-4,49.5-13.9,55.4l0,0
					c-3.9,4-5.9,6-5.9,9.9c0,2,0,2,0,4s0,2,0,4c0,6-2,9.9-7.9,9.9C127,95,125,95,123,95z M103.1,83.1L103.1,83.1c0,0,0,4,2,6
					s4,4,7.9,4c4,0,6,0,7.9,0c4,0,6,0,7.9,0c7.9-2,7.9-4,7.9-9.9c0-2,0-4,0-4c0-2,0-2,0-4c0-4,2-7.9,6-9.9l0,0
					c9.9-6,27.8-31.8,13.9-53.5C144.8-8.1,125-10.1,121-10.1l0,0l0,0l0,0c-4,0-21.8,0-35.7,19.9c-13.9,23.8,4,49.5,13.9,55.5
					c2,2,4,6,4,9.9v2C103.1,79.1,103.1,81.1,103.1,83.1L103.1,83.1z"/>
			</g>
			<g>
				<path fill="#F4CF56" d="M121-19.9c0,0,0-2-2-2c0-4-2-15.9,0-19.9s4,2,4,9.9S123-18.1,121-19.9z"/>
			</g>
			<g>
				<path fill="#F4CF56" d="M75.4,5.8h-2c-3.9-2-15.8-8-17.8-10c-2-4,4-2,11.9,2C73.5-0.2,79.4,3.8,75.4,5.8z"/>
			</g>
			<g>
				<path fill="#E93839" d="M97.2-14.1c0,0-13.9-21.8-17.9-21.8c-2,0,0,4,4,9.9c4,6.1,11.9,15.9,13.9,15.9S99.2-12.1,97.2-14.1z"/>
			</g>
			<g>
				<path fill="#E93839" d="M69.5,27.6c0,0-21.8,0-23.8,0c-2,2,4,4,9.9,4c6,0,15.9,0,17.9-2C73.5,27.6,73.5,27.6,69.5,27.6z"/>
			</g>
			<g>
				<path fill="#F4CF56" d="M166.7,5.8h2c3.9-2,15.8-6,17.8-10s-4-2-11.9,2C168.5-0.2,162.7,3.8,166.7,5.8z"/>
			</g>
			<g>
				<path fill="#E93839" d="M144.8-14.1c0,0,13.9-19.9,17.9-21.8c2,0,0,4-4,9.9c-4,7.9-11.9,15.9-13.9,15.9
					C144.8-10.1,144.8-12.1,144.8-14.1z"/>
			</g>
			<g>
				<path fill="#E93839" d="M172.5,27.6c0,0,21.8,0,23.8,0c2,2-4,4-9.9,4s-15.9,0-17.9-2C168.5,27.6,168.5,27.6,172.5,27.6z"/>
			</g>
			<g>
				<path d="M121,93L121,93c0,0-2-19.9-4-25.8c0-2-2-6-4-9.9c-2-4-4-11.9-4-15.9l0,0l0,0c2,6,4,11.9,6,17.9c2,4,2,6,4,9.9
					C121,73.2,121,91,121,93L121,93L121,93z"/>
			</g>
			<g>
				<path d="M121,93L121,93L121,93c0-2,0-21.8,2-27.8c0-2,2-6,4-9.9c2-6,4-11.9,6-17.9l0,0l0,0c0,7.9-4,15.9-6,19.9c0,4-2,7.9-2,9.9
					C123,73.2,121,93,121,93L121,93z"/>
			</g>
			<g>
				<path fill="#71CC55" d="M59.6,47.4c7.9,0,7.9,11.9,0,11.9C53.6,61.3,51.6,47.4,59.6,47.4z"/>
			</g>
			<g>
				<path fill="#E93839" d="M87.3,73.2c6,0,6,7.9,0,7.9C83.3,81.1,81.3,73.2,87.3,73.2z"/>
			</g>
			<g>
				<path fill="#F4CF56" d="M184.4,49.4c6,0,6,7.9,0,7.9C180.5,59.4,180.5,49.4,184.4,49.4z"/>
			</g>
			<g>
				<path fill="#71CC55" d="M158.7,71.2c7.9,0,7.9,11.9,0,11.9C152.8,83.1,152.8,71.2,158.7,71.2z"/>
			</g>
		</g>
</svg>
