<?xml version="1.0" encoding="utf-8"?>
<!-- Generator: Adobe Illustrator 19.0.0, SVG Export Plug-In . SVG Version: 6.00 Build 0)  -->
<svg version="1.1" id="Layer_1" xmlns="http://www.w3.org/2000/svg" xmlns:xlink="http://www.w3.org/1999/xlink" x="0px" y="0px"
	 width="50px" height="100px" viewBox="45 -20 50 100" style="enable-background:new 45 -20 50 100;" xml:space="preserve">
<style type="text/css">
	.st0{fill:#FFFFFF;}
</style>
<g>
	<path class="st0" d="M75.7,50.4c3.6-1,6.9-2.9,9.5-5.5c3.9-3.9,6.3-9.3,6.3-15.2V5.9c0-5.9-2.5-11.3-6.3-15.2
		c-3.9-3.9-9.3-6.3-15.2-6.3s-11.3,2.5-15.2,6.3C50.9-5.4,48.5,0,48.5,5.9v23.8c0,5.9,2.5,11.3,6.3,15.2c3.1,3.1,7,5.2,11.4,6
		C68.8,51.3,73.2,51.1,75.7,50.4L75.7,50.4z M69.8,34.3c2.2,0,4.1-1.8,4.1-4.1V26c0-2.2-1.8-4.1-4.1-4.1c-2.2,0-4.1,1.8-4.1,4.1v4.2
		C65.6,32.4,67.5,34.3,69.8,34.3z M81.6,41.2c-3,3-7.1,4.8-11.6,4.8s-8.6-1.8-11.6-4.8c-3-3-4.8-7.1-4.8-11.6V5.8
		c0-4.5,1.8-8.6,4.8-11.6c3-3,7.1-4.8,11.6-4.8s8.6,1.8,11.6,4.8c3,3,4.8,7.1,4.8,11.6v23.8C86.5,34.1,84.6,38.2,81.6,41.2z
		 M52.5,52.8c-0.9-0.9-2.5-0.9-3.4,0.1c-0.9,1-0.9,2.5,0.1,3.4L68.4,75l1.7-1.8L68.4,75c1,0.9,2.5,0.9,3.5-0.1l0.1-0.1l18.9-18.5
		c0.9-0.9,1-2.5,0.1-3.4c-0.9-0.9-2.5-1-3.4-0.1l-17.4,17L52.5,52.8L52.5,52.8z"/>
</g>
</svg>
