<svg id="car" xmlns="http://www.w3.org/2000/svg" width="578.884" height="172.711" viewBox="0 0 578.884 172.711">
                <g id="Group_141" data-name="Group 141" transform="translate(307.61 -1618.709)">
                  <g transform="translate(-307.61 1618.709)">
                    <g id="Group_45" data-name="Group 45">
                      <g id="Group_3" data-name="Group 3" transform="translate(400.797 18.616)">
                        <path id="Path_2" data-name="Path 2" d="M897.134,493.326a.639.639,0,0,1-.634-.634V460.434a.634.634,0,1,1,1.267,0v32.259A.575.575,0,0,1,897.134,493.326Z" transform="translate(-894.634 -459.8)" fill="#333e48"/>
                        <path id="Path_3" data-name="Path 3" d="M895.091,516.9h2.362l.634,3.687H894.4Z" transform="translate(-893.744 -484.007)" fill="#f8f8f9"/>
                        <path id="Path_4" data-name="Path 4" d="M897.6,520.754h-3.687a.626.626,0,0,1-.518-.23.588.588,0,0,1-.115-.518l.634-3.687a.675.675,0,0,1,.634-.519h2.362a.627.627,0,0,1,.634.519l.633,3.687a.553.553,0,0,1-.115.518C898.007,520.7,897.834,520.754,897.6,520.754Zm-2.88-1.267h2.131l-.4-2.362h-1.267Z" transform="translate(-893.261 -483.541)" fill="#333e48"/>
                      </g>
                      <path id="Path_5" data-name="Path 5" d="M295.4,571.6v37.674l15.381,15.439h15.957l10.945,8.929H446.039l5.3,2.707H640.573l5.415-2.765h18.088l5.53,6.682h63.827L745.3,628.4h29.206V571.6Z" transform="translate(-239.004 -488.581)" fill="#333e48"/>
                      <g id="Group_4" data-name="Group 4" transform="translate(112.561 95.289)">
                        <path id="Path_6" data-name="Path 6" d="M466.059,629.48a36.58,36.58,0,1,1-36.58-36.58,36.58,36.58,0,0,1,36.58,36.58Z" transform="translate(-392.9 -592.9)" fill="#333e48"/>
                        <path id="Path_7" data-name="Path 7" d="M954.28,592.9a36.558,36.558,0,0,0-36.58,36.58c0,13.249,16.36,36.58,36.58,36.58a36.58,36.58,0,0,0,0-73.159Z" transform="translate(-615.386 -592.9)" fill="#333e48"/>
                      </g>
                      <g id="Group_37" data-name="Group 37" transform="translate(100.003 92.409)">
                        <g id="rear-wheel" data-name="Component 14 – 1" transform="translate(0 0)">
                          <path id="Path_8" data-name="Path 8" d="M451.235,628.417A39.517,39.517,0,1,1,411.717,588.9a39.517,39.517,0,0,1,39.517,39.517Z" transform="translate(-371.566 -588.324)" fill="#757679"/>
                          <path id="Path_9" data-name="Path 9" d="M449.972,631.936A34.736,34.736,0,1,1,415.236,597.2a34.736,34.736,0,0,1,34.736,34.736Z" transform="translate(-375.085 -591.843)" fill="#808285"/>
                          <path id="Path_10" data-name="Path 10" d="M448.5,636.049A29.148,29.148,0,1,1,419.348,606.9,29.148,29.148,0,0,1,448.5,636.049Z" transform="translate(-379.197 -595.955)" fill="#67686b"/>
                          <path id="Path_11" data-name="Path 11" d="M411.251,668.2A40.151,40.151,0,1,1,451.4,628.051,40.184,40.184,0,0,1,411.251,668.2Zm0-79.035a38.884,38.884,0,1,0,38.884,38.884A38.942,38.942,0,0,0,411.251,589.167Z" transform="translate(-371.1 -587.9)" fill="#333e48"/>
                          <path id="Path_12" data-name="Path 12" d="M447.052,640.076A23.676,23.676,0,1,1,423.376,616.4,23.676,23.676,0,0,1,447.052,640.076Z" transform="translate(-383.225 -599.982)" fill="#d1d3d4"/>
                          <path id="Path_13" data-name="Path 13" d="M423.376,663.582A23.759,23.759,0,0,1,400.564,646.3a23.69,23.69,0,1,0,46.488,6.452,23.889,23.889,0,0,0-.864-6.452A23.64,23.64,0,0,1,423.376,663.582Z" transform="translate(-383.225 -612.658)" fill="#b6b8ba"/>
                          <path id="Path_14" data-name="Path 14" d="M422.91,664.019a24.31,24.31,0,1,1,24.31-24.31A24.314,24.314,0,0,1,422.91,664.019Zm0-47.352a23.042,23.042,0,1,0,23.042,23.042A23.073,23.073,0,0,0,422.91,616.667Z" transform="translate(-382.758 -599.558)" fill="#333e48"/>
                          <path id="Path_15" data-name="Path 15" d="M428,662.194a17.4,17.4,0,1,1,17.4-17.4A17.418,17.418,0,0,1,428,662.194Zm0-33.526a16.13,16.13,0,1,0,16.13,16.13A16.14,16.14,0,0,0,428,628.667Z" transform="translate(-387.846 -604.646)" fill="#434345"/>
                          <path id="Path_16" data-name="Path 16" d="M443.8,649.148A11.348,11.348,0,1,1,432.448,637.8,11.348,11.348,0,0,1,443.8,649.148Z" transform="translate(-392.297 -609.055)" fill="#e6e7e8"/>
                          <path id="Path_17" data-name="Path 17" d="M431.982,660.664a11.982,11.982,0,1,1,11.982-11.982A11.973,11.973,0,0,1,431.982,660.664Zm0-22.639a10.657,10.657,0,1,0,10.657,10.657A10.67,10.67,0,0,0,431.982,638.025Z" transform="translate(-391.831 -608.588)" fill="#333e48"/>
                          <path id="Path_18" data-name="Path 18" d="M441.576,655.338a2.938,2.938,0,1,1-2.938-2.938A2.938,2.938,0,0,1,441.576,655.338Z" transform="translate(-398.487 -615.244)" fill="#d1d3d4"/>
                          <path id="Path_19" data-name="Path 19" d="M438.172,658.543a3.572,3.572,0,1,1,3.572-3.572A3.553,3.553,0,0,1,438.172,658.543Zm0-5.876a2.3,2.3,0,1,0,2.3,2.3A2.311,2.311,0,0,0,438.172,652.667Z" transform="translate(-398.02 -614.82)" fill="#333e48"/>
                          <g id="Group_10" data-name="Group 10" transform="translate(31.195 30.877)">
                            <g id="Group_5" data-name="Group 5" transform="translate(6.709)">
                              <path id="Path_20" data-name="Path 20" d="M441.226,644.213a1.613,1.613,0,1,1-1.613-1.613A1.613,1.613,0,0,1,441.226,644.213Z" transform="translate(-437.366 -641.966)" fill="#d1d3d4"/>
                              <path id="Path_21" data-name="Path 21" d="M439.147,645.993a2.249,2.249,0,0,1-2.247-2.247,2.288,2.288,0,0,1,2.247-2.247,2.247,2.247,0,0,1,0,4.493Zm0-3.226a.971.971,0,0,0-.979.979.979.979,0,1,0,1.959,0A.971.971,0,0,0,439.147,642.767Z" transform="translate(-436.9 -641.5)" fill="#333e48"/>
                            </g>
                            <g id="Group_6" data-name="Group 6" transform="translate(0 4.833)">
                              <path id="Path_22" data-name="Path 22" d="M3.226,1.613A1.613,1.613,0,1,1,1.613,0,1.613,1.613,0,0,1,3.226,1.613Z" transform="translate(0.28 3.279) rotate(-72.002)" fill="#d1d3d4"/>
                              <path id="Path_23" data-name="Path 23" d="M427.527,654.389a2.892,2.892,0,0,1-.691-.115,2.272,2.272,0,0,1-1.325-1.094,2.016,2.016,0,0,1-.115-1.728h0a2.241,2.241,0,1,1,2.131,2.938Zm-.864-2.535a1.124,1.124,0,0,0,.058.749.792.792,0,0,0,.576.461.966.966,0,1,0,.576-1.843.927.927,0,0,0-1.21.634Z" transform="translate(-425.253 -649.89)" fill="#333e48"/>
                            </g>
                            <g id="Group_7" data-name="Group 7" transform="translate(2.584 12.58)">
                              <path id="Path_24" data-name="Path 24" d="M3.226,1.613A1.613,1.613,0,1,1,1.613,0,1.613,1.613,0,0,1,3.226,1.613Z" transform="matrix(0.588, -0.809, 0.809, 0.588, 0.015, 2.689)" fill="#d1d3d4"/>
                              <path id="Path_25" data-name="Path 25" d="M432.021,667.925a2.308,2.308,0,0,1-1.325-.461,2.4,2.4,0,0,1-.922-1.5,2.162,2.162,0,0,1,.4-1.671,2.4,2.4,0,0,1,1.5-.922,2.162,2.162,0,0,1,1.671.4,2.4,2.4,0,0,1,.922,1.5,2.162,2.162,0,0,1-.4,1.671,2.4,2.4,0,0,1-1.5.922A.73.73,0,0,1,432.021,667.925Zm0-3.226h-.173a1.1,1.1,0,0,0-.634.4.938.938,0,0,0,.23,1.325h0a.8.8,0,0,0,.691.173,1.1,1.1,0,0,0,.634-.4.8.8,0,0,0,.173-.691,1.1,1.1,0,0,0-.4-.634A1.831,1.831,0,0,0,432.021,664.7Z" transform="translate(-429.738 -663.338)" fill="#333e48"/>
                            </g>
                            <g id="Group_8" data-name="Group 8" transform="translate(10.821 12.637)">
                              <path id="Path_26" data-name="Path 26" d="M3.226,1.613A1.613,1.613,0,1,1,1.613,0,1.613,1.613,0,0,1,3.226,1.613Z" transform="matrix(0.809, -0.588, 0.588, 0.809, 0.028, 1.913)" fill="#d1d3d4"/>
                              <path id="Path_27" data-name="Path 27" d="M446.32,667.966a2.4,2.4,0,0,1-1.843-.922,2.162,2.162,0,0,1-.4-1.671,2.455,2.455,0,0,1,.922-1.5,2.27,2.27,0,0,1,2.65,3.687h0A2.242,2.242,0,0,1,446.32,667.966Zm0-3.168a1.111,1.111,0,0,0-.576.173.944.944,0,0,0-.4.634.757.757,0,0,0,.173.691.951.951,0,1,0,1.555-1.094A.839.839,0,0,0,446.32,664.8Z" transform="translate(-444.038 -663.437)" fill="#333e48"/>
                            </g>
                            <g id="Group_9" data-name="Group 9" transform="translate(13.391 4.838)">
                              <path id="Path_28" data-name="Path 28" d="M3.226,1.613A1.613,1.613,0,1,1,1.613,0,1.613,1.613,0,0,1,3.226,1.613Z" transform="translate(0.225 1.235) rotate(-17.998)" fill="#d1d3d4"/>
                              <path id="Path_29" data-name="Path 29" d="M450.746,654.393a2.147,2.147,0,0,1-2.131-1.555,2.241,2.241,0,1,1,4.263-1.383h0a2.538,2.538,0,0,1-.115,1.728,2.114,2.114,0,0,1-1.325,1.095A2.892,2.892,0,0,1,450.746,654.393Zm0-3.226a.52.52,0,0,0-.288.057,1,1,0,0,0-.634,1.21.915.915,0,0,0,.461.576,1.094,1.094,0,0,0,.749.058.916.916,0,0,0,.576-.461,1.1,1.1,0,0,0,.058-.749A.986.986,0,0,0,450.746,651.167Z" transform="translate(-448.499 -649.899)" fill="#333e48"/>
                            </g>
                          </g>
                          <g id="Group_11" data-name="Group 11" transform="translate(37.789 19.874)">
                            <path id="Path_30" data-name="Path 30" d="M441.424,624.762a2.362,2.362,0,1,1-2.362-2.362A2.362,2.362,0,0,1,441.424,624.762Z" transform="translate(-436.7 -622.4)" fill="#333e48"/>
                          </g>
                          <g id="Group_12" data-name="Group 12" transform="translate(25.358 23.089)">
                            <path id="Path_31" data-name="Path 31" d="M4.724,2.362A2.362,2.362,0,1,1,2.362,0,2.362,2.362,0,0,1,4.724,2.362Z" transform="translate(0 3.036) rotate(-40.002)" fill="#333e48"/>
                          </g>
                          <g id="Group_13" data-name="Group 13" transform="translate(19.849 34.259)">
                            <path id="Path_32" data-name="Path 32" d="M4.724,2.362A2.362,2.362,0,1,1,2.362,0,2.362,2.362,0,0,1,4.724,2.362Z" transform="translate(0 4.652) rotate(-80.003)" fill="#333e48"/>
                          </g>
                          <g id="Group_14" data-name="Group 14" transform="translate(21.464 45.781)">
                            <path id="Path_33" data-name="Path 33" d="M4.724,2.362A2.362,2.362,0,1,1,2.362,0,2.362,2.362,0,0,1,4.724,2.362Z" transform="matrix(0.866, -0.5, 0.5, 0.866, 0, 2.362)" fill="#333e48"/>
                          </g>
                          <g id="Group_15" data-name="Group 15" transform="translate(31.032 53.881)">
                            <path id="Path_34" data-name="Path 34" d="M4.724,2.362A2.362,2.362,0,1,1,2.362,0,2.362,2.362,0,0,1,4.724,2.362Z" transform="translate(0 4.439) rotate(-70.001)" fill="#333e48"/>
                          </g>
                          <g id="Group_16" data-name="Group 16" transform="translate(43.229 53.901)">
                            <path id="Path_35" data-name="Path 35" d="M4.724,2.362A2.362,2.362,0,1,1,2.362,0,2.362,2.362,0,0,1,4.724,2.362Z" transform="translate(0 1.615) rotate(-19.999)" fill="#333e48"/>
                          </g>
                          <g id="Group_17" data-name="Group 17" transform="translate(52.382 45.808)">
                            <path id="Path_36" data-name="Path 36" d="M4.724,2.362A2.362,2.362,0,1,1,2.362,0,2.362,2.362,0,0,1,4.724,2.362Z" transform="matrix(0.5, -0.866, 0.866, 0.5, 0, 4.091)" fill="#333e48"/>
                          </g>
                          <g id="Group_18" data-name="Group 18" transform="translate(55.026 34.311)">
                            <path id="Path_37" data-name="Path 37" d="M4.724,2.362A2.362,2.362,0,1,1,2.362,0,2.362,2.362,0,0,1,4.724,2.362Z" transform="translate(0 0.82) rotate(-9.997)" fill="#333e48"/>
                          </g>
                          <g id="Group_19" data-name="Group 19" transform="translate(48.33 23.109)">
                            <path id="Path_38" data-name="Path 38" d="M4.724,2.362A2.362,2.362,0,1,1,2.362,0,2.362,2.362,0,0,1,4.724,2.362Z" transform="translate(0 3.618) rotate(-49.998)" fill="#333e48"/>
                          </g>
                        </g>
                      </g>
                      <g id="Group_37_2" data-name="Group 37_2" transform="translate(420 92.409)">
                          <g id="front-wheel" data-name="Group 37_2" transform="translate(0 0)">
                          <path id="Path_39" data-name="Path 39" d="M1006.135,628.417A39.517,39.517,0,1,1,966.617,588.9a39.518,39.518,0,0,1,39.518,39.517Z" transform="translate(-926.466 -588.324)" fill="#757679"/>
                          <path id="Path_40" data-name="Path 40" d="M1004.872,631.936A34.736,34.736,0,1,1,970.136,597.2,34.736,34.736,0,0,1,1004.872,631.936Z" transform="translate(-929.985 -591.843)" fill="#808285"/>
                          <path id="Path_41" data-name="Path 41" d="M1003.4,636.049A29.149,29.149,0,1,1,974.248,606.9a29.148,29.148,0,0,1,29.149,29.148Z" transform="translate(-934.097 -595.955)" fill="#67686b"/>
                          <path id="Path_42" data-name="Path 42" d="M966.151,668.2a40.151,40.151,0,1,1,40.151-40.151A40.184,40.184,0,0,1,966.151,668.2Zm0-79.035a38.884,38.884,0,1,0,38.884,38.884A38.942,38.942,0,0,0,966.151,589.167Z" transform="translate(-926 -587.9)" fill="#333e48"/>
                          <path id="Path_43" data-name="Path 43" d="M1001.952,640.076A23.676,23.676,0,1,1,978.276,616.4,23.676,23.676,0,0,1,1001.952,640.076Z" transform="translate(-938.125 -599.982)" fill="#d1d3d4"/>
                          <path id="Path_44" data-name="Path 44" d="M978.276,663.582A23.759,23.759,0,0,1,955.464,646.3a23.69,23.69,0,1,0,46.488,6.452,23.886,23.886,0,0,0-.864-6.452A23.691,23.691,0,0,1,978.276,663.582Z" transform="translate(-938.125 -612.658)" fill="#b6b8ba"/>
                          <path id="Path_45" data-name="Path 45" d="M977.81,664.019a24.31,24.31,0,1,1,24.31-24.31A24.314,24.314,0,0,1,977.81,664.019Zm0-47.352a23.042,23.042,0,1,0,23.042,23.042A23.073,23.073,0,0,0,977.81,616.667Z" transform="translate(-937.659 -599.559)" fill="#333e48"/>
                          <path id="Path_46" data-name="Path 46" d="M982.9,662.194a17.4,17.4,0,1,1,17.4-17.4A17.418,17.418,0,0,1,982.9,662.194Zm0-33.526a16.13,16.13,0,1,0,16.13,16.13A16.14,16.14,0,0,0,982.9,628.667Z" transform="translate(-942.746 -604.646)" fill="#434345"/>
                          <path id="Path_47" data-name="Path 47" d="M998.7,649.148A11.348,11.348,0,1,1,987.348,637.8,11.348,11.348,0,0,1,998.7,649.148Z" transform="translate(-947.197 -609.055)" fill="#e6e7e8"/>
                          <path id="Path_48" data-name="Path 48" d="M986.882,660.664a11.982,11.982,0,1,1,11.982-11.982A11.973,11.973,0,0,1,986.882,660.664Zm0-22.639a10.657,10.657,0,1,0,10.657,10.657A10.67,10.67,0,0,0,986.882,638.025Z" transform="translate(-946.731 -608.589)" fill="#333e48"/>
                          <path id="Path_49" data-name="Path 49" d="M996.476,655.338a2.938,2.938,0,1,1-2.938-2.938,2.938,2.938,0,0,1,2.938,2.938Z" transform="translate(-953.387 -615.244)" fill="#d1d3d4"/>
                          <path id="Path_50" data-name="Path 50" d="M993.072,658.543a3.572,3.572,0,1,1,3.572-3.572A3.589,3.589,0,0,1,993.072,658.543Zm0-5.876a2.3,2.3,0,1,0,2.3,2.3A2.311,2.311,0,0,0,993.072,652.667Z" transform="translate(-952.921 -614.82)" fill="#333e48"/>
                          <g id="Group_26" data-name="Group 26" transform="translate(31.195 30.877)">
                            <g id="Group_21" data-name="Group 21" transform="translate(6.709)">
                              <path id="Path_51" data-name="Path 51" d="M996.126,644.213a1.613,1.613,0,1,1-1.613-1.613A1.613,1.613,0,0,1,996.126,644.213Z" transform="translate(-992.266 -641.966)" fill="#d1d3d4"/>
                              <path id="Path_52" data-name="Path 52" d="M994.047,645.993a2.249,2.249,0,0,1-2.247-2.247,2.288,2.288,0,0,1,2.247-2.247,2.247,2.247,0,1,1,0,4.493Zm0-3.226a.971.971,0,0,0-.979.979.937.937,0,0,0,.979.979.979.979,0,1,0,0-1.959Z" transform="translate(-991.8 -641.5)" fill="#333e48"/>
                            </g>
                            <g id="Group_22" data-name="Group 22" transform="translate(0 4.833)">
                              <path id="Path_53" data-name="Path 53" d="M3.226,1.613A1.613,1.613,0,1,1,1.613,0,1.613,1.613,0,0,1,3.226,1.613Z" transform="translate(0.26 3.244) rotate(-72.002)" fill="#d1d3d4"/>
                              <path id="Path_54" data-name="Path 54" d="M982.427,654.389a2.89,2.89,0,0,1-.691-.115,2.272,2.272,0,0,1-1.325-1.094,2.016,2.016,0,0,1-.115-1.728h0a2.241,2.241,0,0,1,4.263,1.383A2.285,2.285,0,0,1,982.427,654.389Zm-.922-2.535a.966.966,0,1,0,1.21-.634A.949.949,0,0,0,981.505,651.854Z" transform="translate(-980.153 -649.89)" fill="#333e48"/>
                            </g>
                            <g id="Group_23" data-name="Group 23" transform="translate(2.526 12.638)">
                              <path id="Path_55" data-name="Path 55" d="M3.226,1.613A1.613,1.613,0,1,1,1.613,0,1.613,1.613,0,0,1,3.226,1.613Z" transform="matrix(0.588, -0.809, 0.809, 0.588, 0.035, 2.666)" fill="#d1d3d4"/>
                              <path id="Path_56" data-name="Path 56" d="M986.821,667.967a2.739,2.739,0,0,1-1.325-.4h0a2.4,2.4,0,0,1-.922-1.5,2.161,2.161,0,0,1,.4-1.671,2.4,2.4,0,0,1,1.5-.922,2.162,2.162,0,0,1,1.671.4,2.4,2.4,0,0,1,.922,1.5,2.161,2.161,0,0,1-.4,1.67,2.4,2.4,0,0,1-1.5.922Zm0-3.168a.839.839,0,0,0-.749.4.8.8,0,0,0-.173.691,1.094,1.094,0,0,0,.4.634h0a.8.8,0,0,0,.691.173,1.1,1.1,0,0,0,.634-.4.8.8,0,0,0,.173-.691,1.1,1.1,0,0,0-.4-.634A.975.975,0,0,0,986.821,664.8Z" transform="translate(-984.538 -663.438)" fill="#333e48"/>
                            </g>
                            <g id="Group_24" data-name="Group 24" transform="translate(10.82 12.636)">
                              <path id="Path_57" data-name="Path 57" d="M3.226,1.613A1.613,1.613,0,1,1,1.613,0,1.613,1.613,0,0,1,3.226,1.613Z" transform="matrix(0.809, -0.588, 0.588, 0.809, 0.02, 1.896)" fill="#d1d3d4"/>
                              <path id="Path_58" data-name="Path 58" d="M1001.22,667.966a2.4,2.4,0,0,1-1.843-.922,2.27,2.27,0,1,1,3.168.518h0A2.243,2.243,0,0,1,1001.22,667.966Zm0-3.168a1.111,1.111,0,0,0-.576.173.951.951,0,0,0,1.095,1.555h0a.992.992,0,0,0,.23-1.325A.839.839,0,0,0,1001.22,664.8Z" transform="translate(-998.937 -663.436)" fill="#333e48"/>
                            </g>
                            <g id="Group_25" data-name="Group 25" transform="translate(13.391 4.838)">
                              <path id="Path_59" data-name="Path 59" d="M3.226,1.613A1.613,1.613,0,1,1,1.613,0,1.613,1.613,0,0,1,3.226,1.613Z" transform="translate(0.237 1.234) rotate(-17.998)" fill="#d1d3d4"/>
                              <path id="Path_60" data-name="Path 60" d="M1005.646,654.393a2.147,2.147,0,0,1-2.131-1.555,2.241,2.241,0,1,1,4.263-1.383h0a2.538,2.538,0,0,1-.115,1.728,2.272,2.272,0,0,1-1.325,1.095A2.89,2.89,0,0,1,1005.646,654.393Zm0-3.226a.52.52,0,0,0-.288.057,1,1,0,0,0-.634,1.21.915.915,0,0,0,.461.576,1.1,1.1,0,0,0,.749.058.915.915,0,0,0,.576-.461,1.094,1.094,0,0,0,.058-.749A1.045,1.045,0,0,0,1005.646,651.167Z" transform="translate(-1003.399 -649.899)" fill="#333e48"/>
                            </g>
                          </g>
                          <g id="Group_27" data-name="Group 27" transform="translate(37.789 19.874)">
                            <path id="Path_61" data-name="Path 61" d="M996.324,624.762a2.362,2.362,0,1,1-2.362-2.362,2.362,2.362,0,0,1,2.362,2.362Z" transform="translate(-991.6 -622.4)" fill="#333e48"/>
                          </g>
                          <g id="Group_28" data-name="Group 28" transform="translate(25.339 23.071)">
                            <path id="Path_62" data-name="Path 62" d="M4.724,2.362A2.362,2.362,0,1,1,2.362,0,2.362,2.362,0,0,1,4.724,2.362Z" transform="translate(0 3.036) rotate(-40.002)" fill="#333e48"/>
                          </g>
                          <g id="Group_29" data-name="Group 29" transform="translate(19.805 34.296)">
                            <path id="Path_63" data-name="Path 63" d="M4.724,2.362A2.362,2.362,0,1,1,2.362,0,2.362,2.362,0,0,1,4.724,2.362Z" transform="translate(0 4.652) rotate(-80.003)" fill="#333e48"/>
                          </g>
                          <g id="Group_30" data-name="Group 30" transform="translate(21.404 45.799)">
                            <path id="Path_64" data-name="Path 64" d="M4.724,2.362A2.362,2.362,0,1,1,2.362,0,2.362,2.362,0,0,1,4.724,2.362Z" transform="matrix(0.866, -0.5, 0.5, 0.866, 0, 2.362)" fill="#333e48"/>
                          </g>
                          <g id="Group_31" data-name="Group 31" transform="translate(31.011 53.858)">
                            <path id="Path_65" data-name="Path 65" d="M4.724,2.362A2.362,2.362,0,1,1,2.362,0,2.362,2.362,0,0,1,4.724,2.362Z" transform="translate(0 4.439) rotate(-70.001)" fill="#333e48"/>
                          </g>
                          <g id="Group_32" data-name="Group 32" transform="translate(43.23 53.9)">
                            <path id="Path_66" data-name="Path 66" d="M4.724,2.362A2.362,2.362,0,1,1,2.362,0,2.362,2.362,0,0,1,4.724,2.362Z" transform="translate(0 1.615) rotate(-19.999)" fill="#333e48"/>
                          </g>
                          <g id="Group_33" data-name="Group 33" transform="translate(52.343 45.847)">
                            <path id="Path_67" data-name="Path 67" d="M4.724,2.362A2.362,2.362,0,1,1,2.362,0,2.362,2.362,0,0,1,4.724,2.362Z" transform="matrix(0.5, -0.866, 0.866, 0.5, 0, 4.091)" fill="#333e48"/>
                          </g>
                          <g id="Group_34" data-name="Group 34" transform="translate(54.967 34.333)">
                            <path id="Path_68" data-name="Path 68" d="M4.724,2.362A2.362,2.362,0,1,1,2.362,0,2.362,2.362,0,0,1,4.724,2.362Z" transform="translate(0 0.82) rotate(-9.997)" fill="#333e48"/>
                          </g>
                          <g id="Group_35" data-name="Group 35" transform="translate(48.289 23.151)">
                            <path id="Path_69" data-name="Path 69" d="M4.724,2.362A2.362,2.362,0,1,1,2.362,0,2.362,2.362,0,0,1,4.724,2.362Z" transform="translate(0 3.618) rotate(-49.998)" fill="#333e48"/>
                          </g>
                        </g>
                      </g>
                      <path id="Path_70" data-name="Path 70" d="M581.916,480.122s-40.5-43.665-54.9-49.886c-14.344-6.221-133.242-.634-153.749,7.2-20.45,7.834-104.727,45.969-125.407,49.656s-46.6-.634-47.7,2.765c-2.189,6.913,4.032,40.093,7.086,55.359a10.585,10.585,0,0,0,9.447,8.468l67.11,5.76,7.316-14.862a37.909,37.909,0,0,1,33.987-21.141h30.243a22.611,22.611,0,0,1,22.005,17.339l5.53,22.985a7.389,7.389,0,0,0,7.143,5.645h212.68a7.326,7.326,0,0,0,6.913-4.9l7.6-21.257a30.944,30.944,0,0,1,29.148-20.565h36.752a15.906,15.906,0,0,1,14.862,10.254l8.814,23.388a5.542,5.542,0,0,0,5.127,3.572H747.3l8.468-10.427,14.344-10.139V500.457C730.884,482.83,581.916,480.122,581.916,480.122Zm-22.466.288c-15.611,1.44-34.1,2.189-55.3,2.189-54.725,0-110.084-4.839-125.753-6.279-1.267-.115-2.65-.23-4.09-.346a4.577,4.577,0,0,1-3.572-2.247,4.343,4.343,0,0,1,2.016-6.049c13.192-5.933,53-23.618,63.136-26.326,12.27-3.283,81.973-2.765,85.084-1.325,2.535,1.21,30.128,27.535,39.69,36.752A2.1,2.1,0,0,1,559.45,480.41Z" transform="translate(-198.436 -427.519)" fill="#676974"/>
                      <path id="Path_71" data-name="Path 71" d="M527.132,431.336c-14.344-6.221-133.242-.634-153.749,7.2-20.45,7.834-104.727,45.969-125.407,49.656s-46.6-.634-47.7,2.765c-.922,3-.288,10.83.979,20.047h569.2v-9.447c-39.517-17.627-188.428-20.335-188.428-20.335S541.476,437.557,527.132,431.336Zm32.374,50.175c-15.611,1.44-34.1,2.189-55.3,2.189-54.725,0-110.084-4.839-125.753-6.279-1.267-.115-2.65-.23-4.09-.346a4.577,4.577,0,0,1-3.572-2.247,4.343,4.343,0,0,1,2.016-6.049c13.192-5.933,53-23.618,63.136-26.326,12.27-3.284,81.973-2.765,85.084-1.325,2.535,1.21,30.128,27.535,39.69,36.752A2.1,2.1,0,0,1,559.507,481.51Z" transform="translate(-198.492 -427.985)" fill="#767885"/>
                      <path id="Path_72" data-name="Path 72" d="M514.4,650l2.074,8.7a7.389,7.389,0,0,0,7.143,5.645H736.3a7.326,7.326,0,0,0,6.913-4.9L746.551,650H514.4Z" transform="translate(-331.848 -521.818)" fill="#5a5c66"/>
                      <path id="Path_73" data-name="Path 73" d="M675.775,481.222s-40.5-43.665-54.9-49.886c-14.344-6.221-133.242-.634-153.749,7.2-5.185,2.016-14.517,5.933-25.807,10.772L421.1,467.973l3.687,13.134c33.757-1.843,146.664,11,189.177,8.238,0,0,43.78.173,58.182-1.152,14.344-1.325,146.318,2.189,192.057,15.15v-1.728C824.743,483.93,675.775,481.222,675.775,481.222Zm-22.466.288c-15.611,1.44-34.1,2.189-55.3,2.189-54.725,0-110.084-4.839-125.753-6.279-1.267-.115-2.65-.23-4.09-.346a4.577,4.577,0,0,1-3.572-2.247,4.343,4.343,0,0,1,2.016-6.049c13.192-5.933,53-23.618,63.136-26.326,12.27-3.284,81.973-2.765,85.083-1.325,2.535,1.21,30.128,27.535,39.69,36.752A2.1,2.1,0,0,1,653.308,481.51Z" transform="translate(-292.294 -427.985)" fill="#9895a0"/>
                      <path id="Path_74" data-name="Path 74" d="M294.118,634.443c-22.927-.518-64.115-4.205-82.318-7.143.23,1.152.461,2.247.634,3.226a10.585,10.585,0,0,0,9.447,8.468l67.111,5.761Z" transform="translate(-203.562 -512.195)" fill="#5a5c66"/>
                      <path id="Path_75" data-name="Path 75" d="M252.279,524.306h0q-2.506.691-4.32,1.037c-20.68,3.687-46.6-.634-47.7,2.765a18.825,18.825,0,0,0-.461,5.069c55.071,5.242,108.644-16.3,156.745-16.878C317.834,516.184,264.03,521.887,252.279,524.306Z" transform="translate(-198.475 -465.136)" fill="#9895a0"/>
                      <path id="Path_76" data-name="Path 76" d="M602.5,570.643H389.815a8.012,8.012,0,0,1-7.777-6.106l-5.53-22.985a21.937,21.937,0,0,0-21.372-16.821H324.894a37.055,37.055,0,0,0-33.411,20.738l-7.546,15.265-.461-.058-67.111-5.76a11.2,11.2,0,0,1-10.023-8.986c-3.572-17.858-9.217-48.792-7.085-55.7.634-2.016,5.357-2.016,15.9-1.786,9.62.23,21.545.461,32.317-1.44,14.517-2.592,60.313-22.178,93.782-36.407,13.653-5.818,25.462-10.887,31.51-13.192,11.406-4.378,49.886-7.546,79.381-8.929s66.822-1.728,74.887,1.728c14,6.049,51.5,46.2,54.9,49.829,7.316.173,150.063,3.284,188.428,20.392l.4.173v39.633l-14.574,10.254-8.641,10.6H711.831a6.245,6.245,0,0,1-5.761-3.975l-8.814-23.388a15.345,15.345,0,0,0-14.229-9.851H646.275a30.271,30.271,0,0,0-28.515,20.1l-7.6,21.257A8.291,8.291,0,0,1,602.5,570.643Zm-277.6-47.294h30.243a23.234,23.234,0,0,1,22.639,17.8l5.53,22.985a6.715,6.715,0,0,0,6.509,5.127H602.5a6.652,6.652,0,0,0,6.279-4.436l7.6-21.256A31.626,31.626,0,0,1,646.1,522.6h36.752a16.528,16.528,0,0,1,15.438,10.715l8.814,23.388a4.806,4.806,0,0,0,4.551,3.111H746.74l8.41-10.312,14.113-9.908V501.516c-39.518-17.224-186.354-20.1-187.794-20.1h-.288l-.173-.23c-.4-.461-40.554-43.665-54.668-49.714-14.171-6.106-133.011-.518-153.231,7.2-6.049,2.3-17.8,7.316-31.453,13.134-33.526,14.286-79.438,33.872-94.07,36.522-10.887,1.959-23.445,1.671-32.6,1.5-6.337-.115-14.229-.288-14.574.864-2.131,6.855,4.263,40.785,7.143,55.071a9.975,9.975,0,0,0,8.871,7.949l66.707,5.7,7.143-14.459A38.3,38.3,0,0,1,324.894,523.349Zm178.865-39.518c-54.725,0-110.142-4.839-125.811-6.279-1.267-.115-2.592-.23-4.09-.346a5.1,5.1,0,0,1-4.09-2.592,4.944,4.944,0,0,1,2.362-6.913c12.212-5.473,52.94-23.618,63.251-26.383,12.443-3.341,82.434-2.708,85.544-1.267,2.592,1.21,28.745,26.211,39.863,36.868a2.685,2.685,0,0,1,.691,2.88,2.742,2.742,0,0,1-2.362,1.843h0C543.507,483.083,524.9,483.831,503.759,483.831Zm-16.878-43.723c-20.68,0-44.472.634-51.154,2.419-10.2,2.707-50.866,20.8-63.078,26.268a3.519,3.519,0,0,0-1.959,2.189,3.732,3.732,0,0,0,.23,2.938,3.681,3.681,0,0,0,3,1.9c1.44.115,2.823.23,4.09.346,15.669,1.5,71.028,6.279,125.7,6.279,21.084,0,39.69-.749,55.244-2.189l.058.634-.058-.634a1.353,1.353,0,0,0,1.21-.979,1.451,1.451,0,0,0-.346-1.5c-22.7-21.833-37.847-35.888-39.517-36.637C518.967,440.57,503.99,440.109,486.881,440.109Z" transform="translate(-198.046 -427.484)" fill="#333e48"/>
                      <path id="Path_77" data-name="Path 77" d="M440.6,608.635A26.493,26.493,0,0,0,414.791,588.3H384.548a41.55,41.55,0,0,0-37.5,23.33l-6.164,12.443-1.382,3.8,3.687.288L350.5,613.3A37.909,37.909,0,0,1,384.49,592.16h30.243A22.611,22.611,0,0,1,436.738,609.5l5.53,22.985a7.324,7.324,0,0,0,5.991,5.53Z" transform="translate(-257.7 -495.661)" fill="#f8f8f9"/>
                      <path id="Path_78" data-name="Path 78" d="M998.821,599.789A19.852,19.852,0,0,0,980.272,587H943.52a34.916,34.916,0,0,0-32.835,23.157L900.2,637.635a7.259,7.259,0,0,0,6.567-4.9l7.6-21.257a30.944,30.944,0,0,1,29.148-20.565h36.752a15.906,15.906,0,0,1,14.862,10.254l8.814,23.388a5.542,5.542,0,0,0,5.127,3.572h.4Z" transform="translate(-495.405 -495.11)" fill="#f8f8f9"/>
                      <path id="Path_79" data-name="Path 79" d="M448.545,638.454l-.979-.173a8.023,8.023,0,0,1-6.509-5.991l-5.53-22.985a21.937,21.937,0,0,0-21.372-16.821H383.912A37.055,37.055,0,0,0,350.5,613.223l-7.546,15.266-4.954-.4,1.671-4.666,6.164-12.443A42.286,42.286,0,0,1,383.912,587.3h30.243A27.129,27.129,0,0,1,440.6,608.1ZM383.912,591.1h30.243a23.234,23.234,0,0,1,22.639,17.8l5.53,22.985a6.647,6.647,0,0,0,4.436,4.781l-7.431-28.4a25.818,25.818,0,0,0-25.174-19.816H383.912a40.964,40.964,0,0,0-36.925,22.927l-6.164,12.443-1.037,3,2.419.23,7.143-14.459A38.25,38.25,0,0,1,383.912,591.1Z" transform="translate(-257.064 -495.237)" fill="#333e48"/>
                      <path id="Path_80" data-name="Path 80" d="M898.5,637.76l10.83-28.4A35.542,35.542,0,0,1,942.741,585.8h36.752a20.505,20.505,0,0,1,19.125,13.249l11.06,29.206H1008.3a6.245,6.245,0,0,1-5.76-3.975l-8.814-23.388a15.345,15.345,0,0,0-14.228-9.851H942.741a30.271,30.271,0,0,0-28.515,20.1l-7.6,21.257a8.044,8.044,0,0,1-7.2,5.3Zm44.3-50.635a34.243,34.243,0,0,0-32.2,22.7l-10.081,26.441a6.526,6.526,0,0,0,4.954-4.32l7.6-21.256A31.626,31.626,0,0,1,942.8,589.717h36.752a16.528,16.528,0,0,1,15.438,10.715l8.814,23.388a4.758,4.758,0,0,0,4.032,3.111l-10.369-27.42a19.207,19.207,0,0,0-17.915-12.385Z" transform="translate(-494.685 -494.601)" fill="#333e48"/>
                      <g id="Group_38" data-name="Group 38" transform="translate(508.973 106.637)">
                        <path id="Path_81" data-name="Path 81" d="M1100.219,613.6h-16.3a1.878,1.878,0,0,0-1.613,2.823l2.247,3.687a1.789,1.789,0,0,0,1.613.864h14a1.942,1.942,0,0,0,1.958-1.959v-3.456A1.861,1.861,0,0,0,1100.219,613.6Z" transform="translate(-1081.467 -613.024)" fill="#c2c4c6"/>
                        <path id="Path_82" data-name="Path 82" d="M1087.9,620.341l-1.728-2.823a.34.34,0,0,1,.288-.518h15.15a.372.372,0,0,1,.346.346v2.823a.372.372,0,0,1-.346.346h-13.364A.348.348,0,0,1,1087.9,620.341Z" transform="translate(-1083.199 -614.465)" fill="#f58238"/>
                        <path id="Path_83" data-name="Path 83" d="M1099.8,621.3h-14a2.514,2.514,0,0,1-2.131-1.21l-2.247-3.687a2.5,2.5,0,0,1-.057-2.535,2.47,2.47,0,0,1,2.189-1.267h16.3a2.581,2.581,0,0,1,2.592,2.592v3.572A2.659,2.659,0,0,1,1099.8,621.3Zm-16.245-7.489a1.088,1.088,0,0,0-1.037.634,1.144,1.144,0,0,0,0,1.21l2.246,3.687a1.287,1.287,0,0,0,1.037.576h14a1.279,1.279,0,0,0,1.267-1.267v-3.514a1.279,1.279,0,0,0-1.267-1.267h-16.245Z" transform="translate(-1081.048 -612.6)" fill="#333e48"/>
                        <path id="Path_84" data-name="Path 84" d="M1098.823,617h-12.385a.324.324,0,0,0-.288.518l1.728,2.823a.317.317,0,0,0,.288.173h3.456A19.624,19.624,0,0,1,1098.823,617Z" transform="translate(-1083.181 -614.465)" fill="#f37121"/>
                      </g>
                      <path id="Path_85" data-name="Path 85" d="M255.844,602.047l-10.139-.864-5.933-11.175-7.6-48.273,4.666-7.373c3.226-.058,6.567-.173,9.851-.461l-4.436,6.913,7.95,50.981Zm-19.874-10.83-.058-.346-7.892-50,4.09-6.509c-3.284,0-6.337-.058-9.217-.173l-4.493,7.086,7.546,47.985,5.415,10.657,9.563.807Z" transform="translate(-206.36 -472.598)" fill="#ef4065"/>
                      <g id="Group_39" data-name="Group 39" transform="translate(12.04 61.302)">
                        <path id="Path_86" data-name="Path 86" d="M228.135,541.6l-.058-.518,4.09-6.509h-2.535c-.691,0-1.44,0-2.131-.058h-.4c-.634,0-1.21,0-1.843-.058h-.4c-.634,0-1.325,0-1.959-.057h-.058l-4.436,7.086C221.741,541.6,224.909,541.658,228.135,541.6Z" transform="translate(-218.4 -534.112)" fill="#f27581"/>
                        <path id="Path_87" data-name="Path 87" d="M256.929,533.9c-3.284.288-6.625.4-9.851.461l-4.378,6.97c3.284-.115,6.567-.288,9.793-.518l4.436-6.913Z" transform="translate(-228.702 -533.9)" fill="#f27581"/>
                      </g>
                      <g id="Group_40" data-name="Group 40" transform="translate(19.701 116.718)">
                        <path id="Path_88" data-name="Path 88" d="M261.63,643.111l10.139.864-5.7-10.2h0c-3.4-.288-6.74-.634-9.966-.979Z" transform="translate(-242.044 -631.245)" fill="#d50e50"/>
                        <path id="Path_89" data-name="Path 89" d="M246.677,641.564l-5.069-9.5-.058-.346-.058-.518c-3.456-.346-6.74-.749-9.793-1.095h0l5.415,10.657,3.4.288Z" transform="translate(-231.7 -630.1)" fill="#d50e50"/>
                      </g>
                      <g id="Group_41" data-name="Group 41" transform="translate(11.406 60.553)">
                        <path id="Path_90" data-name="Path 90" d="M266.619,602.245l-11.752-.979L248.7,589.687v-.115l-7.6-48.5,4.954-7.892h.346c3.572-.058,6.8-.173,9.793-.461l1.325-.115-5.012,7.777,7.892,50.635ZM255.732,600l8.583.749-5.127-9.275v-.115l-7.95-51.269,3.86-5.991c-2.535.173-5.242.288-8.238.346l-4.32,6.855,7.546,47.928Z" transform="translate(-227.39 -532.6)" fill="#333e48"/>
                        <path id="Path_91" data-name="Path 91" d="M241.667,601.275l-11.118-.979L224.9,589.12,217.3,540.9l4.781-7.6h.691c2.707.058,5.761.115,8.871.115H232.8l-4.608,7.316,7.834,50Zm-10.254-2.189,8.007.691-4.551-8.583-.058-.461L226.92,540.5l3.629-5.7c-2.707,0-5.3-.058-7.662-.115l-4.148,6.567,7.489,47.64Z" transform="translate(-217.3 -532.897)" fill="#333e48"/>
                      </g>
                      <path id="Path_92" data-name="Path 92" d="M652.177,550.941H631.9V547.6h20.277a1.672,1.672,0,0,1,1.671,1.671h0A1.672,1.672,0,0,1,652.177,550.941Z" transform="translate(-381.661 -478.406)" fill="#e4e5e6"/>
                      <path id="Path_93" data-name="Path 93" d="M651.668,551.066H630.7V546.4h20.968a2.311,2.311,0,0,1,2.3,2.3A2.361,2.361,0,0,1,651.668,551.066Zm-19.643-1.325h19.643a1.037,1.037,0,1,0,0-2.074H632.025Z" transform="translate(-381.152 -477.898)" fill="#333e48"/>
                      <path id="Path_94" data-name="Path 94" d="M635.99,558.988H631.9V553.4h6.682Z" transform="translate(-381.661 -480.865)" fill="#e4e5e6"/>
                      <path id="Path_95" data-name="Path 95" d="M635.927,559.213H630.8V552.3h8.353Zm-3.86-1.325h3l2.016-4.321h-5.012Z" transform="translate(-381.195 -480.399)" fill="#333e48"/>
                      <path id="Path_96" data-name="Path 96" d="M636.508,569.9a2.3,2.3,0,1,1-2.3-2.3A2.3,2.3,0,0,1,636.508,569.9Z" transform="translate(-381.661 -486.885)" fill="#e4e5e6"/>
                      <path id="Path_97" data-name="Path 97" d="M633.738,572.376a2.938,2.938,0,1,1,2.938-2.938A2.95,2.95,0,0,1,633.738,572.376Zm0-4.608a1.613,1.613,0,1,0,0,3.226,1.613,1.613,0,1,0,0-3.226Z" transform="translate(-381.195 -486.419)" fill="#333e48"/>
                      <path id="Path_98" data-name="Path 98" d="M617.742,603.368c-2.592-6.279-3.053-24.6-3.341-37.962-.115-4.666-.23-8.756-.4-10.945-.691-8.526,1.383-23.273,2.189-28.86l1.267.173c-.806,5.53-2.823,20.22-2.189,28.572.173,2.247.288,6.337.4,11,.288,12.5.749,31.453,3.284,37.5Z" transform="translate(-374.013 -469.08)" fill="#333e48"/>
                      <g id="Group_43" data-name="Group 43" transform="translate(53.055)">
                        <path id="Path_99" data-name="Path 99" d="M629.315,489.452c-2.189-1.037-5.933-.979-7.662,2.016-1.843,3.111-3.111,9.274.346,16.418a36.087,36.087,0,0,0,15.611,0Z" transform="translate(-429.597 -453.497)" fill="#333e48"/>
                        <g id="Group_42" data-name="Group 42" transform="translate(196.203 31.45)">
                          <path id="Path_100" data-name="Path 100" d="M647.709,491.561c-2.88-6.625-9.274-9.447-12.731-7.95s-6.509,8.065.691,24.022l14.459-1.152C649.149,503.716,650.647,498.243,647.709,491.561Z" transform="translate(-630.656 -482.562)" fill="#edb989"/>
                          <path id="Path_101" data-name="Path 101" d="M637.488,483.693c-.115.058-.173.058-.288.115.576.691.979,1.21.979,1.21,5.818,1.728,12.846,3.111,13.019,18.088a15.6,15.6,0,0,0,.346,3.572l1.037-.058c-.979-2.823.461-8.3-2.419-14.977S640.944,482.138,637.488,483.693Z" transform="translate(-633.166 -482.586)" fill="#f5d8bc"/>
                          <path id="Path_102" data-name="Path 102" d="M634.807,507.9l-.173-.4c-5.242-11.694-4.9-17.915-3.687-21.141a6.386,6.386,0,0,1,3.341-3.8,7.051,7.051,0,0,1,5.588.23,15.028,15.028,0,0,1,8.007,8.065h0a28.49,28.49,0,0,1,2.074,11.118,13.85,13.85,0,0,0,.4,3.86l.288.807Zm1.786-24.482a4.3,4.3,0,0,0-1.786.346,5.115,5.115,0,0,0-2.65,3.053c-1.095,2.938-1.44,8.7,3.456,19.7l13.249-1.037a20.84,20.84,0,0,1-.23-3.456,26.171,26.171,0,0,0-1.959-10.6,13.587,13.587,0,0,0-7.258-7.373A6.632,6.632,0,0,0,636.593,483.416Z" transform="translate(-630.198 -482.079)" fill="#333e48"/>
                          <path id="Path_103" data-name="Path 103" d="M648.746,503.6c-3.226-12.385-8.353-18.434-13.019-20.1a2.85,2.85,0,0,0-.749.23c-3.456,1.5-6.509,8.065.691,24.022l13.883-1.095C649.322,505.736,649.034,504.757,648.746,503.6Z" transform="translate(-630.656 -482.681)" fill="#f0c8a2"/>
                          <path id="Path_104" data-name="Path 104" d="M648.984,510.68c-2.189-6.394-7.662-17.742-9.217-18.261-1.786-.576-3.111,1.21-2.189,3.341.691,1.613,3.226,9.793,5.242,15.381Z" transform="translate(-633.199 -486.416)" fill="#f5d8bc"/>
                          <path id="Path_105" data-name="Path 105" d="M634.807,507.992l-.173-.4c-5.242-11.694-4.9-17.915-3.687-21.141a6.386,6.386,0,0,1,3.341-3.8,3.032,3.032,0,0,1,.864-.288l.173-.058.173.058c3.341,1.21,9.505,5.473,13.422,20.565h0c.288,1.094.576,2.131.806,3.111l.173.749Zm.4-24.31c-.173.058-.288.115-.461.173a5.114,5.114,0,0,0-2.65,3.053c-1.094,2.938-1.44,8.7,3.456,19.7l12.673-.979c-.173-.749-.4-1.5-.576-2.3h0C644.946,492.784,640.4,485.641,635.211,483.683Z" transform="translate(-630.198 -482.173)" fill="#333e48"/>
                        </g>
                        <path id="Path_106" data-name="Path 106" d="M639.112,454.542l5.876-5.357c-10.83-1.21-72.122-1.44-83.528,1.613-10.2,2.707-49.944,20.392-63.136,26.326a4.343,4.343,0,0,0-2.016,6.049,4.232,4.232,0,0,0,3.572,2.247,1.594,1.594,0,0,1,.518.058c14.977-11.175,52.364-25.98,67.975-29.437C585.942,452.065,639.112,454.542,639.112,454.542Z" transform="translate(-377.006 -436.33)" fill="#333e48"/>
                        <path id="Path_107" data-name="Path 107" d="M790.365,486.5c-9.563-9.217-37.156-35.543-39.69-36.752-.634-.288-4.09-.576-9.274-.749l13.883,43.031q18.664-.518,33.872-1.9A2.128,2.128,0,0,0,790.365,486.5Z" transform="translate(-481.138 -436.606)" fill="#b9e5fb"/>
                        <path id="Path_108" data-name="Path 108" d="M790.768,488.978l-13.249-14.747c-11.464-10.887-25.058-23.676-26.844-24.482-.634-.288-4.09-.576-9.274-.749l1.9,5.818h5.876c1.152,0,33.181,31.568,35.024,34.851a3.026,3.026,0,0,0,.634.807c1.44-.115,2.88-.23,4.32-.4A1.764,1.764,0,0,0,790.768,488.978Z" transform="translate(-481.138 -436.606)" fill="#98c9dd"/>
                        <path id="Path_109" data-name="Path 109" d="M744.411,449.115c-.922-.058-1.959-.115-3.111-.115l13.883,43.031c1.037,0,2.016-.058,3-.115Z" transform="translate(-481.095 -436.606)" fill="#e4e5e6"/>
                        <path id="Path_110" data-name="Path 110" d="M754.044,492.214,739.7,447.8l.922.058c1.095.058,2.131.115,3.111.115h.461l14.229,44.068-1.21.057c-.922,0-1.786.058-2.707.058Zm-12.5-43.031,13.422,41.706c.576,0,1.094-.058,1.671-.058L743.214,449.3A15.231,15.231,0,0,0,741.543,449.183Z" transform="translate(-480.417 -436.097)" fill="#333e48"/>
                        <path id="Path_111" data-name="Path 111" d="M565.736,431.336c-14.344-6.221-133.242-.634-153.749,7.2-19.24,7.374-94.934,41.534-121.087,48.619h0c14.171-2.88,89.461-10.6,125.868-7.143s144.705,11.579,203.809,1.21C620.577,481.222,580.08,437.557,565.736,431.336Zm32.374,50.175c-15.611,1.44-34.1,2.189-55.3,2.189-54.725,0-110.084-4.839-125.753-6.279-1.267-.115-2.65-.23-4.09-.346a4.577,4.577,0,0,1-3.572-2.247,4.343,4.343,0,0,1,2.016-6.049c13.192-5.933,53-23.618,63.136-26.326,12.27-3.284,81.973-2.765,85.083-1.325,2.535,1.21,30.128,27.535,39.69,36.752A2.1,2.1,0,0,1,598.111,481.51Z" transform="translate(-290.151 -427.985)" fill="#5a5553"/>
                        <path id="Path_112" data-name="Path 112" d="M658.6,434.619a36.09,36.09,0,0,0-5.53-3.284c-14.344-6.221-133.242-.634-153.749,7.2-.749.288-1.555.576-2.419.922C543.733,431.854,629.22,432.891,658.6,434.619Z" transform="translate(-377.484 -427.985)" fill="#707071"/>
                        <path id="Path_113" data-name="Path 113" d="M289.888,487.4l-.288-1.21.634-.173c17.915-4.9,59.276-22.524,89.519-35.427,13.653-5.818,25.462-10.887,31.51-13.192,11.406-4.378,49.886-7.546,79.323-8.929,29.494-1.383,66.822-1.728,74.887,1.728,14.344,6.164,53.458,48.273,55.071,50.059l.807.864-1.21.23c-63.539,11.118-181.054.922-203.981-1.21-35.716-3.341-110.833,4.09-125.7,7.143Zm104.151-9.39c8.3,0,15.9.23,22.293.864,22.754,2.131,138.829,12.212,202.426,1.44-5.818-6.221-40.842-43.262-53.8-48.85-14.171-6.106-133.011-.518-153.231,7.2-6.049,2.3-17.8,7.316-31.453,13.134-26.1,11.118-60.543,25.865-81.051,32.778C319.324,481.873,361.837,478.013,394.039,478.013Zm148.219,5.818c-54.725,0-110.142-4.839-125.811-6.279-1.267-.115-2.592-.23-4.09-.346a5.1,5.1,0,0,1-4.09-2.592,4.944,4.944,0,0,1,2.362-6.913c12.212-5.473,52.94-23.618,63.251-26.383,12.443-3.341,82.434-2.708,85.544-1.267,2.592,1.21,28.745,26.211,39.863,36.868a2.685,2.685,0,0,1,.691,2.88,2.743,2.743,0,0,1-2.362,1.843C582.006,483.083,563.4,483.831,542.258,483.831ZM525.38,440.109c-20.68,0-44.472.634-51.154,2.419-10.2,2.707-50.866,20.8-63.078,26.268a3.519,3.519,0,0,0-1.959,2.189,3.732,3.732,0,0,0,.23,2.938,3.681,3.681,0,0,0,3,1.9c1.44.115,2.823.23,4.09.346,15.669,1.5,71.028,6.279,125.7,6.279,21.084,0,39.69-.749,55.244-2.189l.058.634-.058-.634a1.353,1.353,0,0,0,1.21-.979,1.451,1.451,0,0,0-.346-1.5c-22.7-21.833-37.847-35.888-39.517-36.637C557.466,440.57,542.489,440.109,525.38,440.109Z" transform="translate(-289.6 -427.484)" fill="#333e48"/>
                        <path id="Path_114" data-name="Path 114" d="M686.233,486.209c-9.562-9.217-37.156-35.543-39.69-36.752-3.111-1.5-72.813-1.959-85.083,1.325-10.2,2.707-49.944,20.392-63.136,26.326a4.343,4.343,0,0,0-2.016,6.049,4.232,4.232,0,0,0,3.572,2.247c1.44.115,2.765.23,4.09.346,15.669,1.5,71.085,6.279,125.753,6.279,21.2,0,39.69-.749,55.3-2.189A2.128,2.128,0,0,0,686.233,486.209Zm-56.569,3.226c-54.61,0-109.911-4.781-125.523-6.279q-1.9-.173-4.148-.346a1.8,1.8,0,0,1-1.44-.922,1.654,1.654,0,0,1-.115-1.383,1.88,1.88,0,0,1,.922-1.037c12.155-5.473,52.709-23.5,62.733-26.211,5.357-1.44,25.174-2.362,50.4-2.362,17.743,0,30.646.461,32.95.922,2.419,1.613,16.475,14.689,36.349,33.757a1.1,1.1,0,0,1-.691,1.9C666.417,488.8,649.078,489.435,629.664,489.435Z" transform="translate(-377.006 -436.314)" fill="#e4e5e6"/>
                        <path id="Path_115" data-name="Path 115" d="M629.145,492.221c-54.725,0-110.142-4.839-125.811-6.279-1.267-.115-2.592-.23-4.09-.346a5.1,5.1,0,0,1-4.09-2.592,4.944,4.944,0,0,1,2.362-6.913c12.212-5.473,52.94-23.618,63.251-26.383,12.443-3.341,82.434-2.707,85.544-1.267,2.592,1.21,28.745,26.211,39.863,36.868h0a2.685,2.685,0,0,1,.691,2.88,2.743,2.743,0,0,1-2.362,1.843C668.893,491.472,650.286,492.221,629.145,492.221ZM612.266,448.5c-20.68,0-44.472.634-51.154,2.42-10.2,2.707-50.866,20.8-63.078,26.268a3.519,3.519,0,0,0-1.959,2.189,3.732,3.732,0,0,0,.23,2.938,3.681,3.681,0,0,0,3,1.9c1.44.115,2.823.23,4.09.346,15.669,1.5,71.028,6.279,125.7,6.279,21.084,0,39.69-.749,55.244-2.189a1.353,1.353,0,0,0,1.21-.979,1.451,1.451,0,0,0-.346-1.5h0c-22.7-21.833-37.847-35.888-39.517-36.637C644.353,448.959,629.375,448.5,612.266,448.5Zm16.878,41.13c-54.61,0-109.969-4.781-125.58-6.279q-1.9-.173-4.148-.346a2.419,2.419,0,0,1-1.959-1.267,2.206,2.206,0,0,1-.173-1.9,2.322,2.322,0,0,1,1.267-1.383c12.212-5.473,52.767-23.5,62.848-26.211,5.415-1.44,25.289-2.362,50.578-2.362,17.743,0,30.761.461,33.066.922h.115l.115.058c2.419,1.671,16.418,14.632,36.464,33.814a1.71,1.71,0,0,1,.461,1.843,1.752,1.752,0,0,1-1.5,1.152C665.9,489,648.558,489.629,629.145,489.629Zm-17.166-38.48c-25.174,0-44.932.922-50.232,2.3-10.023,2.65-50.462,20.68-62.675,26.153a1.156,1.156,0,0,0-.576.634,1.078,1.078,0,0,0,.922,1.44q2.247.173,4.148.346c15.611,1.5,70.913,6.279,125.465,6.279,19.413,0,36.695-.634,51.442-1.843.288,0,.346-.23.4-.288a.4.4,0,0,0-.115-.461c-19.413-18.607-33.526-31.741-36.176-33.642C642.106,451.609,629.375,451.148,611.978,451.148Z" transform="translate(-376.486 -435.874)" fill="#333e48"/>
                        <path id="Path_116" data-name="Path 116" d="M779.342,445.1l-6.8,1.152a2.225,2.225,0,0,0-1.152,3.8l39.46,36.925a3.991,3.991,0,0,0,2.477,1.037l10.657.23C823.986,488.189,797.084,459.156,779.342,445.1Z" transform="translate(-493.56 -434.952)" fill="#e4e5e6"/>
                        <path id="Path_117" data-name="Path 117" d="M825.036,488.329l-12.212-.23a4.345,4.345,0,0,1-2.938-1.21l-39.46-36.925a2.912,2.912,0,0,1-.806-2.938,2.783,2.783,0,0,1,2.247-2.016l7.086-1.21.23.173c17.57,13.941,44.471,42.916,44.7,43.2ZM778.664,445.24l-6.51,1.094a1.564,1.564,0,0,0-1.21,1.095,1.68,1.68,0,0,0,.4,1.613l39.46,36.925a3.018,3.018,0,0,0,2.074.806l9.1.173C816.857,481.474,794.16,457.625,778.664,445.24Z" transform="translate(-493.055 -434.401)" fill="#333e48"/>
                        <path id="Path_118" data-name="Path 118" d="M814.815,487.1l8.641.058c-6.221-6.625-26.038-27.3-40.727-39.46l-8.41,1.5a.215.215,0,0,0-.23.173c-.058.173.057.23.057.23l39.46,36.925A1.523,1.523,0,0,0,814.815,487.1Z" transform="translate(-494.989 -436.054)" fill="#b9e5fb"/>
                        <path id="Path_119" data-name="Path 119" d="M824.567,487.385l-10.2-.115a2.476,2.476,0,0,1-1.613-.634L773.3,449.711a.894.894,0,0,1-.23-.922.866.866,0,0,1,.691-.634l8.7-1.555.23.173c14.8,12.212,34.967,33.3,40.785,39.517ZM814.371,486l7.086.058c-6.8-7.258-25.4-26.556-39.345-38.077l-7.316,1.325,38.884,36.407A.954.954,0,0,0,814.371,486Zm-40.382-36.58Z" transform="translate(-494.545 -435.588)" fill="#333e48"/>
                      </g>
                      <path id="Path_120" data-name="Path 120" d="M846.641,601.823l-1.325-.115c0-.115.288-2.823,3-16.187,3.86-20.623,1.728-54.841.23-57.03a46.466,46.466,0,0,0-4.378-1.959A42.028,42.028,0,0,1,838,523.595l.749-1.095a42.617,42.617,0,0,0,5.933,2.765,37.562,37.562,0,0,1,4.608,2.131c1.9,1.21,2.362,19.989,2.42,22.121.115,6.682.23,23.676-2.131,36.234C846.871,599.115,846.641,601.823,846.641,601.823Z" transform="translate(-469.036 -467.765)" fill="#333e48"/>
                      <path id="Path_121" data-name="Path 121" d="M828.814,579.822l-13.422.807a2.419,2.419,0,0,1-2.592-2.477V554.475A2.485,2.485,0,0,1,815.392,552l13.422.806a5.606,5.606,0,0,1,5.242,5.588v15.784A5.62,5.62,0,0,1,828.814,579.822Z" transform="translate(-458.353 -480.27)" fill="#676974"/>
                      <path id="Path_122" data-name="Path 122" d="M828.814,552.9l-13.422-.806a2.419,2.419,0,0,0-2.592,2.477v.058a2.446,2.446,0,0,1,2.362-1.383l13.422.806a5.607,5.607,0,0,1,5.242,5.588v15.784a2.372,2.372,0,0,1-.057.634,6.106,6.106,0,0,0,.288-1.786V558.488A5.567,5.567,0,0,0,828.814,552.9Z" transform="translate(-458.353 -480.308)" fill="#9895a0"/>
                      <path id="Path_123" data-name="Path 123" d="M830.385,577.877l-13.422.807a2.419,2.419,0,0,1-2.592-2.477V552.3a2.477,2.477,0,0,0-1.671,2.3V578.28a2.485,2.485,0,0,0,2.592,2.477l13.422-.807a5.479,5.479,0,0,0,4.724-3.284A5.544,5.544,0,0,1,830.385,577.877Z" transform="translate(-458.31 -480.399)" fill="#5a5c66"/>
                      <g id="Group_44" data-name="Group 44" transform="translate(183.128 133.366)">
                        <path id="Path_124" data-name="Path 124" d="M516.8,660.1l.691,2.88a7.389,7.389,0,0,0,7.143,5.645h212.68a7.326,7.326,0,0,0,6.913-4.9l1.267-3.572H516.8Z" transform="translate(-515.994 -659.466)" fill="#c2c4c6"/>
                        <path id="Path_125" data-name="Path 125" d="M517.491,663.023c.058.115.058.288.115.4H744.342l1.152-3.226H516.8Z" transform="translate(-515.994 -659.509)" fill="#f8f8f9"/>
                        <path id="Path_126" data-name="Path 126" d="M736.721,668.793H524.041a8.012,8.012,0,0,1-7.777-6.106L515.4,659H745.823l-1.613,4.493A7.952,7.952,0,0,1,736.721,668.793Zm-219.65-8.468.518,2.074a6.715,6.715,0,0,0,6.509,5.127h212.68a6.652,6.652,0,0,0,6.279-4.436l.979-2.708H517.071Z" transform="translate(-515.4 -659)" fill="#333e48"/>
                      </g>
                      <path id="Path_127" data-name="Path 127" d="M1190.4,555.2c3.859,1.786,5.3,2.535,5.7,3.572s1.152,23.849-.173,28c-1.21,3.86-1.786,4.493-5.53,7.258Z" transform="translate(-618.434 -481.628)" fill="#c2c4c6"/>
                      <path id="Path_128" data-name="Path 128" d="M1195.93,596.734c-1.21,2.477-1.786,2.88-5.53,4.666v6.913c3.744-2.765,4.378-3.4,5.53-7.258.576-1.786.749-6.8.749-12.155C1196.679,592.356,1196.506,595.64,1195.93,596.734Z" transform="translate(-618.434 -495.915)" fill="#9a9c9f"/>
                      <path id="Path_129" data-name="Path 129" d="M1196.1,560.212c.23.518.576,7.316.576,13.825,0-7.2-.346-14.689-.576-15.266-.4-1.037-1.9-1.786-5.7-3.572v1.728C1194.2,558.6,1195.7,559.232,1196.1,560.212Z" transform="translate(-618.434 -481.628)" fill="#f8f8f9"/>
                      <path id="Path_130" data-name="Path 130" d="M1189.2,594.588V553.4l.922.461c4.09,1.9,5.53,2.65,6.048,3.975s1.21,24.137-.173,28.457c-1.267,4.032-1.959,4.781-5.761,7.6Zm1.325-39.114V592c2.707-2.074,3.226-2.88,4.263-6.164,1.267-4.148.461-26.614.173-27.593C1194.672,557.49,1193.29,556.8,1190.525,555.474Z" transform="translate(-617.925 -480.865)" fill="#333e48"/>
                      <path id="Path_131" data-name="Path 131" d="M207.226,599.332h-4.781L198.7,587.983V579.4h4.148a3.643,3.643,0,0,1,3.572,2.88l3.111,14.229A2.359,2.359,0,0,1,207.226,599.332Z" transform="translate(-198.009 -491.888)" fill="#c2c4c6"/>
                      <path id="Path_132" data-name="Path 132" d="M202.529,605.9h4.781a2.359,2.359,0,0,0,2.3-2.823l-1.786-8.18H198.9Z" transform="translate(-198.094 -498.459)" fill="#abacad"/>
                      <path id="Path_133" data-name="Path 133" d="M206.3,581.777a3.729,3.729,0,0,0-3.456-2.477H198.7v2.477Z" transform="translate(-198.009 -491.845)" fill="#f8f8f9"/>
                      <path id="Path_134" data-name="Path 134" d="M206.717,599.5h-5.242L197.5,587.632V578.3h4.781a4.317,4.317,0,0,1,4.205,3.4l3.111,14.229a3.121,3.121,0,0,1-.576,2.535A3,3,0,0,1,206.717,599.5Zm-4.263-1.325h4.32a1.723,1.723,0,0,0,1.325-.633,1.629,1.629,0,0,0,.346-1.44l-3.111-14.229a3.017,3.017,0,0,0-2.938-2.362H198.94v7.834Z" transform="translate(-197.5 -491.421)" fill="#333e48"/>
                    </g>
                  </g>
                </g>
              </svg>