<?xml version="1.0" encoding="utf-8"?>
<!-- Generator: Adobe Illustrator 19.0.0, SVG Export Plug-In . SVG Version: 6.00 Build 0)  -->
<svg version="1.1" id="Layer_1" xmlns="http://www.w3.org/2000/svg" xmlns:xlink="http://www.w3.org/1999/xlink" x="0px" y="0px"
	 viewBox="-265 335.1 79.4 122.9" style="enable-background:new -265 335.1 79.4 122.9;" xml:space="preserve">
<style type="text/css">
	.st0{fill:#D1D1D1;}
</style>
<g>
	<path class="st0" d="M-217.9,422.2c4.7-1.3,9-3.8,12.4-7.2c5.1-5.1,8.2-12.1,8.2-19.8v-30.9c0-7.7-3.2-14.7-8.2-19.8
		c-5.1-5.1-12.1-8.2-19.8-8.2c-7.7,0-14.7,3.2-19.8,8.2c-5.1,5.1-8.2,12.1-8.2,19.8v30.9c0,7.7,3.2,14.7,8.2,19.8
		c4,4,9.1,6.7,14.8,7.8C-226.9,423.3-221.1,423-217.9,422.2L-217.9,422.2L-217.9,422.2z M-225.6,401.2c2.9,0,5.3-2.4,5.3-5.3v-5.5
		c0-2.9-2.4-5.3-5.3-5.3s-5.3,2.4-5.3,5.3v5.5C-231,398.8-228.6,401.2-225.6,401.2L-225.6,401.2z M-210.2,410.2
		c-3.9,3.9-9.2,6.3-15.1,6.3c-5.9,0-11.2-2.4-15.1-6.3c-3.9-3.9-6.3-9.2-6.3-15.1v-30.9c0-5.9,2.4-11.2,6.3-15.1
		c3.9-3.9,9.2-6.3,15.1-6.3c5.9,0,11.2,2.4,15.1,6.3c3.9,3.9,6.3,9.2,6.3,15.1v30.9C-203.9,401-206.3,406.3-210.2,410.2
		L-210.2,410.2L-210.2,410.2z"/>
</g>
<g>
	<path class="st0" d="M-248.1,425.3c-1.2-1.2-3.2-1.2-4.4,0.1s-1.2,3.2,0.1,4.4l25,24.3l2.2-2.3l-2.2,2.3c1.3,1.2,3.2,1.2,4.5-0.1
		c0,0,0.1-0.1,0.1-0.1l24.6-24.1c1.2-1.2,1.3-3.2,0.1-4.4s-3.2-1.3-4.4-0.1l-22.6,22.1L-248.1,425.3L-248.1,425.3z"/>
</g>
</svg>
